<?xml version="1.0" encoding="UTF-8"?>
<svg width="543px" height="527px" viewBox="0 0 543 527" version="1.1" xmlns="http://www.w3.org/2000/svg" xmlns:xlink="http://www.w3.org/1999/xlink">
    <!-- Generator: sketchtool 49 (51002) - http://www.bohemiancoding.com/sketch -->
    <title>C191F6E4-1807-4882-8FE7-745B87042357@3x</title>
    <desc>Created with sketchtool.</desc>
    <defs>
        <linearGradient x1="51.4020451%" y1="-28.1753217%" x2="53.1533738%" y2="92.8106945%" id="linearGradient-1">
            <stop stop-color="#7ECC79" offset="0%"></stop>
            <stop stop-color="#1BAF9D" offset="100%"></stop>
        </linearGradient>
        <linearGradient x1="65.4102929%" y1="0%" x2="56.416194%" y2="100%" id="linearGradient-2">
            <stop stop-color="#83D4CB" offset="0%"></stop>
            <stop stop-color="#7CE5D9" offset="100%"></stop>
        </linearGradient>
        <linearGradient x1="52.0754749%" y1="-28.1753217%" x2="48.1504333%" y2="92.9334256%" id="linearGradient-3">
            <stop stop-color="#8CE686" offset="0%"></stop>
            <stop stop-color="#41EDD9" offset="100%"></stop>
        </linearGradient>
        <linearGradient x1="51.4020451%" y1="-28.1753217%" x2="48.7505626%" y2="92.9334256%" id="linearGradient-4">
            <stop stop-color="#7ECC79" offset="0%"></stop>
            <stop stop-color="#33BAAA" offset="100%"></stop>
        </linearGradient>
        <path d="M132.606396,55.7108192 C96.7154384,12.1571883 52.5732814,-5.69665532 0.179924727,2.14928823 C0.179924727,29.9804551 49.9860385,33.0482814 48.3538807,39.2852918 C46.7217229,45.5223022 35.2937622,49.1741054 37.9929861,59.8992211 C40.69221,70.6243369 59.8655213,76.752218 77.509325,72.5175321 C95.1531287,68.2828462 85.2657216,93.2937578 96.9251657,100.614704 C104.698129,105.495334 120.311821,107.077033 143.766242,105.359801 L132.606396,55.7108192 Z" id="path-5"></path>
    </defs>
    <g id="Messaging" stroke="none" stroke-width="1" fill="none" fill-rule="evenodd">
        <g transform="translate(-793.000000, -2798.000000)" id="Integration">
            <g transform="translate(0.000000, 2672.000000)">
                <g id="Development" transform="translate(795.000000, 127.000000)">
                    <path d="M7.57027974,395.173142 L7.57027974,406.160497 L17.2288773,406.160497 C27.7261581,393.711834 32.9747985,387.487503 32.9747985,387.487503 C32.9747985,387.487503 45.2948836,387.487503 69.9350537,387.487503 L93.8238859,410.324803 L394.782057,410.324803 L394.782057,461.190298 L399.311036,459.030649 L399.311036,410.324803 L442.874468,410.324803 L442.874468,495.915136 L452.281719,488.483535 L452.281719,411.684291 L494.742056,411.684291 L494.742056,394.568153 L32.9747985,377.840671 L7.57027974,395.173142 Z" id="Path-22" fill="#0D6574"></path>
                    <g id="Group-9" transform="translate(7.597806, 183.419028)">
                        <path d="M487.907549,215.353815 L458.417306,150.435223 L28.9583611,150.435223 L0,211.959644 L18.3593502,211.959644 C27.6176872,207.741333 34.0258852,205.632178 37.5839442,205.632178 C45.9191487,205.632178 56.5343096,208.872724 69.4294268,215.353815 L487.907549,215.353815 Z" id="Path-8" fill="#D6F1EE"></path>
                        <polygon id="Path-21" fill="#0D6574" points="433.218505 162.320246 344.017662 169.053879 344.017662 171.955298 402.642151 188.538356 433.218505 165.221665"></polygon>
                        <polygon id="Path-21-Copy" fill="#33BAAA" points="376.008545 151.633639 344.017662 169.252869 402.304235 185.739392 433.244766 162.307874"></polygon>
                        <polygon id="Path-16" fill="#0D6574" points="249.267554 147.426475 165.127501 166.200491 165.127501 168.855838 241.176568 168.855838 249.267554 152.13071"></polygon>
                        <polygon id="Path-16-Copy" fill="#1B8597" points="176.46696 147.496664 165.035128 166.153409 240.277116 166.153409 249.252837 147.496664"></polygon>
                        <rect id="Rectangle-10-Copy" fill="#0D6574" x="148.409506" y="0.900809717" width="152.906764" height="124.311741" rx="9.9"></rect>
                        <polygon id="Rectangle-12" fill="#0D6574" points="195.180987 116.204453 221.613659 116.939986 221.613659 154.462943 217.959794 159.44332 195.180987 159.44332"></polygon>
                        <rect id="Rectangle-12-Copy" fill="#33BAAA" x="195.180987" y="116.204453" width="22.4862888" height="43.2388664"></rect>
                        <rect id="Rectangle-10-Copy-2" fill="#1B8597" x="118.727605" y="0.900809717" width="177.191956" height="124.311741" rx="9.9"></rect>
                        <rect id="Rectangle-10" fill="url(#linearGradient-1)" x="125.923218" y="9.00809717" width="162.800731" height="108.997976" rx="6.3"></rect>
                        <path d="M173.242348,76.573062 L284.723949,76.573062 C286.933088,76.573062 288.723949,78.363923 288.723949,80.573062 L288.723949,111.706073 C288.723949,115.185467 285.903343,118.006073 282.423949,118.006073 L162.305943,118.006073 L166.995276,82.0581443 C167.404595,78.9203535 170.077973,76.573062 173.242348,76.573062 Z" id="Rectangle-10-Copy-3" fill="url(#linearGradient-2)"></path>
                        <polygon id="Path-9" fill="#33BAAA" points="138.163167 201.501453 253.374865 201.09432 258.065993 179.244604 256.995421 173.276502 120.526508 175.657895"></polygon>
                        <polygon id="Path-9-Copy" fill="#0D6574" points="136.364264 198.799024 252.664089 198.799024 256.899523 172.955466 118.727605 172.955466"></polygon>
                        <path d="M123.224863,179.367084 L250.936085,178.360324" id="Path-11" stroke="#33BAAA" stroke-width="0.9"></path>
                        <path d="M121.42596,186.573562 L249.137182,185.566802" id="Path-11-Copy" stroke="#33BAAA" stroke-width="0.9"></path>
                        <path d="M120.526508,193.780039 L248.23773,192.773279" id="Path-11-Copy-2" stroke="#33BAAA" stroke-width="0.9"></path>
                        <path d="M244.105895,175.657895 L239.254113,194.481659" id="Path-12" stroke="#33BAAA" stroke-width="0.9"></path>
                        <path d="M236.010831,175.657895 L231.159049,194.481659" id="Path-12-Copy" stroke="#33BAAA" stroke-width="0.9"></path>
                        <path d="M227.915767,175.657895 L223.063985,194.481659" id="Path-12-Copy-2" stroke="#33BAAA" stroke-width="0.9"></path>
                        <path d="M220.365631,175.657895 L215.513849,194.481659" id="Path-12-Copy-3" stroke="#33BAAA" stroke-width="0.9"></path>
                        <path d="M213.524542,175.657895 L208.672761,194.481659" id="Path-12-Copy-4" stroke="#33BAAA" stroke-width="0.9"></path>
                        <path d="M158.657997,175.657895 L153.806216,194.481659" id="Path-12-Copy-5" stroke="#33BAAA" stroke-width="0.9"></path>
                        <path d="M167.652513,175.657895 L162.800731,194.481659" id="Path-12-Copy-10" stroke="#33BAAA" stroke-width="0.9"></path>
                        <path d="M176.647028,175.657895 L171.795247,194.481659" id="Path-12-Copy-11" stroke="#33BAAA" stroke-width="0.9"></path>
                        <path d="M151.107861,175.657895 L146.25608,194.481659" id="Path-12-Copy-6" stroke="#33BAAA" stroke-width="0.9"></path>
                        <path d="M143.912249,175.657895 L139.060467,194.481659" id="Path-12-Copy-7" stroke="#33BAAA" stroke-width="0.9"></path>
                        <path d="M136.716636,175.657895 L131.864855,194.481659" id="Path-12-Copy-8" stroke="#33BAAA" stroke-width="0.9"></path>
                        <path d="M129.521024,175.657895 L124.669242,194.481659" id="Path-12-Copy-9" stroke="#33BAAA" stroke-width="0.9"></path>
                        <g id="Group-11" transform="translate(8.391225, 0.000000)">
                            <ellipse id="Oval-4" stroke="#56A096" stroke-width="1.8" cx="95.4954296" cy="45.0404858" rx="5.8464351" ry="8.10728745"></ellipse>
                            <path d="M36.1941259,80.2966219 L39.0628628,115.858977 L69.1367408,117.583824 L73.8964752,88.5248699 C83.335852,90.8423137 89.9112486,86.4915203 93.6226647,75.4724898 C99.1897889,58.9439441 96.9084844,25.6482502 85.0158464,25.6482502 C77.0874211,25.6482502 63.4405388,27.4612703 44.0751993,31.0873104 L36.1941259,80.2966219 Z" id="Path-3" fill="#FFD7B3"></path>
                            <path d="M66.5873085,41.918183 C64.2185174,41.918183 56.566718,48.868659 63.5313793,56.135631 C70.4960406,63.402603 58.8707475,90.956929 46.0826163,90.956929 C33.2944852,90.956929 5.39890933,74.891155 9.01981096,44.5369796 C12.6407126,14.1828042 53.4674219,-12.9238671 81.9956378,6.60409231 C110.523854,26.1320517 83.6614359,32.5251138 83.6614359,43.3006422 C83.6614359,54.0761706 74.7362818,58.661943 71.8657463,52.1408696 C68.9952108,45.6197962 69.131105,41.918183 66.5873085,41.918183 Z" id="Path-2" fill="#0B4651"></path>
                            <path d="M69.3754612,46.5226378 L101.391437,44.2237598" id="Path-4" stroke="#56A096" stroke-width="1.8"></path>
                            <path d="M104.262417,226.192811 L102.532413,209.913249 L123.196912,221.454048 C169.132419,201.878639 192.325815,190.8859 192.7771,188.475833 C193.228385,186.065765 170.500849,189.89508 124.594493,199.963777 L93.2394899,183.151439 L87.4863938,195.580864 L96.3653528,226.192811 L104.262417,226.192811 Z" id="Path-30" fill="#0D6574" opacity="0.200000003"></path>
                            <path d="M123.364074,172.955466 L129.394285,188.680809 C163.807855,182.063614 183.01475,177.788425 187.01497,175.855241 C193.015302,172.955466 209.15559,171.80351 214.61484,175.855241 C218.25434,178.556395 220.795138,181.147568 222.237233,183.62876 C222.175013,189.101381 221.34567,191.837691 219.749205,191.837691 C217.354507,191.837691 213.751011,183.25518 206.313841,186.858478 C198.876671,190.461777 197.183281,196.853208 188.926476,193.178238 C180.66967,189.503269 128.844749,216.249205 120.989619,214.774958 C115.752866,213.792126 107.704529,206.146371 96.8446069,191.837691 L123.364074,172.955466 Z" id="Path-6" fill="#FFD7B3"></path>
                            <path d="M28.7644353,110.929803 C31.4470128,105.681712 34.7298792,102.635611 38.6130346,101.791498 C55.3504813,101.791498 64.1614873,101.791498 70.8031907,101.791498 C77.4448941,101.791498 80.9572012,109.291609 84.5139332,114.670719 C97.4664689,117.290753 111.506157,141.826033 124.38797,174.516805 C119.033351,183.095805 109.719758,189.344409 96.4471925,193.262617 L99.6822395,269.424658 C89.0936814,270.581867 79.4673318,260.665649 70.8031907,239.676003 C57.8069791,208.191536 28.7644353,196.500566 0.890251701,219.99644 C-0.856007423,181.604236 8.4353871,145.248691 28.7644353,110.929803 Z" id="Path-5" fill="#33BAAA"></path>
                            <path d="M96.5029203,192.971636 L89.2760779,193.960339 C79.245155,169.968057 74.2296936,155.688548 74.2296936,151.121814" id="Path-7" stroke="#0D6574" stroke-width="2.7"></path>
                        </g>
                    </g>
                    <path d="M276.429641,365.134538 C271.587277,377.309282 273.524089,383.828859 282.240078,384.693271 C295.314062,385.989888 298.803934,378.707338 298.803934,366.977522 C298.803934,361.973061 294.890977,355.473684 288.734449,355.473684 C283.732299,355.473684 279.630697,358.693969 276.429641,365.134538 Z" id="Path-10" fill="#0D6574"></path>
                    <path d="M276.429641,361.531299 C271.587277,373.706043 273.524089,380.225621 282.240078,381.090032 C295.314062,382.386649 298.803934,375.1041 298.803934,363.374283 C298.803934,358.369823 294.890977,351.870445 288.734449,351.870445 C283.732299,351.870445 279.630697,355.09073 276.429641,361.531299 Z" id="Path-10-Copy" fill="#33BAAA"></path>
                    <rect id="Rectangle-9" fill="#0D6574" transform="translate(289.126143, 355.023279) rotate(13.000000) translate(-289.126143, -355.023279) " x="288.226691" y="351.870445" width="1.79890311" height="6.30566802" rx="0.899451554"></rect>
                    <path d="M268.727993,295.007724 L269.91086,295.050659 C275.408506,295.25021 280.177614,291.285451 280.985518,285.843831 L283.616378,268.123731 C284.308957,263.458875 288.313595,260.0049 293.029583,260.0049 L253.47046,260.0049 L251.427136,289.597904 L268.727993,295.007724 Z" id="Path-13" fill="#D6F1EE"></path>
                    <path d="M275.669358,184.563941 L267.463651,278.818476 C266.913106,285.142283 270.365127,290.891052 275.716609,293.556123 C274.589133,294.515954 272.674441,294.852347 270.597115,295.119433 C269.212231,295.29749 257.753051,295.29749 236.219575,295.119433 C228.415455,295.119433 221.602707,289.824633 219.6651,282.253457 L194.664499,184.563941 L275.669358,184.563941 Z" id="Rectangle-11-Copy" fill="#0C5663" opacity="0.400000006"></path>
                    <path d="M144.53191,136.576923 L270.468274,136.576923 L257.62003,278.847522 C256.878442,287.059244 262.934182,294.317337 271.145905,295.058925 C271.592358,295.099243 272.0404,295.119433 272.488669,295.119433 L149.720123,295.119433 C140.276054,295.119433 132.620123,287.463502 132.620123,278.019433 C132.620123,277.538011 132.640453,277.056803 132.68106,276.577097 L144.53191,136.576923 Z" id="Rectangle-11" fill="#0D6574"></path>
                    <path d="M162.95369,152.791498 L160.50457,183.487346" id="Path-14" stroke="#FFFFFF" stroke-width="2.7" stroke-linecap="round" stroke-linejoin="round"></path>
                    <path d="M157.420782,217.712815 L152.700372,268.421573" id="Path-14-Copy" stroke="#FFFFFF" stroke-width="2.7" stroke-linecap="round" stroke-linejoin="round"></path>
                    <path d="M173.096892,152.791498 L187.021236,152.791498" id="Path-15" stroke="#F0707F" stroke-width="2.7" stroke-linecap="round" stroke-linejoin="round"></path>
                    <path d="M172.197441,165.402834 L176.269881,165.402834" id="Path-15-Copy-3" stroke="#FFFFFF" stroke-width="2.7" stroke-linecap="round" stroke-linejoin="round"></path>
                    <path d="M194.683729,152.791498 L208.608073,152.791498" id="Path-15-Copy" stroke="#FFFFFF" stroke-width="2.7" stroke-linecap="round" stroke-linejoin="round"></path>
                    <path d="M185.235161,165.402834 L208.608073,165.402834" id="Path-15-Copy-4" stroke="#ABFFA6" stroke-width="2.7" stroke-linecap="round" stroke-linejoin="round"></path>
                    <path d="M217.170018,152.791498 L256.298745,152.791498" id="Path-15-Copy-2" stroke="#42BEA0" stroke-width="2.7" stroke-linecap="round" stroke-linejoin="round"></path>
                    <path d="M217.170018,165.402834 L234.715088,165.402834" id="Path-15-Copy-5" stroke="#42BEA0" stroke-width="2.7" stroke-linecap="round" stroke-linejoin="round"></path>
                    <path d="M170.398537,177.11336 L184.322881,177.11336" id="Path-15-Copy-11" stroke="#F0707F" stroke-width="2.7" stroke-linecap="round" stroke-linejoin="round"></path>
                    <path d="M194.683729,177.11336 L208.608073,177.11336" id="Path-15-Copy-10" stroke="#FFFFFF" stroke-width="2.7" stroke-linecap="round" stroke-linejoin="round"></path>
                    <path d="M217.170018,177.11336 L244.471761,177.11336" id="Path-15-Copy-9" stroke="#42BEA0" stroke-width="2.7" stroke-linecap="round" stroke-linejoin="round"></path>
                    <path d="M169.499086,186.121457 L183.42343,186.121457" id="Path-15-Copy-14" stroke="#FFFFFF" stroke-width="2.7" stroke-linecap="round" stroke-linejoin="round"></path>
                    <path d="M167.700183,229.360324 L181.624527,229.360324" id="Path-15-Copy-17" stroke="#F0707F" stroke-width="2.7" stroke-linecap="round" stroke-linejoin="round"></path>
                    <path d="M194.683729,186.121457 L233.812457,186.121457" id="Path-15-Copy-12" stroke="#0D6574" stroke-width="2.7" stroke-linecap="round" stroke-linejoin="round"></path>
                    <path d="M166.800731,238.368421 L208.627646,238.368421" id="Path-15-Copy-22" stroke="#60C58D" stroke-width="2.7" stroke-linecap="round" stroke-linejoin="round"></path>
                    <path d="M219.868373,238.368421 L237.413443,238.368421" id="Path-15-Copy-20" stroke="#ABFFA6" stroke-width="2.7" stroke-linecap="round" stroke-linejoin="round"></path>
                    <path d="M171.297989,247.376518 L188.843059,247.376518" id="Path-15-Copy-24" stroke="#60C58D" stroke-width="2.7" stroke-linecap="round" stroke-linejoin="round"></path>
                    <path d="M219.868373,247.376518 L237.413443,247.376518" id="Path-15-Copy-23" stroke="#F0707F" stroke-width="2.7" stroke-linecap="round" stroke-linejoin="round"></path>
                    <path d="M165.001828,256.384615 L178.926172,256.384615" id="Path-15-Copy-28" stroke="#FFFFFF" stroke-width="2.7" stroke-linecap="round" stroke-linejoin="round"></path>
                    <path d="M190.186472,256.384615 L207.731542,256.384615" id="Path-15-Copy-27" stroke="#48B7CA" stroke-width="2.7" stroke-linecap="round" stroke-linejoin="round"></path>
                    <path d="M164.102377,265.392713 L173.55732,265.392713" id="Path-15-Copy-31" stroke="#F0707F" stroke-width="2.7" stroke-linecap="round" stroke-linejoin="round"></path>
                    <path d="M189.28702,265.392713 L206.83209,265.392713" id="Path-15-Copy-30" stroke="#0D6574" stroke-width="2.7" stroke-linecap="round" stroke-linejoin="round"></path>
                    <path d="M0.315327288,452.610725 C5.47863114,424.280722 18.3243445,388.531339 47.7376441,389.878151 C90.7069315,391.84568 83.9893701,439.175389 111.467773,451.968907 C133.482406,462.218578 150.979194,451.968907 165.460772,482.539824" id="Path-17" stroke="#0D6574" stroke-width="4" stroke-linecap="round" stroke-linejoin="round"></path>
                    <path d="" id="Path-18" stroke="#979797" stroke-width="0.9"></path>
                    <path d="M320.363429,186.779513 L321.555234,186.489827 C329.005906,184.678835 336.698029,184.069604 344.340887,184.68516 L470.790317,194.869391 C474.530519,195.170627 477.412301,198.293839 477.412301,202.046152 L477.412301,311.774807 C477.412301,315.751257 474.188751,318.974807 470.212301,318.974807 C470.016314,318.974807 469.820408,318.966805 469.625073,318.95082 L328.056279,307.36595 C324.346227,307.062349 321.479272,303.980767 321.443833,300.258483 L320.363429,186.779513 Z" id="Rectangle-13-Copy-2" fill="#0D6574"></path>
                    <polygon id="Rectangle-16" fill="#1B8597" points="380.870201 303.226721 404.255941 303.226721 404.255941 352.157456 380.870201 348.139943"></polygon>
                    <polygon id="Rectangle-16-Copy" fill="#0D6574" points="409.846623 301.664311 404.255941 300.524291 404.255941 352.351694 409.846623 349.58826"></polygon>
                    <path d="M324.978477,185.946399 L465.40282,197.437616 C469.139093,197.743363 472.015592,200.864868 472.015592,204.613629 L472.015592,311.774807 C472.015592,315.751257 468.792042,318.974807 464.815592,318.974807 C464.619604,318.974807 464.423698,318.966805 464.228364,318.95082 L323.640901,307.446254 C319.385702,307.098042 316.109689,303.542996 316.109689,299.273573 L316.109689,194.11908 C316.109689,189.590346 319.780954,185.919081 324.309689,185.919081 C324.532897,185.919081 324.756012,185.928194 324.978477,185.946399 Z" id="Rectangle-13" fill="#33BAAA"></path>
                    <path d="M331.2876,193.122938 L457.994904,203.338523 C461.734852,203.640051 464.616292,206.763153 464.616292,210.515236 L464.616292,304.509061 C464.616292,308.485512 461.392743,311.709061 457.416292,311.709061 C457.223188,311.709061 457.030161,311.701293 456.837681,311.685774 L330.130377,301.47019 C326.390429,301.168662 323.508989,298.04556 323.508989,294.293477 L323.508989,200.299651 C323.508989,196.323201 326.732538,193.099651 330.708989,193.099651 C330.902093,193.099651 331.09512,193.10742 331.2876,193.122938 Z" id="Rectangle-13-Copy" fill="#FFFFFF"></path>
                    <path d="M331.2876,193.122938 L355.176895,195.048977 L355.17843,303.489651 L330.130377,301.47019 C326.390429,301.168662 323.508989,298.04556 323.508989,294.293477 L323.508989,200.299651 C323.508989,196.323201 326.732538,193.099651 330.708989,193.099651 C330.902093,193.099651 331.09512,193.10742 331.2876,193.122938 Z" id="Rectangle-13-Copy-3" fill="#0D6574"></path>
                    <polygon id="Rectangle-14" fill="url(#linearGradient-3)" points="326.003656 283.408907 352.987203 286.17227 352.987203 294.279557 326.003656 291.516194"></polygon>
                    <path d="M327.802559,209.54251 L350.595922,211.462595" id="Path-19" stroke="#D6F1EE" stroke-width="1.8" stroke-linecap="round" stroke-linejoin="round"></path>
                    <path d="M327.802559,221.253036 L350.595922,223.173121" id="Path-19-Copy" stroke="#D6F1EE" stroke-width="1.8" stroke-linecap="round" stroke-linejoin="round"></path>
                    <path d="M327.802559,232.963563 L337.576301,233.786891" id="Path-19-Copy-2" stroke="#D6F1EE" stroke-width="1.8" stroke-linecap="round" stroke-linejoin="round"></path>
                    <path d="M327.802559,244.674089 L350.595922,246.594174" id="Path-19-Copy-3" stroke="#D6F1EE" stroke-width="1.8" stroke-linecap="round" stroke-linejoin="round"></path>
                    <path d="M327.802559,256.384615 L340.22884,257.43139" id="Path-19-Copy-4" stroke="#D6F1EE" stroke-width="1.8" stroke-linecap="round" stroke-linejoin="round"></path>
                    <path d="M327.802559,268.095142 L350.595922,270.015226" id="Path-19-Copy-5" stroke="#D6F1EE" stroke-width="1.8" stroke-linecap="round" stroke-linejoin="round"></path>
                    <ellipse id="Oval-6" fill="#0D6574" opacity="0.400000006" cx="363.330896" cy="207.290486" rx="4.04753199" ry="4.05364372"></ellipse>
                    <ellipse id="Oval-6-Copy" fill="#0D6574" opacity="0.400000006" cx="363.330896" cy="237.918016" rx="4.04753199" ry="4.05364372"></ellipse>
                    <ellipse id="Oval-6-Copy-2" fill="#0D6574" opacity="0.400000006" cx="363.330896" cy="260.438259" rx="4.04753199" ry="4.05364372"></ellipse>
                    <path d="M373.674589,205.038462 L451.180787,210.905455" id="Path-20" stroke="#0D6574" stroke-width="1.8" stroke-linecap="round" stroke-linejoin="round"></path>
                    <path d="M373.674589,237.467611 L451.180787,243.334604" id="Path-20-Copy-3" stroke="#0D6574" stroke-width="1.8" stroke-linecap="round" stroke-linejoin="round"></path>
                    <path d="M373.674589,259.987854 L411.566383,262.856153" id="Path-20-Copy-5" stroke="#0D6574" stroke-width="1.8" stroke-linecap="round" stroke-linejoin="round"></path>
                    <path d="M373.674589,243.87247 L398.637847,245.762115" id="Path-20-Copy-4" stroke="#33BAAA" stroke-width="1.8" stroke-linecap="round" stroke-linejoin="round"></path>
                    <path d="M373.674589,265.698381 L429.892234,270.168651" id="Path-20-Copy-7" stroke="#0D6574" stroke-width="1.8" stroke-linecap="round" stroke-linejoin="round"></path>
                    <path d="M373.674589,272.202429 L384.881707,273.050775" id="Path-20-Copy-8" stroke="#0D6574" stroke-width="1.8" stroke-linecap="round" stroke-linejoin="round"></path>
                    <path d="M373.674589,277.706478 L384.881707,278.554824" id="Path-20-Copy-9" stroke="#33BAAA" stroke-width="1.8" stroke-linecap="round" stroke-linejoin="round"></path>
                    <path d="M373.674589,216.51792 L392.95445,217.97735" id="Path-20-Copy-2" stroke="#33BAAA" stroke-width="1.8" stroke-linecap="round" stroke-linejoin="round"></path>
                    <path d="M373.674589,210.44332 L396.604238,212.179027 M406.213005,212.906383 L427.614008,214.526377" id="Path-20-Copy" stroke="#0D6574" stroke-width="1.8" stroke-linecap="round" stroke-linejoin="round"></path>
                    <path d="M364.674861,293.594577 L454.630441,300.52449 C456.657713,300.680665 458.223035,302.371213 458.223035,304.404492 L458.223035,304.404492 C458.223035,306.247097 456.729308,307.740824 454.886703,307.740824 C454.801187,307.740824 454.715703,307.737536 454.630441,307.730968 L364.674861,300.801054 C362.647588,300.644879 361.082267,298.954332 361.082267,296.921053 L361.082267,296.921053 C361.082267,295.078447 362.575994,293.58472 364.418599,293.58472 C364.504115,293.58472 364.589598,293.588008 364.674861,293.594577 Z" id="Rectangle-15" fill="#0D6574" opacity="0.200000003"></path>
                    <path d="M315.438378,168.931463 C296.223279,167.829444 281.031079,153.96487 281.031079,137.023324 C281.031079,119.361951 297.541704,105.044579 317.908592,105.044579 C338.275481,105.044579 354.786106,119.361951 354.786106,137.023324 C354.786106,149.753714 346.20787,160.746699 333.790455,165.892754 C335.160493,170.793472 338.61495,174.718435 336.886494,176.592712 C334.501592,179.178818 322.630369,175.167852 315.438378,168.931463 Z" id="Combined-Shape" fill="url(#linearGradient-4)"></path>
                    <path d="M438.28335,125.813762 C437.534883,134.079712 442.298573,141.090497 439.650378,143.962108 C436.570265,147.302075 423.95588,141.561324 415.770014,133.280645 C414.066151,133.440849 412.3353,133.523052 410.582308,133.523052 C384.303325,133.523052 363,115.049638 363,92.2615262 C363,69.4734145 384.303325,51 410.582308,51 C436.861291,51 458.164617,69.4734145 458.164617,92.2615262 C458.164617,106.088306 450.321787,118.326627 438.28335,125.813762 Z" id="Combined-Shape-Copy" fill="#0D6574" transform="translate(410.582308, 97.964410) scale(-1, 1) translate(-410.582308, -97.964410) "></path>
                    <path d="M119.635554,140.325947 C119.142077,145.775824 122.282857,150.39815 120.536858,152.291451 C118.506089,154.493546 110.189217,150.708574 104.792141,145.248986 C103.668755,145.354611 102.527577,145.408809 101.3718,145.408809 C84.0456335,145.408809 70,133.228982 70,118.204405 C70,103.179827 84.0456335,91 101.3718,91 C118.697967,91 132.743601,103.179827 132.743601,118.204405 C132.743601,127.320628 127.572694,135.389555 119.635554,140.325947 Z" id="Combined-Shape-Copy-2" stroke="#3FBDA1" stroke-width="2"></path>
                    <path d="M222.099779,83.5751981 C221.26366,92.8091734 226.585226,100.640991 223.6269,103.848896 C220.186076,107.580007 206.09442,101.166956 196.949908,91.9165279 C195.046506,92.0954934 193.112955,92.1873236 191.15467,92.1873236 C161.798157,92.1873236 138,71.5504883 138,46.0936618 C138,20.6368353 161.798157,0 191.15467,0 C220.511184,0 244.309341,20.6368353 244.309341,46.0936618 C244.309341,61.5396948 235.548038,75.2112456 222.099779,83.5751981 Z" id="Combined-Shape-Copy-4" stroke="#3FBDA1" stroke-width="2" transform="translate(191.154670, 52.464410) scale(-1, 1) translate(-191.154670, -52.464410) "></path>
                    <path d="M387.166362,84.3299595 L431.600532,84.3299595" id="Path-24" stroke="#FFFFFF" stroke-width="7.2" stroke-linecap="round" stroke-linejoin="round"></path>
                    <path d="M387.166362,104.147773 L405.177865,104.147773" id="Path-24-Copy" stroke="#FFFFFF" stroke-width="7.2" stroke-linecap="round" stroke-linejoin="round"></path>
                    <path d="M300.819013,139.279352 L311.649844,139.279352" id="Path-24-Copy-2" stroke="#FFFFFF" stroke-width="7.2" stroke-linecap="round" stroke-linejoin="round"></path>
                    <path d="M325.104205,139.279352 L335.935036,139.279352" id="Path-24-Copy-3" stroke="#FFFFFF" stroke-width="7.2" stroke-linecap="round" stroke-linejoin="round"></path>
                    <g id="Group" transform="translate(330.000000, 415.000000)">
                        <mask id="mask-6" fill="white">
                            <use xlink:href="#path-5"></use>
                        </mask>
                        <use id="Path-25" fill="#33BAAA" xlink:href="#path-5"></use>
                        <path d="M1.05324703,2.42145375 C71.6637481,9.34223394 116.068598,42.460191 134.267798,101.775325" id="Path-27" stroke="#0D6574" stroke-width="2.25" mask="url(#mask-6)"></path>
                        <path d="M58.3695096,33.7728273 C77.9016222,33.0470526 91.7337116,36.0518396 99.8657779,42.7871884" id="Path-28" stroke="#0D6574" stroke-width="2.25" mask="url(#mask-6)"></path>
                        <path d="M110.593884,25.4299075 C93.2012121,56.6172839 91.2771116,77.2031655 104.821583,87.1875524 C118.366054,97.1719392 127.776202,106.553175 133.052026,115.331261 C150.125676,115.331261 158.662501,115.331261 158.662501,115.331261 C158.662501,115.331261 156.332645,94.048516 151.672932,51.483026 L110.593884,25.4299075 Z" id="Path-26" fill="#0C5663" opacity="0.400000006" mask="url(#mask-6)"></path>
                    </g>
                    <g id="Group-10" transform="translate(501.173948, 425.844438) rotate(20.000000) translate(-501.173948, -425.844438) translate(458.173948, 322.344438)">
                        <path d="M50.5210001,206.471065 C50.5210001,196.93349 0.00756568,200.156413 0.97136071,168.142567 C1.93515572,136.12872 26.4498475,125.632788 18.2936978,113.221447 C10.1375482,100.810105 -3.13100826,86.8202738 4.96069055,70.6147266 C13.0523893,54.4091794 21.1440881,49.4154886 13.0523893,28.5286164 C4.96069055,7.64174434 54.7256635,-18.4479161 47.2375723,19.5165137 C39.7494809,57.4809435 61.5498527,41.5199563 69.2257396,60.6034355 C76.9016266,79.6869146 55.6158239,104.262533 58.0182841,118.352579 C60.4207441,132.442624 93.2001256,158.872694 84.3724397,179.522168 C75.544754,200.171642 66.7626558,185.931605 50.5210001,206.471065 Z" id="Path-53" fill="#33BAAA" fill-rule="nonzero"></path>
                        <path d="M50.9121932,201.996974 C30.0232204,128.797067 23.0602294,63.3730975 30.0232204,5.72506463" id="Path-54" stroke="#0D6574" stroke-width="2.25"></path>
                        <path d="M35.3341713,137.250299 C35.2146197,124.842056 46.6798639,103.390285 55.5082014,101.428881" id="Path-55" stroke="#0D6574" stroke-width="2.25"></path>
                        <path d="M31.0730177,106.477387 C27.5586935,92.6707264 21.2010209,86.6015185 12,88.2697633" id="Path-57" stroke="#0D6574" stroke-width="2.25"></path>
                        <path d="M43.0730177,175.477387 C39.5586935,161.670726 29.8303743,153.525855 13.8880602,151.042773" id="Path-57-Copy" stroke="#0D6574" stroke-width="2.25"></path>
                    </g>
                </g>
            </g>
        </g>
    </g>
</svg>