<?xml version="1.0" encoding="UTF-8"?>
<svg width="621px" height="438px" viewBox="0 0 621 438" version="1.1" xmlns="http://www.w3.org/2000/svg" xmlns:xlink="http://www.w3.org/1999/xlink">
    <!-- Generator: sketchtool 49 (51002) - http://www.bohemiancoding.com/sketch -->
    <title>1BFE07C1-58CA-4DA7-A4C0-34778F1AD6A3</title>
    <desc>Created with sketchtool.</desc>
    <defs>
        <linearGradient x1="57.6964029%" y1="-16.3030743%" x2="43.1413235%" y2="86.4132574%" id="linearGradient-1">
            <stop stop-color="#9FE39B" offset="0%"></stop>
            <stop stop-color="#16AB99" offset="100%"></stop>
        </linearGradient>
        <linearGradient x1="92.6256759%" y1="44.1058245%" x2="43.1413235%" y2="57.428446%" id="linearGradient-2">
            <stop stop-color="#5AD994" offset="0%"></stop>
            <stop stop-color="#26A293" offset="100%"></stop>
        </linearGradient>
        <linearGradient x1="55.7467976%" y1="-28.1753217%" x2="44.8787211%" y2="92.9334256%" id="linearGradient-3">
            <stop stop-color="#7ECC79" offset="0%"></stop>
            <stop stop-color="#33BAAA" offset="100%"></stop>
        </linearGradient>
        <linearGradient x1="57.6964029%" y1="-2.36513068%" x2="43.1413235%" y2="78.7586209%" id="linearGradient-4">
            <stop stop-color="#56B450" offset="0%"></stop>
            <stop stop-color="#33BAAA" offset="100%"></stop>
        </linearGradient>
        <linearGradient x1="57.6964029%" y1="-2.36513132%" x2="43.4125488%" y2="77.2469282%" id="linearGradient-5">
            <stop stop-color="#BAFFB5" offset="0%"></stop>
            <stop stop-color="#3CD8C5" offset="100%"></stop>
        </linearGradient>
        <linearGradient x1="57.6964029%" y1="-26.5759024%" x2="43.1413235%" y2="92.055034%" id="linearGradient-6">
            <stop stop-color="#84F97C" offset="0%"></stop>
            <stop stop-color="#33BAAA" offset="100%"></stop>
        </linearGradient>
        <linearGradient x1="57.0111244%" y1="-28.1753217%" x2="43.927211%" y2="91.3331566%" id="linearGradient-7">
            <stop stop-color="#5AB155" offset="0%"></stop>
            <stop stop-color="#14AD9B" offset="100%"></stop>
        </linearGradient>
        <linearGradient x1="51.3412093%" y1="-28.1753217%" x2="48.8047766%" y2="92.9334256%" id="linearGradient-8">
            <stop stop-color="#7ECC79" offset="0%"></stop>
            <stop stop-color="#33BAAA" offset="100%"></stop>
        </linearGradient>
        <linearGradient x1="51.3412093%" y1="-28.1753217%" x2="48.8512833%" y2="90.7128411%" id="linearGradient-9">
            <stop stop-color="#52A24C" offset="0%"></stop>
            <stop stop-color="#249F91" offset="100%"></stop>
        </linearGradient>
        <path d="M49.574768,49.8302047 C48.2516236,27.6412201 41.3231959,13.212553 28.7894848,6.5442034 C16.2557737,-0.124146207 6.65927879,-1.51075257 0,2.38438432 C5.18902706,12.0844734 9.59731676,17.1126142 13.2248691,17.4688067 C18.6661976,18.0030954 18.6933179,20.7372984 20.8592478,25.0300869 C23.0251776,29.3228753 34.4822929,27.8431172 36.6617829,33.9209588 C38.1147762,37.9728532 42.4191046,43.2759352 49.574768,49.8302047 Z" id="path-10"></path>
        <path d="M49.574768,49.8302047 C48.2516236,27.6412201 41.3231959,13.212553 28.7894848,6.5442034 C16.2557737,-0.124146207 6.65927879,-1.51075257 0,2.38438432 C5.18902706,12.0844734 9.59731676,17.1126142 13.2248691,17.4688067 C18.6661976,18.0030954 18.6933179,20.7372984 20.8592478,25.0300869 C23.0251776,29.3228753 34.4822929,27.8431172 36.6617829,33.9209588 C38.1147762,37.9728532 42.4191046,43.2759352 49.574768,49.8302047 Z" id="path-12"></path>
        <path d="M49.574768,49.8302047 C48.2516236,27.6412201 41.3231959,13.212553 28.7894848,6.5442034 C16.2557737,-0.124146207 6.65927879,-1.51075257 0,2.38438432 C5.18902706,12.0844734 9.59731676,17.1126142 13.2248691,17.4688067 C18.6661976,18.0030954 18.6933179,20.7372984 20.8592478,25.0300869 C23.0251776,29.3228753 34.4822929,27.8431172 36.6617829,33.9209588 C38.1147762,37.9728532 42.4191046,43.2759352 49.574768,49.8302047 Z" id="path-14"></path>
        <path d="M49.574768,49.8302047 C48.2516236,27.6412201 41.3231959,13.212553 28.7894848,6.5442034 C16.2557737,-0.124146207 6.65927879,-1.51075257 0,2.38438432 C5.18902706,12.0844734 9.59731676,17.1126142 13.2248691,17.4688067 C18.6661976,18.0030954 18.6933179,20.7372984 20.8592478,25.0300869 C23.0251776,29.3228753 34.4822929,27.8431172 36.6617829,33.9209588 C38.1147762,37.9728532 42.4191046,43.2759352 49.574768,49.8302047 Z" id="path-16"></path>
        <linearGradient x1="45.8704897%" y1="3.64352424%" x2="48.8101124%" y2="136.712649%" id="linearGradient-18">
            <stop stop-color="#EDFFEC" stop-opacity="0" offset="0%"></stop>
            <stop stop-color="#CCF4C9" stop-opacity="0.823680933" offset="41.2132496%"></stop>
            <stop stop-color="#5BDA52" stop-opacity="0.633859828" offset="100%"></stop>
        </linearGradient>
        <linearGradient x1="61.1613434%" y1="14.5710678%" x2="34.6357854%" y2="107.482265%" id="linearGradient-19">
            <stop stop-color="#EDFFEC" stop-opacity="0" offset="0%"></stop>
            <stop stop-color="#7DD977" offset="100%"></stop>
        </linearGradient>
        <linearGradient x1="77.8253504%" y1="100%" x2="77.8253486%" y2="15.8302187%" id="linearGradient-20">
            <stop stop-color="#A0FBBA" stop-opacity="0" offset="0%"></stop>
            <stop stop-color="#6EEF65" stop-opacity="0.838088768" offset="100%"></stop>
        </linearGradient>
    </defs>
    <g id="Home" stroke="none" stroke-width="1" fill="none" fill-rule="evenodd">
        <g id="Home---Approach" transform="translate(-801.000000, -3016.000000)">
            <g id="Driven-by-Design@3x" transform="translate(800.000000, 3009.000000)">
                <rect id="Rectangle-65" fill="#287F8F" fill-rule="nonzero" x="337.21227" y="354.627013" width="25.4281246" height="26.7300384"></rect>
                <rect id="Rectangle-55-Copy-4" fill="#287F8F" fill-rule="nonzero" x="276.820474" y="59.323732" width="161.468591" height="304.849723" rx="14.646492"></rect>
                <rect id="Rectangle-64" fill="#0B4651" fill-rule="nonzero" x="430.660628" y="114.056668" width="3.8142187" height="42.004346" rx="1.90710935"></rect>
                <path d="M318.142107,369.264891 L440.189569,369.264891 C442.299752,369.264891 444.010393,370.975532 444.010393,373.085715 L444.010393,418.267715 C444.010393,420.377897 442.299752,422.088539 440.189569,422.088539 L304.155708,422.088539 L318.142107,369.264891 Z" id="Rectangle-61-Copy" fill="#0B4651" fill-rule="nonzero"></path>
                <g id="Group-54" transform="translate(94.373679, 278.255475)" fill-rule="nonzero">
                    <path d="M33.9587299,0.414696522 C38.248091,0.414696522 41.7253052,3.89191075 41.7253052,8.18127188 C41.7253052,8.27699237 41.7235356,8.37270468 41.7199974,8.46835975 L39.078392,79.8827536 L15.0539999,75.6272904 L24.7493337,8.39136375 C25.4095421,3.81290106 29.3329115,0.414696522 33.9587299,0.414696522 Z" id="Path-326" fill="#0B4651"></path>
                    <polygon id="Path-325" fill="#7DD977" points="36.570786 79.3885339 36.570786 29.0879563 87.3715837 25.7981238 93.3422659 86.6537548"></polygon>
                    <rect id="Rectangle-60" fill="#0B4651" opacity="0.300000012" transform="translate(54.909676, 71.271353) rotate(16.000000) translate(-54.909676, -71.271353) " x="36.9099927" y="36.3005631" width="35.9993675" height="69.94158"></rect>
                    <rect id="Rectangle-60-Copy" fill="#D6F1EE" transform="translate(50.909747, 66.685020) rotate(16.000000) translate(-50.909747, -66.685020) " x="32.910063" y="31.7142298" width="35.9993675" height="69.94158"></rect>
                    <polygon id="Path-324" fill="#0B4651" points="57.1418531 93.0649399 69.9790282 54.4627057 99.0157934 90.5150062"></polygon>
                    <rect id="Rectangle-59" fill="#0B4651" opacity="0.400000006" transform="translate(15.999719, 68.508351) rotate(-16.000000) translate(-15.999719, -68.508351) " x="10.8569521" y="30.3844569" width="10.2855336" height="76.247788" rx="5.14276678"></rect>
                    <polygon id="Rectangle-58-Copy" fill="#47D5C5" points="3.8142187 68.0979549 97.5268578 68.0979549 97.5268578 143.772451 12.5631358 143.772451"></polygon>
                    <polygon id="Rectangle-58-Copy-3" fill="#0B4651" opacity="0.200000003" points="3.99992972 68.2217051 97.7125688 68.2217051 97.7125688 101.211429 7.75098826 104.875071"></polygon>
                    <polygon id="Rectangle-58-Copy-2" fill="#47D5C5" points="3.99992972 68.2217051 97.7125688 68.2217051 101.505702 96.6185667 0.206796555 96.6185667"></polygon>
                    <polygon id="Path-327" fill="#0B4651" opacity="0.300000012" points="92.9044572 68.7343844 87.0913269 143.741944 99.7463146 143.741944 99.7463146 68.7343844"></polygon>
                </g>
                <rect id="Rectangle-55" fill="#0B4651" fill-rule="nonzero" x="265.377818" y="59.323732" width="161.468591" height="304.849723" rx="14.646492"></rect>
                <rect id="Rectangle-55-Copy" fill="#C8E8E5" fill-rule="nonzero" x="273.641958" y="68.2337448" width="144.94031" height="287.029698" rx="7.641648"></rect>
                <polygon id="Rectangle-55-Copy-5" fill="#0B4651" fill-rule="nonzero" opacity="0.100000001" points="273.641958 325.558463 418.582269 325.558463 418.582269 326.834603 273.641958 326.834603"></polygon>
                <path d="M281.283606,68.2337448 L410.940621,68.2337448 C415.160986,68.2337448 418.582269,71.6550272 418.582269,75.8753928 L418.582269,180.011099 C395.367985,201.576672 372.015896,215.305472 348.526001,221.197498 C325.036107,227.089525 300.074759,227.089525 273.641958,221.197498 L273.641958,75.8753928 C273.641958,71.6550272 277.063241,68.2337448 281.283606,68.2337448 Z" id="Rectangle-55-Copy-2" fill="url(#linearGradient-1)" fill-rule="nonzero"></path>
                <path d="M265.377818,216.916139 L265.377818,196.360206 C274.614261,192.228698 285.430265,181.300577 297.825832,163.575842 L297.825845,163.575851 C298.800619,162.181998 300.204706,161.234444 301.752927,160.814166 C300.924345,159.104361 300.229856,157.579366 299.669461,156.239182 C298.075839,156.54005 296.431597,156.697443 294.750635,156.697443 C280.180436,156.697443 268.368956,144.872467 268.368956,130.28562 C268.368956,115.698772 280.180436,103.873796 294.750635,103.873796 C309.320834,103.873796 321.132315,115.698772 321.132315,130.28562 C321.132315,135.155927 319.815593,139.718345 317.519099,143.63554 C320.615993,149.707904 316.709707,156.864786 313.681602,159.469623 C312.1632,160.775783 310.489309,161.985084 308.65993,163.097525 C309.508503,164.455247 309.698695,166.193976 309.017082,167.775853 C308.920654,167.999641 308.808155,168.216139 308.680468,168.423646 C291.901227,195.692066 278.993339,211.262503 269.956828,215.134971 C268.420261,215.793444 266.891661,216.384718 265.377818,216.916139 Z" id="Combined-Shape" fill="#0B4651" fill-rule="nonzero" opacity="0.200000003"></path>
                <path d="M303.237555,183.664863 C292.729364,207.185787 280.763354,220.972052 267.339527,225.023658 C270.377342,211.237393 282.343352,197.451128 303.237555,183.664863 Z" id="Path-329" fill="#0B4651" fill-rule="nonzero" opacity="0.200000003"></path>
                <ellipse id="Oval-22-Copy" fill="#0B4651" fill-rule="nonzero" opacity="0.200000003" cx="343.251449" cy="134.740626" rx="26.3816793" ry="26.4118236"></ellipse>
                <ellipse id="Oval-22" fill="#FFFFFF" fill-rule="nonzero" cx="303.202153" cy="127.103472" rx="26.3816793" ry="26.4118236"></ellipse>
                <path d="M286.541418,144.173231 C291.084009,140.464777 296.88368,138.240988 303.202153,138.240988 C309.520626,138.240988 315.320297,140.464777 319.862889,144.173231 C315.565265,148.378073 309.686003,150.969578 303.202153,150.969578 C296.718304,150.969578 290.839041,148.378073 286.541418,144.173231 Z" id="Combined-Shape" fill="#33BAAA" fill-rule="nonzero"></path>
                <ellipse id="Oval-22-Copy-2" fill="#33BAAA" fill-rule="nonzero" cx="303.202153" cy="123.284895" rx="9.21769518" ry="9.22822753"></ellipse>
                <path d="M310.281206,157.790157 C306.587357,150.192719 305.506268,146.196232 307.037939,145.800695 C309.335445,145.207389 311.969566,151.670309 312.640379,151.577768 C313.311192,151.485228 323.02137,147.46587 325.666377,139.89908 C329.307432,146.08343 325.253898,153.602919 322.13312,156.287475 C320.052601,158.077179 317.68016,159.685034 315.015797,161.111039 L310.281206,157.790157 Z" id="Path-323" fill="#FFD7B3" fill-rule="nonzero"></path>
                <path d="M198.922957,193.684765 C193.521714,195.774644 189.824617,198.573356 187.831667,202.0809 C186.06241,205.194749 179.776824,215.024973 168.974909,231.571573 L168.974907,231.571572 C166.378763,235.5484 166.503899,240.714323 169.289549,244.560786 L187.831667,270.163985 L196.149508,264.804662 L182.949548,240.640587 C182.146932,239.171304 182.394344,237.350634 183.559937,236.148812 L196.149508,223.167934 L198.922957,193.684765 Z" id="Path-322" fill="url(#linearGradient-2)" fill-rule="nonzero"></path>
                <g id="Group-23" transform="translate(221.849536, 165.240264) scale(-1, 1) translate(-221.849536, -165.240264) translate(194.849536, 131.240264)">
                    <path d="M6.20327144,24.0805062 C3.67354878,37.7470857 4.91483371,46.6448462 9.92712624,50.7737878 C17.445565,56.9672001 36.0362338,52.7487151 40.9506618,49.3819131 C44.2269471,47.1373785 32.6444837,38.7035762 6.20327144,24.0805062 Z" id="Path-156" fill="#FFD7B3" fill-rule="nonzero"></path>
                    <path d="M22.1775436,48.4461901 L22.1775436,64.813807 C28.8608316,66.9325681 33.294527,67.8597201 35.4786298,67.5952632 C37.6627326,67.3308062 39.2435981,65.7851651 40.2212264,62.9583399 L34.3297981,43.206911 L22.1775436,48.4461901 Z" id="Path-157" fill="#FFD7B3" fill-rule="nonzero"></path>
                    <path d="M5.83492091,30.4892702 C-0.383291288,33.4730734 -1.38111213,24.2950932 2.69804404,24.2950932 C-0.487482515,13.8436019 5.01897387,1.90101729 17.6001913,0.479936323 C40.7187965,-2.13136978 36.2791208,15.1836647 45.1550235,13.3029129 C52.7452772,11.6945826 56.0312504,20.8283002 52.5765884,29.5988881 C51.1082188,33.3267388 48.2557318,35.87342 45.1550235,40.8487169 C46.2051639,40.8487169 48.1591664,43.4462285 46.8188107,46.0746756 C45.7473853,48.1757486 43.4253278,49.7413851 41.3198509,48.6693178 C42.3931351,53.9823086 24.3232522,56.6214374 18.9582555,37.5010162 C12.9482041,33.3529643 10.9200788,38.662518 5.83492091,30.4892702 Z" id="Path-154" fill="#0B4651" fill-rule="nonzero"></path>
                    <path d="M18.8123441,37.6738954 L18.8123441,32.7662323 C18.8123441,23.9019629 25.1522192,16.3063627 33.8736958,14.7217119 L42.1731963,13.2137321 L38.3692457,9.20791595 L29.1768893,11.3017955 C21.2309915,13.1117506 15.2147925,19.6196411 14.0333546,27.68298 C14.0333546,30.893266 12.4921334,33.9083763 9.89005497,35.7885688 L9.23065668,36.2650325 L18.8123441,37.6738954 Z" id="Path-155" fill="url(#linearGradient-3)" fill-rule="nonzero"></path>
                    <path d="M39.8600069,11.1041227 C38.1101674,11.5027097 35.4854081,12.1005901 31.985729,12.897764 C23.4786146,14.8355558 17.135919,22.022182 16.2080332,30.7747693 L15.3317331,39.0407582" id="Path-155-Copy" stroke="#FFFFFF" stroke-width="0.5731236" stroke-linecap="round" stroke-linejoin="round"></path>
                    <path d="M15.1094179,46.0395798 C18.1009145,46.0395798 20.5260016,43.0765154 20.5260016,39.4213902 C20.5260016,35.766265 18.1009145,32.8032006 15.1094179,32.8032006 C14.2502306,32.8032006 13.2201886,32.8032006 12.0192918,32.8032006 C10.46832,35.8283648 9.69283411,38.034428 9.69283411,39.4213902 C9.69283411,41.1533757 10.46832,43.3594389 12.0192918,46.0395798 C13.5025691,46.0395798 14.5326111,46.0395798 15.1094179,46.0395798 Z" id="Oval-17" fill="url(#linearGradient-4)" fill-rule="nonzero"></path>
                    <ellipse id="Oval-17-Copy" fill="url(#linearGradient-5)" fill-rule="nonzero" cx="12.2585843" cy="39.4213902" rx="5.41658377" ry="6.61818959"></ellipse>
                    <ellipse id="Oval-17-Copy-2" fill="#FFFFFF" fill-rule="nonzero" cx="12.2585843" cy="39.4213902" rx="1.99558349" ry="2.58972636"></ellipse>
                </g>
                <polygon id="Path-285" fill="#0B4651" fill-rule="nonzero" points="193.005882 278.524066 190.114658 412.600623 201.892361 412.600623 215.244319 311.031808 221.9401 414.505486 231.88186 414.505486 244.821071 278.524066"></polygon>
                <path d="M188.541459,276.733328 C188.195022,242.263399 188.998411,220.487595 190.951626,211.405917 C191.990848,206.573945 193.160429,199.084822 197.022528,194.588147 C199.09474,192.175453 203.867696,192.920171 206.688096,192.816347 C209.972366,192.695447 211.230978,198.096291 214.855154,198.580351 C220.360497,199.315669 227.141462,194.182686 227.609468,194.588147 C230.527999,197.116639 252.88496,198.574594 269.738823,194.588147 C279.824167,192.202659 292.0043,180.803616 306.279221,160.391019 L306.27922,160.391018 C308.194067,157.652859 311.77015,156.63837 314.837592,157.963119 C317.395418,159.067777 318.573443,162.036808 317.468785,164.594634 C317.372779,164.816934 317.260892,165.032034 317.133993,165.238265 C300.353767,192.508685 287.445215,208.080203 278.408346,211.952823 C257.024491,221.116567 237.18367,217.265499 237.18367,220.202095 C237.18367,227.564894 236.662424,265.056205 242.330074,267.825462 C247.997723,270.594718 247.453913,284.96859 244.534636,287.17274 C243.134042,288.230235 239.076851,291.108568 226.115255,291.694998 C212.060825,292.330872 192.402115,290.510822 188.541459,287.17274 C183.594046,282.895005 183.594046,279.4152 188.541459,276.733328 Z" id="Path-275" fill="url(#linearGradient-6)" fill-rule="nonzero"></path>
                <g id="Group-53" transform="translate(211.821256, 212.064635) scale(-1, 1) translate(-211.821256, -212.064635) translate(191.321256, 191.064635)" fill-rule="nonzero">
                    <path d="M3.00065364,4.25201079 C2.06400429,17.2057026 5.08181789,24.5621281 12.0540944,26.3212871 C22.5125092,28.9600257 18.4476548,43.1650295 30.4713323,41.1778091 C42.4950098,39.1905886 37.9762621,7.33406195 31.1676104,4.25201079 C27.5585678,4.30000164 25.0243805,3.96851849 23.5650484,3.25756135 L19.2226333,6.07393123 L10.3028177,6.92886091 L6.49345653,5.35298197 L3.00065364,4.25201079 Z" id="Path-160" fill="#0B4651" opacity="0.340000004"></path>
                    <path d="M0.371736766,5.21587637 C2.90155335,5.99360395 3.48689165,23.0997348 13.9453065,25.7384734 C24.4037213,28.3772119 23.2330137,40.8625603 33.6018892,38.5478823 C43.9707647,36.2332043 43.3538285,5.64727396 28.5499291,1.06874426 C24.9011281,-0.0597518791 22.6439852,0.245567492 21.7785001,1.98470238 L20.4940396,4.80107226 L11.574224,5.65600194 L8.40108891,2.97915182 C7.15795401,2.31618552 5.94026071,1.98470238 4.74800903,1.98470238 C2.95963151,1.98470238 1.0898833,2.97915182 0.371736766,5.21587637 Z" id="Path-160-Copy" fill="url(#linearGradient-7)"></path>
                    <path d="M5.91417346,2.07172857 C9.33950156,4.76167147 12.0000808,7.53666385 13.8959112,10.3967057 C18.6950114,19.0257463 32.5853892,20.1363723 34.2511058,12.9347631 C35.3615836,8.13369029 33.9406639,4.73525092 29.9883468,2.73944498 C26.5209315,1.33794147 24.277023,0.759587411 23.2566212,1.0043828 C22.6216492,1.1567132 21.8538489,2.37112037 21.4955081,2.73944498 C19.662324,4.62370404 12.5237878,4.57436086 10.181969,3.6437921 C8.62075643,3.02341293 7.19815792,2.49939176 5.91417346,2.07172857 Z" id="Path-159" fill="#0B4651"></path>
                </g>
                <path d="M222.119593,411.269237 C220.464935,418.148205 220.464935,421.754639 222.119593,422.088539 L246.796204,422.088539 C246.376319,419.35603 245.643005,417.552813 244.596262,416.678888 C243.549519,415.804963 239.211836,414.001746 231.583211,411.269237 L222.119593,411.269237 Z" id="Path-290" fill="url(#linearGradient-8)" fill-rule="nonzero"></path>
                <path d="M190.334437,411.269237 C188.679779,418.148205 188.679779,421.754639 190.334437,422.088539 L215.011048,422.088539 C214.591163,419.35603 213.857849,417.552813 212.811106,416.678888 C211.764363,415.804963 208.178077,414.001746 202.052246,411.269237 L190.334437,411.269237 Z" id="Path-290-Copy-2" fill="url(#linearGradient-9)" fill-rule="nonzero"></path>
                <path d="M307.969926,66.9608858 L383.856939,66.9608858 L376.937627,66.9608858 C373.963581,66.9608858 371.55264,69.3718268 371.55264,72.3458733 C371.55264,75.3199197 369.141699,77.7308607 366.167652,77.7308607 L322.902862,77.7308607 C319.928816,77.7308607 317.517875,75.3199197 317.517875,72.3458733 C317.517875,69.3718268 315.106934,66.9608858 312.132887,66.9608858 L307.969926,66.9608858 Z" id="Rectangle-56" fill="#0B4651" fill-rule="nonzero"></path>
                <rect id="Rectangle-57" fill="#0B4651" fill-rule="nonzero" opacity="0.5" x="307.969926" y="181.518193" width="73.7415615" height="8.27358331" rx="4.13679165"></rect>
                <path d="M282.043434,369.264891 L427.140989,369.264891 L416.803172,369.264891 C410.193832,369.264891 404.403363,373.691411 402.669592,380.069295 L391.247035,422.088539 L254.70178,422.088539 C253.294992,422.088539 252.154564,420.948111 252.154564,419.541323 C252.154564,419.321245 252.183086,419.102095 252.239416,418.889349 L261.113334,385.374453 C263.62768,375.878306 272.220057,369.264891 282.043434,369.264891 Z" id="Rectangle-61" fill="#33BAAA" fill-rule="nonzero"></path>
                <rect id="Rectangle-62" fill="#FFFFFF" fill-rule="nonzero" opacity="0.830446105" x="285.084614" y="284.61977" width="123.962108" height="29.9121858" rx="5.094432"></rect>
                <rect id="Rectangle-62-Copy" fill="#FFFFFF" fill-rule="nonzero" opacity="0.830446105" x="285.084614" y="236.251129" width="55.9418742" height="4.4550064" rx="2.2275032"></rect>
                <rect id="Rectangle-62-Copy-2" fill="#FFFFFF" fill-rule="nonzero" opacity="0.830446105" x="285.084614" y="261.708308" width="104.255311" height="4.4550064" rx="2.2275032"></rect>
                <ellipse id="Oval-23" fill="#7DD977" fill-rule="nonzero" cx="343.569301" cy="340.625564" rx="10.806953" ry="10.8193012"></ellipse>
                <rect id="Rectangle-63" fill="#0B4651" fill-rule="nonzero" opacity="0.200000003" x="286.356021" y="335.534129" width="11.4426561" height="11.4557307" rx="3.18402"></rect>
                <rect id="Rectangle-63-Copy" fill="#0B4651" fill-rule="nonzero" opacity="0.200000003" x="383.618597" y="335.534129" width="11.4426561" height="11.4557307" rx="3.18402"></rect>
                <path d="M411.527548,293.149441 C410.463277,309.106097 407.625984,320.574972 403.015667,327.556066 C396.100192,338.027707 397.342452,352.138312 416.937212,351.026559 C430.000386,350.285391 437.109352,350.655975 438.26411,352.138312 L438.26411,329.048677 L411.527548,293.149441 Z" id="Path-330" fill="#0B4651" fill-rule="nonzero" opacity="0.200000003"></path>
                <g id="Group-57" transform="translate(409.046722, 290.984065)">
                    <g id="Group-12" transform="translate(100.983122, 55.500000) scale(-1, 1) translate(-100.983122, -55.500000) translate(54.483122, 0.000000)">
                        <g id="Path-44" transform="translate(0.000000, 38.483520)">
                            <g id="Mask" fill="#33BAAA" fill-rule="nonzero">
                                <path d="M49.574768,49.8302047 C48.2516236,27.6412201 41.3231959,13.212553 28.7894848,6.5442034 C16.2557737,-0.124146207 6.65927879,-1.51075257 0,2.38438432 C5.18902706,12.0844734 9.59731676,17.1126142 13.2248691,17.4688067 C18.6661976,18.0030954 18.6933179,20.7372984 20.8592478,25.0300869 C23.0251776,29.3228753 34.4822929,27.8431172 36.6617829,33.9209588 C38.1147762,37.9728532 42.4191046,43.2759352 49.574768,49.8302047 Z" id="path-9"></path>
                            </g>
                            <g id="Clipped">
                                <mask id="mask-11" fill="white">
                                    <use xlink:href="#path-10"></use>
                                </mask>
                                <g id="path-9"></g>
                                <path d="M42.610093,4.48604548 C39.1020459,11.3484191 37.3480223,17.9106927 37.3480223,24.1728663 C37.3480223,30.4350398 39.1020459,38.5154161 42.610093,48.4139951 L56.2308597,26.4500203 L42.610093,4.48604548 Z" id="Shape" fill="#25877C" fill-rule="nonzero" mask="url(#mask-11)"></path>
                            </g>
                            <g id="Path-45-Clipped">
                                <mask id="mask-13" fill="white">
                                    <use xlink:href="#path-12"></use>
                                </mask>
                                <g id="path-9"></g>
                                <path d="M23.6949236,-6.67314616 C15.599035,-7.68950897 8.36275964,-6.32789862 1.98609742,-2.58831512" id="Path-45" stroke="#0D6574" stroke-width="1.29984432" mask="url(#mask-13)"></path>
                            </g>
                            <g id="Path-46-Clipped">
                                <mask id="mask-15" fill="white">
                                    <use xlink:href="#path-14"></use>
                                </mask>
                                <g id="path-9"></g>
                                <path d="M43.3168921,30.7736715 C32.2319709,14.1764698 21.1470496,6.82809127 10.0621283,8.72853598" id="Path-46" stroke="#0D6574" stroke-width="1.29984432" mask="url(#mask-15)"></path>
                            </g>
                            <g id="Path-47-Clipped">
                                <mask id="mask-17" fill="white">
                                    <use xlink:href="#path-16"></use>
                                </mask>
                                <g id="path-9"></g>
                                <path d="M33.975782,7.77726862 C33.927866,3.41513896 34.8337181,0.933567619 36.6933384,0.332554582" id="Path-47" stroke="#0D6574" stroke-width="1.29984432" mask="url(#mask-17)"></path>
                            </g>
                        </g>
                        <path d="M56.0980154,103.327449 C45.9504971,97.6565388 40.4214238,87.6189618 40.4214238,76.2218587 C40.4214238,64.8247556 47.081124,64.9051605 50.5862294,53.1886732 C54.0913347,41.4721859 47.8195091,44.3417835 48.6112715,32.1739787 C49.4030339,20.0061738 64.6051684,22.4813129 66.5036188,8.1937371 C68.4020693,-6.09383867 84.6088815,-0.303114946 83.343841,14.8462285 C82.0788004,29.995572 97.5848884,30.8289103 90.4643647,44.5567813 C83.343841,58.2846522 80.6536281,54.7896066 83.343841,65.0028868 C86.0340538,75.2161669 90.4287798,96.8329818 59.0162747,103.327449 C58.3706189,103.538453 57.2567453,105.016522 56.0980154,103.327449 Z" id="Path-37" fill="#1D9F90" fill-rule="nonzero"></path>
                        <path d="M56.0980154,103.327449 C45.9504971,97.6565388 40.4214238,87.6189618 40.4214238,76.2218587 C40.4214238,64.8247556 47.081124,64.9051605 50.5862294,53.1886732 C54.0913347,41.4721859 47.8195091,44.3417835 48.6112715,32.1739787 C49.4030339,20.0061738 64.6051684,22.4813129 66.5036188,8.1937371 C68.4020693,-6.09383867 84.6088815,-0.303114946 83.343841,14.8462285 C82.0788004,29.995572 97.5848884,30.8289103 90.4643647,44.5567813 C83.343841,58.2846522 80.6536281,54.7896066 83.343841,65.0028868 C86.0340538,75.2161669 90.4287798,96.8329818 59.0162747,103.327449 C58.3706189,103.538453 57.2567453,105.016522 56.0980154,103.327449 Z" id="Path-37-Copy" fill="#1D9F90" fill-rule="nonzero"></path>
                        <path d="M55.3113689,110.075774 C68.9558568,59.254981 75.7781008,25.6701775 75.7781008,9.32136321" id="Path-40" stroke="#0D6574" stroke-width="1.29984432"></path>
                        <path d="M72.8531139,39.0133059 C81.7571831,36.2681436 88.3102339,33.6119556 92.5122664,31.0447418" id="Path-41" stroke="#0D6574" stroke-width="1.29984432"></path>
                        <path d="M67.0016819,63.5195744 L53.0914259,50.3207053" id="Path-42" stroke="#0D6574" stroke-width="1.29984432"></path>
                    </g>
                    <g id="Group-29" transform="translate(0.000000, 1.719186)">
                        <g id="Group-56">
                            <path d="M64.1162691,16.7577473 C74.3237689,34.5109543 81.1309234,47.9427626 84.5377326,57.0531724 C88.1730528,66.774661 89.0771191,77.355874 87.2499315,88.7968114 C93.5909985,81.5886566 98.4862947,76.8239437 101.93582,74.5026726 C103.410454,73.5103544 105.077045,72.6576024 106.935591,71.9444165 C107.017919,72.7299874 107.061699,73.5786044 107.061699,74.5026726 C107.061699,79.7192006 105.903385,84.6509144 103.674073,89.0094672 L89.6365031,102.120835 C89.5263907,102.117499 89.4167799,102.11413 89.3076708,102.110729 C88.9814135,101.915434 88.6949192,101.682798 88.4668482,101.608263 C79.3576902,99.724964 73.2596106,96.5700068 69.2578766,92.7902309 C67.725676,88.4286947 65.4123097,82.0534064 62.3177776,73.6643658 C62.5425154,69.7137396 63.404481,66.0733415 64.1392819,63.2837006 C66.8294948,53.0704205 64.1392819,56.5654661 57.0187582,42.8375951 C50.5147474,30.2983177 62.8888316,28.5173552 64.1162691,16.7577473 Z" id="Combined-Shape" fill="#0B4651" fill-rule="nonzero" opacity="0.300000012"></path>
                            <path d="M78.9603313,106.92761 C78.9603313,101.563268 32.3397847,88.3838682 35.7194921,72.4519527 C39.0991996,56.5200373 37.9410233,38.6615876 11.6258131,50.4000578 C-14.6893972,62.1385279 13.7276886,10.739323 2.57262217,0.137712245 C37.3475202,1.77152212 92.479161,40.8558851 85.7197462,106.92761 C78.9603313,110.515184 78.9603313,112.291953 78.9603313,106.92761 Z" id="Path-259" fill="#33BAAA" fill-rule="nonzero"></path>
                            <path d="M9.74782828,5.00849591 C54.4773218,35.4987773 77.4998129,72.2199028 78.8153015,115.171873" id="Path-262" stroke="#0D6574" stroke-width="1.44427147"></path>
                            <path d="M45.3255137,72.3937797 C57.6792135,71.3468043 66.6091115,73.483468 72.1152077,78.8037708 C70.5466026,75.0122435 71.5872399,69.0242546 75.2371194,60.8398042" id="Path-263" stroke="#0D6574" stroke-width="1.44427147"></path>
                            <path d="M20.3481807,28.9354141 C33.5674351,29.9434355 42.4595968,32.5475477 47.0246659,36.7477508" id="Path-264" stroke="#0D6574" stroke-width="1.44427147"></path>
                            <path d="M53.2858275,44.4083718 C53.0356122,34.9466387 53.6931072,29.8323823 55.2583127,29.0656026" id="Path-265" stroke="#0D6574" stroke-width="1.44427147"></path>
                        </g>
                        <g id="Group-55" transform="translate(107.149928, 92.056694) rotate(31.000000) translate(-107.149928, -92.056694) translate(87.149928, 63.556694)">
                            <path d="M2.64452,36.3321364 C11.3259572,12.6288967 23.6202086,0.669828366 39.5272741,0.454931225 C40.3526847,16.9385188 36.4424911,22.1310877 24.1039238,25.3914936 C11.7653565,28.6518994 29.5549405,32.6831319 24.1039238,39.1912027 C20.4699127,43.5299165 14.6068266,49.2263895 6.51466555,56.2806218 L0.373051074,46.2305705 L2.64452,36.3321364 Z" id="Path-260" fill="#2CB0A0" fill-rule="nonzero"></path>
                            <path d="M5.98562147,51.373344 C9.03089208,26.4745826 16.8337293,11.4207412 29.3941333,6.21181971" id="Path-266" stroke="#0D6574" stroke-width="1.03162248"></path>
                            <path d="M14.0987242,22.114084 C20.2986851,18.5917774 25.1758839,17.7112007 28.7303207,19.472354" id="Path-267" stroke="#0D6574" stroke-width="1.03162248"></path>
                        </g>
                    </g>
                    <path d="M59.7407144,96.2744239 L112.554876,96.2744239 C115.087096,96.2744239 117.139865,98.3271933 117.139865,100.859413 C117.139865,101.11063 117.119218,101.361423 117.078133,101.609258 L112.613311,128.54219 C112.246511,130.754818 110.33288,132.377333 108.090054,132.377333 L64.2055367,132.377333 C61.9627111,132.377333 60.0490794,130.754818 59.6822797,128.54219 L55.2174574,101.609258 C54.8033291,99.1111324 56.492743,96.750284 58.9908689,96.3361557 C59.2387041,96.2950707 59.4894968,96.2744239 59.7407144,96.2744239 Z" id="Rectangle-66" fill="#7DD977" fill-rule="nonzero"></path>
                    <path d="M90.1424754,96.2744239 L112.554876,96.2744239 C115.087096,96.2744239 117.139865,98.3271933 117.139865,100.859413 C117.139865,101.11063 117.119218,101.361423 117.078133,101.609258 L112.613311,128.54219 C112.246511,130.754818 110.33288,132.377333 108.090054,132.377333 L100.01494,132.377333 C97.7721143,132.377333 95.8584826,130.754818 95.4916829,128.54219 L90.1424754,96.2744239 Z" id="Rectangle-66-Copy" fill="#0B4651" fill-rule="nonzero" opacity="0.100000001"></path>
                </g>
                <path d="M266.217068,122.500547 C276.3763,122.523984 284.863908,126.165844 291.679892,133.426126 C288.532703,124.153208 282.432555,112.843486 273.379447,99.4969585 L266.217068,101.35579 L266.217068,122.500547 Z" id="Path-333" fill="#0B4651" fill-rule="nonzero" opacity="0.5"></path>
                <path d="M294.894756,364.173455 L280.072315,364.173455 C271.983281,364.173455 265.425823,357.615998 265.425823,349.526963 L265.425823,299.651474 C309.650568,294.488259 346.205406,288.231494 354.618844,245.386812 C375.442687,308.731403 335.047397,342.367947 294.894745,364.17346 L294.894756,364.173455 Z" id="Combined-Shape" fill="#0B4651" fill-rule="nonzero" opacity="0.300000012"></path>
                <path d="M146.13343,63.7432791 C184.185334,85.1254788 282.351698,51.1449783 292.077349,134.740626 C264.094255,72.5163265 195.689346,122.815311 107.768601,110.725788 C67.8639244,105.238704 4.62184586,63.7432791 0.354014839,0.87787853 L111.507701,0.87787853 C117.915912,12.0905006 132.610622,56.1445165 146.13343,63.7432791 Z" id="Path-331-Copy" fill="url(#linearGradient-18)" fill-rule="nonzero"></path>
                <path d="M438.289074,232.552743 L438.289074,267.364398 C413.201825,264.223309 386.937228,255.61902 367.090743,237.390937 C393.564917,241.621365 418.128984,239.884586 438.289074,232.552743 Z" id="Combined-Shape" fill="#0B4651" fill-rule="nonzero" opacity="0.600000024"></path>
                <path d="M479.810312,200.621097 C515.121551,147.450537 511.035504,107.036924 497.358924,78.0650703 C563.528525,77.685226 605.587643,77.685226 623.536279,78.0650703 C647.384125,136.142668 587.275318,223.963804 507.48153,247.456985 C479.810312,255.604047 411.194762,267.894766 366.454613,236.884331 C415.252369,244.681944 459.608895,231.03976 479.810312,200.621097 Z" id="Path-331" fill="url(#linearGradient-19)" fill-rule="nonzero"></path>
                <rect id="Rectangle-3" fill="#7DD977" fill-rule="nonzero" x="561.859551" y="137.127237" width="14.1348315" height="14.1550696"></rect>
                <path d="M117.277299,444.3753 C102.158269,395.92964 120.244276,358.874731 171.53532,333.210573 C248.471885,294.714337 340.094532,319.350579 354.618844,245.386812 C379.829932,322.077078 301.208579,344.881056 256.023113,366.205823 C225.899469,380.422334 219.083549,406.478827 235.575353,444.3753 L117.277299,444.3753 Z" id="Path-332" fill="url(#linearGradient-20)" fill-rule="nonzero"></path>
                <path d="M286.19687,332.135904 C283.901693,335.358983 281.151962,337.428628 277.947676,338.344838 C279.328447,337.094714 280.184026,334.270682 280.514414,329.872741 C276.306969,327.476846 273.641958,323.924143 273.641958,319.958807 C273.641958,312.743756 282.464992,306.894802 293.348755,306.894802 C304.232518,306.894802 313.055551,312.743756 313.055551,319.958807 C313.055551,327.173858 304.232518,333.022812 293.348755,333.022812 C290.826006,333.022812 288.413974,332.708567 286.19687,332.135904 Z" id="Combined-Shape" fill="#0B4651" fill-rule="nonzero" opacity="0.5"></path>
                <path d="M226.571635,348.283753 C224.833603,350.724441 222.751359,352.291687 220.324902,352.985491 C221.370495,352.03883 222.018386,349.900321 222.268574,346.569964 C219.08247,344.755664 217.064381,342.065365 217.064381,339.0626 C217.064381,333.598976 223.745656,329.169834 231.987426,329.169834 C240.229196,329.169834 246.910471,333.598976 246.910471,339.0626 C246.910471,344.526224 240.229196,348.955367 231.987426,348.955367 C230.077065,348.955367 228.250545,348.717404 226.571635,348.283753 Z" id="Combined-Shape-Copy-5" fill="#FFFFFF" fill-rule="nonzero" transform="translate(231.987426, 341.077663) scale(-1, 1) translate(-231.987426, -341.077663) "></path>
                <path d="M169.909301,395.396287 C167.482536,397.994884 164.718468,399.737575 161.617098,400.624358 C162.924852,399.440343 163.859428,397.137978 164.420827,393.717265 C161.762777,392.408862 159.69529,390.464145 158.512323,387.927263 C154.662874,379.672093 161.637237,368.272599 174.09,362.465781 C186.542762,356.658962 199.758316,358.643743 203.607765,366.898913 C207.457214,375.154083 200.48285,386.553577 188.030088,392.360396 C181.750906,395.288426 175.277778,396.23538 169.909301,395.396287 Z" id="Combined-Shape-Copy-6" fill="#FFFFFF" fill-rule="nonzero" transform="translate(181.060044, 379.880536) scale(-1, 1) rotate(26.000000) translate(-181.060044, -379.880536) "></path>
                <path d="M168.115241,381.357051 C166.710884,381.357051 165.572428,380.217295 165.572428,378.811334 C165.572428,377.405372 166.710884,376.265616 168.115241,376.265616 C169.519597,376.265616 170.658053,377.405372 170.658053,378.811334 C170.658053,380.217295 169.519597,381.357051 168.115241,381.357051 Z M180.1936,381.357051 C178.789244,381.357051 177.650788,380.217295 177.650788,378.811334 C177.650788,377.405372 178.789244,376.265616 180.1936,376.265616 C181.597957,376.265616 182.736413,377.405372 182.736413,378.811334 C182.736413,380.217295 181.597957,381.357051 180.1936,381.357051 Z M192.271959,381.357051 C190.867603,381.357051 189.729147,380.217295 189.729147,378.811334 C189.729147,377.405372 190.867603,376.265616 192.271959,376.265616 C193.676316,376.265616 194.814772,377.405372 194.814772,378.811334 C194.814772,380.217295 193.676316,381.357051 192.271959,381.357051 Z" id="Combined-Shape" fill="#33BAAA" fill-rule="nonzero"></path>
                <path d="M285.084614,322.169109 C284.031347,322.169109 283.177505,321.314292 283.177505,320.259821 C283.177505,319.20535 284.031347,318.350532 285.084614,318.350532 C286.137882,318.350532 286.991724,319.20535 286.991724,320.259821 C286.991724,321.314292 286.137882,322.169109 285.084614,322.169109 Z M293.348755,322.169109 C292.295487,322.169109 291.441645,321.314292 291.441645,320.259821 C291.441645,319.20535 292.295487,318.350532 293.348755,318.350532 C294.402022,318.350532 295.255864,319.20535 295.255864,320.259821 C295.255864,321.314292 294.402022,322.169109 293.348755,322.169109 Z M301.612895,322.169109 C300.559628,322.169109 299.705786,321.314292 299.705786,320.259821 C299.705786,319.20535 300.559628,318.350532 301.612895,318.350532 C302.666163,318.350532 303.520005,319.20535 303.520005,320.259821 C303.520005,321.314292 302.666163,322.169109 301.612895,322.169109 Z" id="Combined-Shape" fill="#FFFFFF" fill-rule="nonzero"></path>
                <path d="M225.964224,340.625564 C225.262046,340.625564 224.692818,340.055686 224.692818,339.352705 C224.692818,338.649725 225.262046,338.079847 225.964224,338.079847 C226.666403,338.079847 227.235631,338.649725 227.235631,339.352705 C227.235631,340.055686 226.666403,340.625564 225.964224,340.625564 Z M232.321256,340.625564 C231.619077,340.625564 231.049849,340.055686 231.049849,339.352705 C231.049849,338.649725 231.619077,338.079847 232.321256,338.079847 C233.023434,338.079847 233.592662,338.649725 233.592662,339.352705 C233.592662,340.055686 233.023434,340.625564 232.321256,340.625564 Z M238.678287,340.625564 C237.976109,340.625564 237.406881,340.055686 237.406881,339.352705 C237.406881,338.649725 237.976109,338.079847 238.678287,338.079847 C239.380465,338.079847 239.949693,338.649725 239.949693,339.352705 C239.949693,340.055686 239.380465,340.625564 238.678287,340.625564 Z" id="Combined-Shape" fill="#54B454" fill-rule="nonzero"></path>
                <g id="Group-58" transform="translate(191.371503, 83.159834) rotate(-14.000000) translate(-191.371503, -83.159834) translate(169.371503, 60.659834)" fill-rule="nonzero">
                    <path d="M9.09494702e-13,2.51036075 L34.4239234,2.51036075 L34.4239234,42.8748382 C34.4239234,43.8033187 33.6712413,44.5560008 32.7427609,44.5560008 L2.52174384,44.5560008 C1.12902317,44.5560008 9.09665261e-13,43.4269776 9.09494702e-13,42.0342569 L9.09494702e-13,2.51036075 Z" id="Rectangle-58-Copy-4" fill="#0B4651" opacity="0.049999997"></path>
                    <path d="M3.35843156,0 L37.782355,0 L37.4492628,39.8160447 L6.04474991,41.8699505 C4.65499831,41.9608425 3.45469953,40.9079087 3.36380753,39.5181571 C3.3602245,39.4633721 3.35843156,39.4084847 3.35843156,39.3535826 L3.35843156,0 Z" id="Rectangle-58" fill="#FFFFFF"></path>
                    <path d="M6.39099658,41.8951112 C8.24060316,41.7639932 9.66714523,40.2188213 9.64463061,38.3709082 L9.56547018,31.873726 L43.8045804,31.873726 L43.8045804,38.3237808 C43.8045804,40.1687202 42.3066536,41.6657776 40.4555018,41.6709155 C16.6019022,41.9014721 5.24706719,41.9762039 6.39099658,41.8951112 Z" id="Path-335" fill="#0B4651"></path>
                    <rect id="Rectangle-67" fill="#0B4651" opacity="0.100000001" x="6.71686311" y="8.36786916" width="27.7070603" height="5.85750841" rx="2.9287542"></rect>
                    <rect id="Rectangle-67-Copy" fill="#0B4651" opacity="0.100000001" x="6.71686311" y="20.9196729" width="27.7070603" height="5.85750841" rx="2.9287542"></rect>
                </g>
                <path d="M236.98468,89.8708859 L255.231792,89.8708859 L243.138911,78.5843352 L236.98468,89.8708859 Z M268.907947,95.2631288 L227.908085,95.2631288 L241.736169,69.9031142 L268.907947,95.2631288 Z" id="Rectangle-68" fill="#33BAAA" fill-rule="nonzero" transform="translate(248.408016, 82.583121) rotate(15.000000) translate(-248.408016, -82.583121) "></path>
                <g id="Group-59" transform="translate(481.612495, 219.796811) rotate(12.000000) translate(-481.612495, -219.796811) translate(447.112495, 198.796811)" fill-rule="nonzero">
                    <path d="M22.6224575,1.90928846 L64.5750725,1.90928846 C67.2230484,1.90928846 69.0217804,4.26478573 68.5926529,7.17043887 L64.3191301,36.1067661 C63.8900025,39.0124193 61.3955173,41.3679165 58.7475414,41.3679165 L16.7949264,41.3679165 C14.1469504,41.3679165 12.3482184,39.0124193 12.7773459,36.1067661 L17.0508688,7.17043887 C17.4799963,4.26478573 19.9744815,1.90928846 22.6224575,1.90928846 Z" id="Rectangle-70" fill="#33BAAA"></path>
                    <path d="M3.42613552,0 L14.351741,0 C15.3901359,0 16.3992642,0.44955277 17.1192095,1.2328692 L21.3382956,5.82332786 C22.058241,6.60664428 23.0673692,7.05619705 24.1057642,7.05619705 L54.6900217,7.05619705 C56.6748663,7.05619705 58.3608762,8.66672289 58.4558302,10.6534072 L59.7519071,37.7707064 C59.846861,39.7573907 58.314802,41.3679165 56.3299574,41.3679165 L5.40332354,41.3679165 C3.41847894,41.3679165 1.73246906,39.7573907 1.63751508,37.7707064 L0.00418584845,3.59721013 C-0.0907681332,1.61052583 1.44129092,0 3.42613552,0 Z" id="Rectangle-69" fill="#0B4651"></path>
                </g>
                <g id="Group-60" transform="translate(519.711802, 186.514922) rotate(-14.000000) translate(-519.711802, -186.514922) translate(501.211802, 165.514922)" fill-rule="nonzero">
                    <polygon id="Rectangle-71" fill="#FFFFFF" points="0 0 36.2350776 0 36.2350776 31.9660874 27.5884656 41.3679165 0 41.3679165"></polygon>
                    <rect id="Rectangle-72" fill="#6AC264" opacity="0.449999988" x="5.08562493" y="7.00072434" width="26.6995309" height="2.54571794" rx="1.27285897"></rect>
                    <rect id="Rectangle-72-Copy" fill="#6AC264" opacity="0.449999988" x="5.08562493" y="15.9107371" width="26.6995309" height="2.54571794" rx="1.27285897"></rect>
                    <rect id="Rectangle-72-Copy-2" fill="#6AC264" opacity="0.449999988" x="5.08562493" y="24.8207499" width="26.6995309" height="2.54571794" rx="1.27285897"></rect>
                    <polygon id="Rectangle-71-Copy" fill="#6AC264" points="27.335234 31.1850448 36.190954 32.1005727 27.60476 41.5266874"></polygon>
                </g>
                <ellipse id="Oval-27" fill="#33BAAA" fill-rule="nonzero" cx="530.783869" cy="137.286344" rx="6.0391796" ry="6.04608011"></ellipse>
                <path d="M63.8599299,422.59743 L347.176571,422.59743" id="Path-320" stroke="#0B4651"></path>
                <ellipse id="Oval" stroke="#0B4651" stroke-width="0.88445" cx="456.290028" cy="436.153082" rx="12.809691" ry="4.42345924"></ellipse>
                <ellipse id="Oval-Copy" stroke="#0B4651" stroke-width="0.88445" cx="491.627107" cy="440.134195" rx="5.74227528" ry="3.98111332"></ellipse>
                <ellipse id="Oval-Copy-2" stroke="#0B4651" stroke-width="0.88445" cx="482.792837" cy="428.190855" rx="3.97542135" ry="2.65407555"></ellipse>
                <path d="M464.988596,422.59743 L575.555056,422.59743" id="Path-320-Copy-2" stroke="#0B4651"></path>
            </g>
        </g>
    </g>
</svg>