<?xml version="1.0" encoding="UTF-8"?>
<svg width="895px" height="555px" viewBox="0 0 895 555" version="1.1" xmlns="http://www.w3.org/2000/svg" xmlns:xlink="http://www.w3.org/1999/xlink">
    <!-- Generator: sketchtool 49 (51002) - http://www.bohemiancoding.com/sketch -->
    <title>D1097146-57BB-4CE9-B303-755B7D6CBD5B@3x</title>
    <desc>Created with sketchtool.</desc>
    <defs>
        <path d="M109.281378,26.3213039 C65.9327747,3.58029172 29.8049288,-4.00004567 0.897840149,3.58029172 C7.70865303,19.7749015 14.7767221,27.8722065 22.1020475,27.8722065 C33.0900356,27.8722065 46.5251968,21.7241841 50.8074028,33.0335434 C55.089609,44.3429027 64.1717724,62.078224 82.3194423,62.078224 C94.417889,62.078224 106.711591,56.548154 119.200549,45.4880137 L109.281378,26.3213039 Z" id="path-1"></path>
        <path d="M109.281378,26.3213039 C65.9327747,3.58029172 29.8049288,-4.00004567 0.897840149,3.58029172 C7.70865303,19.7749015 14.7767221,27.8722065 22.1020475,27.8722065 C33.0900356,27.8722065 46.5251968,21.7241841 50.8074028,33.0335434 C55.089609,44.3429027 64.1717724,62.078224 82.3194423,62.078224 C94.417889,62.078224 106.711591,56.548154 119.200549,45.4880137 L109.281378,26.3213039 Z" id="path-3"></path>
        <path d="M121.145799,110.533321 C120.785086,77.422463 114.859658,56.6267345 103.369515,48.146135 C86.1343021,35.4252356 74.3401876,51.1954989 61.1265239,35.4252356 C47.9128603,19.6549724 36.6558878,0.239393811 18.903922,0.239393811 C1.15195606,0.239393811 -4.81716579,16.216069 5.1196795,25.8206523 C15.0565248,35.4252356 27.3613121,36.8860087 24.1179307,63.4812096 C20.8745492,90.0764103 61.500757,65.176315 61.500757,93.8652906 C61.500757,112.991274 81.3824376,118.547284 121.145799,110.533321 Z" id="path-5"></path>
        <path d="M121.145799,110.533321 C120.785086,77.422463 114.859658,56.6267345 103.369515,48.146135 C86.1343021,35.4252356 74.3401876,51.1954989 61.1265239,35.4252356 C47.9128603,19.6549724 36.6558878,0.239393811 18.903922,0.239393811 C1.15195606,0.239393811 -4.81716579,16.216069 5.1196795,25.8206523 C15.0565248,35.4252356 27.3613121,36.8860087 24.1179307,63.4812096 C20.8745492,90.0764103 61.500757,65.176315 61.500757,93.8652906 C61.500757,112.991274 81.3824376,118.547284 121.145799,110.533321 Z" id="path-7"></path>
        <linearGradient x1="6.58766989%" y1="6.58253824%" x2="82.3753071%" y2="66.1557193%" id="linearGradient-9">
            <stop stop-color="#2FA984" offset="0%"></stop>
            <stop stop-color="#33BAAA" offset="100%"></stop>
        </linearGradient>
        <path d="M107.879486,25.965105 C64.7607897,3.17233323 28.8245538,-4.42525733 0.0707786541,3.17233323 C6.84546926,19.4038027 13.8760517,27.5195374 21.162526,27.5195374 C32.0922374,27.5195374 45.4561431,21.3575219 49.7156377,32.6926218 C53.9751325,44.0277217 63.0091271,61.8034094 81.0605479,61.8034094 C93.0948285,61.8034094 105.323329,56.2607526 117.74605,45.175439 L107.879486,25.965105 Z" id="path-10"></path>
        <linearGradient x1="50%" y1="0%" x2="83.9724883%" y2="100%" id="linearGradient-12">
            <stop stop-color="#33BAAA" offset="0%"></stop>
            <stop stop-color="#1FA091" offset="100%"></stop>
        </linearGradient>
        <linearGradient x1="59.0959671%" y1="52.9966015%" x2="59.0959725%" y2="2.26115555%" id="linearGradient-13">
            <stop stop-color="#39CFE9" offset="0%"></stop>
            <stop stop-color="#69F8E3" offset="100%"></stop>
        </linearGradient>
        <path d="M14.0719737,65.3980061 L13.2489746,62.6086957 C12.3845896,59.6791198 14.0587575,56.6035069 16.9883334,55.7391218 C17.4965131,55.589181 18.0236024,55.5130435 18.5534409,55.5130435 L54.5608549,55.5130435 C57.155744,55.5130435 59.4571997,57.1795397 60.2669431,59.644852 L61.2404315,62.6086957 C62.1724672,65.4463342 60.6276709,68.502259 57.7900324,69.4342947 C57.2453686,69.6131921 56.6757237,69.7043478 56.1024324,69.7043478 L19.8324596,69.7043478 C17.1700637,69.7043478 14.8254141,67.9515682 14.0719737,65.3980061 Z" id="path-14"></path>
        <filter x="-148.5%" y="-507.4%" width="397.0%" height="1114.7%" filterUnits="objectBoundingBox" id="filter-15">
            <feOffset dx="0" dy="0" in="SourceAlpha" result="shadowOffsetOuter1"></feOffset>
            <feGaussianBlur stdDeviation="24" in="shadowOffsetOuter1" result="shadowBlurOuter1"></feGaussianBlur>
            <feComposite in="shadowBlurOuter1" in2="SourceAlpha" operator="out" result="shadowBlurOuter1"></feComposite>
            <feColorMatrix values="0 0 0 0 0.839215686   0 0 0 0 0.945098039   0 0 0 0 0.933333333  0 0 0 0.789685236 0" type="matrix" in="shadowBlurOuter1"></feColorMatrix>
        </filter>
        <linearGradient x1="50%" y1="11.7736198%" x2="50%" y2="100%" id="linearGradient-16">
            <stop stop-color="#33BAAA" offset="0%"></stop>
            <stop stop-color="#0E8D7E" offset="100%"></stop>
        </linearGradient>
        <circle id="path-17" cx="476" cy="109" r="37"></circle>
        <filter x="-97.3%" y="-97.3%" width="294.6%" height="294.6%" filterUnits="objectBoundingBox" id="filter-18">
            <feOffset dx="0" dy="0" in="SourceAlpha" result="shadowOffsetOuter1"></feOffset>
            <feGaussianBlur stdDeviation="24" in="shadowOffsetOuter1" result="shadowBlurOuter1"></feGaussianBlur>
            <feComposite in="shadowBlurOuter1" in2="SourceAlpha" operator="out" result="shadowBlurOuter1"></feComposite>
            <feColorMatrix values="0 0 0 0 0.839215686   0 0 0 0 0.945098039   0 0 0 0 0.933333333  0 0 0 0.789685236 0" type="matrix" in="shadowBlurOuter1"></feColorMatrix>
        </filter>
        <linearGradient x1="59.0959668%" y1="55.3271034%" x2="59.0959725%" y2="2.26115555%" id="linearGradient-19">
            <stop stop-color="#4CADBE" offset="0%"></stop>
            <stop stop-color="#69F8E3" offset="100%"></stop>
        </linearGradient>
        <linearGradient x1="59.0959728%" y1="97.516733%" x2="59.0959728%" y2="0%" id="linearGradient-20">
            <stop stop-color="#093E48" offset="0%"></stop>
            <stop stop-color="#095D6C" offset="11.6022219%"></stop>
            <stop stop-color="#045868" offset="85.6808534%"></stop>
            <stop stop-color="#107768" offset="100%"></stop>
        </linearGradient>
        <linearGradient x1="57.6964029%" y1="-28.1753217%" x2="43.1413235%" y2="92.9334256%" id="linearGradient-21">
            <stop stop-color="#88E282" offset="0%"></stop>
            <stop stop-color="#33BAAA" offset="100%"></stop>
        </linearGradient>
        <linearGradient x1="57.6964029%" y1="-28.1753217%" x2="43.3336469%" y2="91.3331566%" id="linearGradient-22">
            <stop stop-color="#5AB155" offset="0%"></stop>
            <stop stop-color="#14AD9B" offset="100%"></stop>
        </linearGradient>
    </defs>
    <g id="Messaging" stroke="none" stroke-width="1" fill="none" fill-rule="evenodd">
        <g transform="translate(-352.000000, -4750.000000)" id="Adoption">
            <g transform="translate(0.000000, 4272.000000)">
                <g id="Messaging" transform="translate(352.000000, 478.000000)">
                    <polyline id="Path-92" stroke="#3FBDA1" stroke-width="1.43" points="458 398.776379 566.810085 398.776379 585.82459 356.274057 610.692731 356.274057 644.414202 389.911593 653.749 399.223156 653.749 280 715.243797 308.592165 715.243797 362.297436 823.37591 417.92587 823.37591 510 895 510"></polyline>
                    <path d="M0,535 L833,535" id="Path-94" stroke="#3FBDA1" stroke-width="1.43"></path>
                    <polyline id="Path-93" stroke="#3FBDA1" stroke-width="1.43" points="35 518 35 413.502551 126.819872 373.857031 126.819872 410.984339 151.346999 410.984339 151.346999 338 281.18857 338 361 404.003135"></polyline>
                    <path d="M428.329956,0 L428.329956,22.9411807 M513.51553,23.1593178 L501.020868,42.3994109 M572.560039,88.5693741 L551.768268,98.2647361 M586.9477,175.728022 L564.229782,172.535227 M551.936715,256.822151 L534.622786,241.771382 M478.656781,306.074319 L472.333335,284.021841 M390.594101,307.886086 L396.917547,285.833607 M315.356714,261.682227 L332.670643,246.631458 M277.0523,182.093368 L299.770218,178.900572 M287.856197,94.4190374 L308.647968,104.114399 M344.164427,26.6360719 L356.659089,45.8761649" id="Path-79" stroke="#4DC09A" stroke-width="3.003"></path>
                    <circle id="Oval-20" fill="#D6F1EE" cx="433.5" cy="156.5" r="100.5"></circle>
                    <path d="M626,543 L383,543 C407.113468,541.062475 420.058187,538.06214 421.834157,533.998996 C424.498111,527.904279 427.455197,522.796967 435.192067,521.999674 C442.928937,521.20238 445.905261,527.943173 453.41176,527.398575 C460.91826,526.853977 459.957896,517.939106 469.357492,516.764663 C478.757088,515.59022 480.173985,523.057408 486.582539,523.057408 C492.991094,523.057408 493.412937,491.91115 517.775677,490.076083 C542.138417,488.241015 538.905321,520.183118 549.086379,523.057408 C559.267437,525.931697 562.744907,520.612181 572.12175,528.746116 C578.372979,534.168739 596.332396,538.920034 626,543 Z" id="Path-113-Copy-4" fill="#D6F1EE"></path>
                    <g id="Group-33" transform="translate(437.000000, 434.000000)">
                        <g id="Group-35" transform="translate(79.000000, 57.500000) scale(-1, 1) translate(-79.000000, -57.500000) translate(0.000000, 0.000000)">
                            <g id="Mask" transform="translate(0.000000, 50.162933)">
                                <g id="path-2-link" fill="#33BAAA" fill-rule="nonzero">
                                    <path d="M109.281378,26.3213039 C65.9327747,3.58029172 29.8049288,-4.00004567 0.897840149,3.58029172 C7.70865303,19.7749015 14.7767221,27.8722065 22.1020475,27.8722065 C33.0900356,27.8722065 46.5251968,21.7241841 50.8074028,33.0335434 C55.089609,44.3429027 64.1717724,62.078224 82.3194423,62.078224 C94.417889,62.078224 106.711591,56.548154 119.200549,45.4880137 L109.281378,26.3213039 Z" id="path-2"></path>
                                </g>
                                <g id="Clipped">
                                    <mask id="mask-2" fill="white">
                                        <use xlink:href="#path-1"></use>
                                    </mask>
                                    <g id="path-2"></g>
                                    <path d="M148.053664,60.3703868 C147.692951,27.2595291 141.767523,6.46380061 130.27738,-2.01679893 C113.042167,-14.7376982 101.248053,1.03256498 88.0343891,-14.7376982 C74.8207254,-30.5079615 63.5637529,-49.9235401 45.8117869,-49.9235401 C28.0598211,-49.9235401 22.0906992,-33.9468648 32.0275446,-24.3422815 C41.96439,-14.7376982 54.2691772,-13.2769251 51.0257957,13.3182756 C47.7824144,39.9134763 88.408622,15.0133811 88.408622,43.7023567 C88.408622,62.8283404 108.290303,68.3843504 148.053664,60.3703868 Z" id="Shape" fill="#25877C" fill-rule="nonzero" mask="url(#mask-2)"></path>
                                </g>
                                <mask id="mask-4" fill="white">
                                    <use xlink:href="#path-3"></use>
                                </mask>
                                <g id="path-2"></g>
                                <path d="M111.321932,63.054845 C85.7244752,16.0020817 49.9608762,-3.05374814 4.0311356,5.88735554" id="Path-73" stroke="#0D6574" stroke-width="1.576575" mask="url(#mask-4)"></path>
                                <path d="M41.9569582,5.41361473 C35.7325847,7.47335552 30.0411703,14.0251628 24.8827152,25.0690365" id="Path-74" stroke="#0D6574" stroke-width="1.576575" mask="url(#mask-4)"></path>
                                <path d="M88.05113,30.6551262 C77.8755781,31.1752294 69.5566361,36.1237051 63.0943044,45.5005537" id="Path-75" stroke="#0D6574" stroke-width="1.576575" mask="url(#mask-4)"></path>
                            </g>
                            <g id="Path-64" transform="translate(35.258581, 0.000000)">
                                <g id="Mask" fill="#33BAAA" fill-rule="nonzero">
                                    <path d="M121.145799,110.533321 C120.785086,77.422463 114.859658,56.6267345 103.369515,48.146135 C86.1343021,35.4252356 74.3401876,51.1954989 61.1265239,35.4252356 C47.9128603,19.6549724 36.6558878,0.239393811 18.903922,0.239393811 C1.15195606,0.239393811 -4.81716579,16.216069 5.1196795,25.8206523 C15.0565248,35.4252356 27.3613121,36.8860087 24.1179307,63.4812096 C20.8745492,90.0764103 61.500757,65.176315 61.500757,93.8652906 C61.500757,112.991274 81.3824376,118.547284 121.145799,110.533321 Z" id="path-4"></path>
                                </g>
                                <g id="Clipped">
                                    <mask id="mask-6" fill="white">
                                        <use xlink:href="#path-5"></use>
                                    </mask>
                                    <g id="path-4"></g>
                                    <path d="M89.6950732,114.295115 C90.3712514,72.5617112 85.8649694,45.406072 76.1762274,32.8281982 L111.17046,17.5579555 L106.319354,122.592709 L89.6950732,114.295115 Z" id="Shape" fill="#25877C" fill-rule="nonzero" mask="url(#mask-6)"></path>
                                </g>
                                <mask id="mask-8" fill="white">
                                    <use xlink:href="#path-7"></use>
                                </mask>
                                <g id="path-4"></g>
                                <path d="M102.722007,105.216408 C65.1801539,46.6378153 37.6219773,12.4263679 20.0474769,2.58206654" id="Path-67" stroke="#0D6574" stroke-width="1.576575" mask="url(#mask-8)"></path>
                                <path d="M68.4815333,54.7791021 C56.0278628,47.6926223 43.3264443,50.0625787 30.3772781,61.8889712" id="Path-68" stroke="#0D6574" stroke-width="1.576575" mask="url(#mask-8)"></path>
                                <path d="M79.247151,70.142751 C81.1074323,54.543575 85.5467895,44.3430258 92.5652222,39.5411036" id="Path-69" stroke="#0D6574" stroke-width="1.576575" mask="url(#mask-8)"></path>
                                <path d="M45.5078196,26.2596658 C35.7739411,21.2760668 26.0683145,21.9108473 16.3909398,28.1640075" id="Path-70" stroke="#0D6574" stroke-width="1.576575" mask="url(#mask-8)"></path>
                            </g>
                        </g>
                    </g>
                    <g id="Mask" transform="translate(264.000000, 435.000000) rotate(43.000000) translate(-264.000000, -435.000000) translate(205.000000, 404.000000)">
                        <mask id="mask-11" fill="white">
                            <use xlink:href="#path-10"></use>
                        </mask>
                        <use id="path-2" fill="url(#linearGradient-9)" fill-rule="nonzero" xlink:href="#path-10"></use>
                        <path d="M27.2245497,-8.84107148 C14.8251138,16.3527752 6.51057806,30.2081597 2.28094238,32.7250817 C-4.06351114,36.5004649 -6.24209655,11.9420051 -6.24209655,11.9420051 C-6.24209655,11.9420051 -3.9519179,0.417788198 0.628439407,-22.6306457 L27.2245497,-8.84107148 Z" id="Path-84" fill="#0D6574" opacity="0.400000006" mask="url(#mask-11)" transform="translate(10.491227, 5.244521) rotate(-43.000000) translate(-10.491227, -5.244521) "></path>
                        <path d="M109.909218,62.7822532 C84.4475217,15.6223957 48.8736008,-3.47680598 3.18745616,5.48464803" id="Path-73" stroke="#0D6574" stroke-width="1.576575" mask="url(#mask-11)"></path>
                        <path d="M40.9121329,5.00982897 C34.7207713,7.07425782 29.0595424,13.6409773 23.9284459,24.7099873" id="Path-74" stroke="#0D6574" stroke-width="1.576575" mask="url(#mask-11)"></path>
                        <path d="M86.7618366,30.3087912 C76.6402524,30.8300781 68.3654314,35.7898168 61.9373737,45.1880076" id="Path-75" stroke="#0D6574" stroke-width="1.576575" mask="url(#mask-11)"></path>
                        <path d="M93.3089655,65.9151031 C79.7962132,26.3557943 69.2868917,3.35058871 61.7810012,-3.10051358 C54.2751107,-9.55161587 72.3485268,-7.53444131 116.00125,2.9510101 L121.157007,65.4789055 L93.3089655,65.9151031 Z" id="Path-83" fill="#0D6574" opacity="0.400000006" mask="url(#mask-11)"></path>
                    </g>
                    <path d="M413,543 L170,543 C194.113468,541.062475 207.058187,538.06214 208.834157,533.998996 C211.498111,527.904279 214.455197,522.796967 222.192067,521.999674 C229.928937,521.20238 232.905261,527.943173 240.41176,527.398575 C247.91826,526.853977 246.957896,517.939106 256.357492,516.764663 C265.757088,515.59022 267.173985,523.057408 273.582539,523.057408 C279.991094,523.057408 280.412937,491.91115 304.775677,490.076083 C329.138417,488.241015 325.905321,520.183118 336.086379,523.057408 C346.267437,525.931697 349.744907,520.612181 359.12175,528.746116 C365.372979,534.168739 383.332396,538.920034 413,543 Z" id="Path-113-Copy-5" fill="#D6F1EE"></path>
                    <path d="M680,342 L400,342 C427.785066,339.733461 442.700792,336.223636 444.747177,331.470523 C447.816754,324.340854 451.224096,318.366263 460.139007,317.43358 C469.053919,316.500897 472.483428,324.386353 481.132893,323.749276 C489.782357,323.112199 488.675766,312.683483 499.506575,311.309606 C510.337385,309.935729 511.970023,318.67093 519.354366,318.67093 C526.738709,318.67093 527.224784,282.235685 555.297076,280.089002 C583.369369,277.94232 579.643991,315.308554 591.375251,318.67093 C603.106511,322.033306 607.113473,315.810475 617.918066,325.325645 C625.121128,331.669091 645.815106,337.22721 680,342 Z" id="Path-113-Copy-6" fill="#D6F1EE"></path>
                    <path d="M226,287 L28,287 C47.6480112,285.391489 58.19556,282.900645 59.6426464,279.527468 C61.813276,274.467703 64.2227535,270.227671 70.5268696,269.565767 C76.8309857,268.903863 79.2561385,274.499992 85.3725456,274.047873 C91.4889526,273.595754 90.7064342,266.19473 98.3653639,265.21972 C106.024294,264.244711 107.178802,270.443886 112.400588,270.443886 C117.622373,270.443886 117.966097,244.586615 137.817218,243.063163 C157.66834,241.539711 155.033965,268.057683 163.329642,270.443886 C171.625319,272.830088 174.458813,268.413886 182.099204,275.166587 C187.192798,279.668387 201.826397,283.612858 226,287 Z" id="Path-113-Copy-7" fill="#D6F1EE"></path>
                    <g id="Group-36" transform="translate(348.000000, 105.000000)">
                        <path d="M47.2123192,93.8783409 L26.321084,18.2044216 C25.7326122,16.0728115 26.983573,13.8677495 29.115183,13.2792777 C29.4622503,13.1834631 29.8206554,13.1348992 30.1807055,13.1348992 L131.904919,13.1348992 C134.679533,13.1348992 137.138786,14.9210098 137.997091,17.5595319 L161.315898,89.2441271 L47.2123192,93.8783409 Z" id="Path-77" fill="url(#linearGradient-12)"></path>
                        <polygon id="Path-77-Copy-2" fill="#075B6A" points="47.1037195 93.8254867 26.1081081 17.5304348 137.669958 17.5304348 161.207298 89.1912729"></polygon>
                        <path d="M9.29923723,37.2497573 L0.582112924,7.70565825 C-0.356582407,4.52422973 1.46151206,1.18420943 4.64294058,0.245514097 C5.19480801,0.0826830369 5.7672106,-4.54641654e-13 6.34259883,-4.54747351e-13 L58.6542306,-4.51194637e-13 C61.2491197,-4.51671311e-13 63.5505754,1.66649619 64.3603188,4.13180848 L74.0642172,33.6759075 C75.0993046,36.827293 73.383706,40.2210998 70.2323205,41.2561872 C69.6274354,41.4548646 68.9948069,41.556099 68.358129,41.556099 L15.0597231,41.556099 C12.3973272,41.556099 10.0526777,39.8033194 9.29923723,37.2497573 Z" id="Path-77-Copy-4" fill="url(#linearGradient-13)" opacity="0.6015625"></path>
                        <g id="Path-77-Copy-5">
                            <use fill="black" fill-opacity="1" filter="url(#filter-15)" xlink:href="#path-14"></use>
                            <use fill-opacity="0.829999983" fill="#FFFFFF" fill-rule="evenodd" xlink:href="#path-14"></use>
                        </g>
                        <path d="M47.2123192,93.8783409 L119.916239,62.8766234 C122.163852,61.9182173 124.570716,61.3880886 127.012999,61.3135117 L228.321097,58.2199974 C228.894578,58.2024858 229.40038,58.5929848 229.528586,59.1522254 L229.919728,60.8584027 L161.315898,89.2441271 L48.0318473,95.8880347 L47.2123192,93.8783409 Z" id="Path-77-Copy-3" fill="#4DDDCC"></path>
                        <path d="M47.8748459,95.8798076 L119.759243,65.2275433 C122.548591,64.038136 125.535035,63.3785468 128.565865,63.2825037 L228.65539,60.110797 C229.097438,60.0967891 229.467144,60.4437839 229.481152,60.8858316 C229.491489,61.2120377 229.302827,61.5118798 229.004278,61.6437337 L161.978424,91.2455938 L47.8748459,95.8798076 Z" id="Path-77-Copy" fill="url(#linearGradient-16)"></path>
                    </g>
                    <g id="Oval-20-Copy">
                        <use fill="black" fill-opacity="1" filter="url(#filter-18)" xlink:href="#path-17"></use>
                        <use fill-opacity="0.719999969" fill="#FFFFFF" fill-rule="evenodd" xlink:href="#path-17"></use>
                    </g>
                    <path d="M271.204737,498.351123 L361.850801,247.785574 C367.109396,233.249668 378.789557,221.959207 393.495473,217.196705 L486.130693,187.196841 L616.327352,182.001469 C617.300776,181.962626 618.121381,182.720253 618.160224,183.693677 C618.161159,183.717109 618.161627,183.740558 618.161627,183.764009 L618.161627,183.764009 C618.161627,184.871659 617.484219,185.866628 616.453666,186.272643 L530.118512,220.286783 C513.781148,226.723342 502.011814,241.250796 499.105103,258.568122 L451.04516,544.894994 L623,544.894994 L623,550 L307.444687,550 C286.160461,550 268.906187,532.745726 268.906187,511.4615 C268.906187,506.991137 269.683968,502.55486 271.204737,498.351123 Z" id="Path-80" fill="url(#linearGradient-19)"></path>
                    <path d="M278.084782,496.567529 L365.334443,250.997462 C370.548842,236.321183 382.298439,224.908896 397.120337,220.124083 L489.486766,190.306303 L619,185 L532.185658,222.722399 C516.572446,229.506621 505.47809,243.76171 502.735492,260.562788 L456.467365,544 L311.569612,544 C291.943897,544 276.034112,528.090215 276.034112,508.4645 C276.034112,504.410908 276.727675,500.387198 278.084782,496.567529 Z" id="Path-80-Copy" fill="url(#linearGradient-20)"></path>
                    <g id="Group-31" transform="translate(179.000000, 330.000000)">
                        <path d="M51.0850887,217.96875 L59.9504491,218.905908 C62.6823528,219.194698 64.7557377,221.498813 64.7557377,224.245938 L54.6483215,224.183661 C53.1879489,224.174662 51.9457799,223.116356 51.704941,221.675951 L51.0850887,217.96875 Z" id="Rectangle-27-Copy" fill="#33BAAA"></path>
                        <path d="M14.711587,217.96875 L23.5769474,218.905908 C26.3088511,219.194698 28.382236,221.498813 28.382236,224.245938 L18.2748197,224.183661 C16.8144472,224.174662 15.5722782,223.116356 15.3314393,221.675951 L14.711587,217.96875 Z" id="Rectangle-27-Copy-3" fill="#33BAAA"></path>
                        <path d="M19.1215602,120.055318 C16.108947,151.452899 14.6026404,184.542136 14.6026404,219.323028 L19.8860631,219.323028 C23.8440603,165.763787 28.8707931,138.984167 34.9662615,138.984167 C40.1996835,138.984167 45.6521966,165.763787 51.3238008,219.323028 L57.8930753,219.323028 C58.5786119,193.852185 54.4570187,160.165137 45.5282958,118.261884 L19.1215602,120.055318 Z" id="Path-69" fill="#0B4651"></path>
                        <path d="" id="Path-68" stroke="#979797" stroke-width="1.36994458"></path>
                        <path d="M64.6968534,13.4009924 C63.8021702,9.87244751 63.6731913,7.84473678 64.3099165,7.31786019 C65.2650044,6.5275453 66.5026825,9.10931575 66.5026825,7.31786019 C66.5026825,5.52640462 63.9128124,0.502286843 65.2077475,0.0520741794 C66.5026825,-0.398138484 71.1039633,6.44599593 70.6368168,9.48023387 C70.3253859,11.5030592 69.9337454,13.5297678 69.4618953,15.5603596 L64.6968534,13.4009924 Z" id="Path-81" fill="#FFD7B3"></path>
                        <path d="M18.0247108,12.8778696 C19.519408,10.0892567 20.8584152,8.69495028 22.0417323,8.69495028 C23.2508572,8.69495028 23.3173045,7.09440708 22.0417323,7.09440708 C21.4447852,7.09440708 19.3355836,8.69495028 19.1334568,8.69495028 C18.49942,8.69495028 22.7374267,3.5429189 24.2515852,2.33470404 C25.2610242,1.52922746 24.5244066,0.750992784 22.0417323,0 C16.065126,3.55911678 13.0768229,7.0269364 13.0768229,10.4034589 C13.0768229,11.141316 14.2750542,10.7016683 14.2750542,11.3444086 C14.2750542,14.528029 15.5249398,15.0391827 18.0247108,12.8778696 Z" id="Path-82" fill="#FFD7B3"></path>
                        <path d="M13.7379004,55.1243765 C16.5367194,58.9407033 18.5133337,61.1505035 19.6677434,61.7537771 C21.7773708,60.9318089 23.4251405,60.5208249 24.6110525,60.5208249 C25.7969645,60.5208249 27.451063,61.0191145 29.5733482,62.0156937 C37.5827972,59.8305235 46.602077,52.184657 52.6585963,42.0875176 C58.7367071,31.9543818 63.0469242,13.6229443 64.520104,12.7550659 C67.3721917,11.0748466 69.1909195,12.2166318 70.172,15.3538032 C69.8078848,17.3765856 67.0227178,31.9419661 60.4468383,47.8561557 C55.8014032,59.0985053 47.7164758,67.3827724 45.9635217,76.5102182 C44.2226889,85.5745497 44.7412845,101.677837 47.5193085,124.820081 C35.051445,129.261104 25.1353408,129.261104 17.7709957,124.820081 C17.7709957,99.087671 15.6293659,82.9843835 11.3461064,76.5102182 C1.71818391,59.399797 -1.53708483,45.5013231 1.58030014,34.8147963 C1.58030014,31.8426586 7.86636275,15.6494632 12.6624389,10.0792909 C15.1361238,7.20634855 18.478808,10.1069575 17.7709957,12.7550659 C16.4802549,17.58406 13.7379004,20.472258 11.3461064,34.8147963 C10.7586782,38.337345 11.5559429,45.107205 13.7379004,55.1243765 Z" id="Path-66" fill="url(#linearGradient-21)"></path>
                        <g id="Group-38" transform="translate(1.383573, 24.402574)">
                            <path d="M26.176734,7.07025757 C32.861988,13.7447463 35.4455002,19.0703784 33.9272707,23.0471537 C32.4090411,27.0239291 30.5141338,29.5134208 28.2425486,30.5156289 L28.2425486,37.7629502 C25.8079057,36.9458338 23.9693293,36.521506 22.7268193,36.489967 C21.4843092,36.4584279 19.9524937,36.7972039 18.1313727,37.5062948 L18.3791793,30.5156289 L18.3791793,13.3228277 L26.176734,7.07025757 Z" id="Path-65" fill="#FFD7B3"></path>
                            <path d="M17.3740127,32.1440489 C23.5620742,30.3320824 27.2250023,27.2479431 28.362797,22.8916309 C30.0742125,16.3390775 35.1868036,14.0846658 33.2200676,11.6347961 C31.9089102,10.0015496 28.2531686,7.90975941 22.2528428,5.35942553 C8.2440218,9.08773523 3.30889423,15.478616 7.44746005,24.5320678 C10.2035893,30.5613264 13.5124402,33.0986534 17.3740127,32.1440489 Z" id="Path-62" fill="#0D6574" transform="translate(19.847603, 18.849599) rotate(-32.000000) translate(-19.847603, -18.849599) "></path>
                            <ellipse id="Oval-18" fill="#FFD7B3" transform="translate(28.353548, 21.222804) rotate(-54.000000) translate(-28.353548, -21.222804) " cx="28.3535478" cy="21.2228036" rx="1.87219559" ry="2.85939671"></ellipse>
                        </g>
                    </g>
                    <g id="Group-40" transform="translate(713.000000, 343.000000)">
                        <g id="Group-39" transform="translate(19.887568, 0.000000)">
                            <path d="M14.5674693,204.781925 C7.95918438,206.585181 4.63067332,207.783426 4.58193615,208.376661 C4.53319898,208.969897 4.55756757,209.685276 4.65504191,210.522799 L20.9048469,210.522799 L20.3267765,204.781925 L14.5674693,204.781925 Z" id="Path-256" fill="#0B4651"></path>
                            <path d="M39.4269288,204.781925 C34.287668,206.677091 31.6936691,207.921292 31.6449319,208.514527 C31.5961947,209.107763 31.6205633,209.823142 31.7180376,210.660665 L45.7643064,210.522799 L45.186236,204.781925 L39.4269288,204.781925 Z" id="Path-256-Copy" fill="#0B4651"></path>
                            <path d="M13.864294,108.008714 L13.864294,205.055374 L20.273108,206.136889 C26.0975451,152.946315 29.9847011,126.351028 31.9345759,126.351028 C34.4824197,126.351028 36.5753265,185.343899 38.1242416,205.055374 C39.9113505,206.250409 42.2967215,206.610913 45.2803547,206.136889 L50.0048579,112.206515 C43.4408954,103.609001 38.6376217,99.133543 35.5950366,98.7801405 C32.5524514,98.426738 25.3088706,101.502929 13.864294,108.008714 Z" id="Path-254" fill="url(#linearGradient-22)"></path>
                            <path d="M20.1230437,10.4129118 C17.7704699,16.5905352 16.8882548,19.799284 17.4763982,20.0391582 C18.0645417,20.2790324 18.3586134,21.0561841 18.3586134,22.3706133 L18.3586134,31.2206838 L25.9416278,32.8181772 L25.9416278,42.1903462 L37.1691638,42.1903462 L34.2729203,27.1022346 L27.1645003,11.6307815 L20.1230437,10.4129118 Z" id="Path-252" fill="#FFD7B3"></path>
                            <path d="M30.0402748,0.402927808 C38.2231785,2.93949953 42.1474334,6.11145247 41.8130395,9.91878664 C41.3114488,15.6297879 45.0486827,14.551545 42.8526054,19.4439785 C40.6565281,24.3364121 36.5976378,32.7649527 32.6202948,31.8974159 C28.6429517,31.029879 24.8791963,23.1020512 27.0069857,20.0181681 C30.571711,14.8516809 26.7439292,13.9855736 25.7761177,16.6885581 C24.8083062,19.3915425 24.1100587,29.0978833 22.6956458,31.3412944 C21.7527038,32.8369017 20.1609159,32.7269508 17.9202819,31.0114415 C17.1677705,24.4187596 17.4125387,20.9099771 18.6545865,20.4850942 C20.5176583,19.8477699 22.644078,23.1643375 23.2594097,20.6914578 C23.6696308,19.0428714 23.9561452,15.9920683 24.1189529,11.5390485 C18.6040646,9.07789737 17.4357934,6.43972793 20.6141393,3.62454018 C23.7924852,0.809352434 26.9345303,-0.264518357 30.0402748,0.402927808 Z" id="Path-251" fill="#0B4651"></path>
                            <path d="M2.68292941,108.19046 C0.834269741,110.420321 0.114438073,112.37614 0.523434399,114.057916 C1.13692889,116.580579 1.19924141,118.096259 2.68292941,118.096259 C3.67205473,118.096259 5.33870232,118.277073 7.68287217,118.638701 L9.3050663,115.791638 L8.73003,111.208707 L2.68292941,108.19046 Z" id="Path-89" fill="#FFD7B3"></path>
                            <path d="M15.492871,40.6537107 C27.0507967,33.0988119 37.8766076,36.943024 44.5837224,35.7629212 C60.8755736,32.896404 38.5473099,25.5273143 37.8766076,22.8442386 C36.7045607,18.1555849 38.4427455,15.4539874 41.7160438,15.9834239 C43.7858065,16.3181957 49.3761177,20.114948 58.4869775,27.3736807 C62.7788504,32.3976163 63.872361,36.2124842 61.7675092,38.8182843 C58.6102315,42.7269846 54.9334149,47.2782894 46.4724031,53.1079539 C47.5705363,57.0184453 49.3209112,77.6067613 51.7235277,114.872902 C46.2220514,115.785673 41.6064114,116.277205 37.8766076,116.347497 C37.6191663,116.352348 36.8885845,111.947586 35.6848623,103.133209 C35.4728135,111.944808 35.2777597,116.34957 35.0997009,116.347497 C30.9254226,116.298884 23.5310072,115.807352 12.9164549,114.872902 C13.8140346,104.55629 13.8140346,101.127017 12.9164549,104.585082 C12.0188751,108.043146 10.5998516,110.535073 8.65938413,112.06086 L2.86364589,110.197518 C2.11738745,109.957591 1.68126107,109.183979 1.86229072,108.421289 C5.41926986,93.4355108 7.36985905,83.8435796 7.71405827,79.6454955 C9.44079879,58.5850127 8.65938413,47.1285086 15.492871,40.6537107 Z" id="Path-253" fill="#0B4651"></path>
                        </g>
                        <path d="M32.492218,104.18948 C32.492218,104.18948 35.072578,96.0969506 40.2332978,79.9118914 L42.2389412,64.1701796" id="Path-87" stroke="#EDF5F4" stroke-width="0.819819"></path>
                        <path d="M13.7317082,115.018657 L48.3239872,125.158857 C51.4989734,126.089556 53.4699612,129.254756 52.9044873,132.514661 L48.1742896,159.783812 C48.0752748,160.354623 47.6567055,160.817548 47.0987176,160.973363 L41.0806253,162.653881 L6.23739784,148.948448 L4.035857,118.055332 L4.035857,118.055332 C6.35713496,115.17668 10.1830627,113.978426 13.7317082,115.018657 Z" id="Path-88-Copy" fill="#0B4651"></path>
                        <path d="M4.8599453,117.267767 L45.5118026,128.670936 C46.7454004,129.01697 47.5183991,130.238825 47.3026985,131.501749 L42.2666616,160.98767 C42.033977,162.350035 40.7409341,163.265822 39.3785693,163.033137 C39.2816543,163.016585 39.1857991,162.994335 39.091502,162.966504 L0.022532971,151.435678 L4.8599453,117.267767 Z" id="Path-88" fill="#176878"></path>
                        <path d="M17.84267,117.605208 C19.074447,115.530266 20.0157174,114.492795 20.6664812,114.492795" id="Path-90" stroke="#0B4651" stroke-width="2.5025"></path>
                        <path d="M27.7612461,115.538141 C31.1422148,116.962952 32.8326991,119.215268 32.8326991,122.29509" id="Path-91" stroke="#0B4651" stroke-width="2.5025"></path>
                    </g>
                    <g id="girl" transform="translate(680.000000, 348.000000)">
                        <path d="M31.4645669,139.496461 L31.4645669,202.38831 C33.8395037,203.448367 35.2358866,203.108511 35.6537157,201.368743 C42.7487281,171.826344 42.4528427,146.209762 42.17597,137.305009 L31.4645669,139.496461 Z" id="Path-138" fill="#FFD7B3"></path>
                        <path d="M21.4954967,199.678206 C22.6354251,199.318387 25.3702605,200.331999 25.4736518,202.559496 C25.5768045,204.788183 26.1838133,207.127193 22.7289054,206.994615 C20.8838202,206.923893 11.8547321,206.413954 10.6725683,206.413954 C9.49040453,206.413954 8.7293004,204.906964 10.0478197,203.458353 C11.3668979,202.010441 18.4321571,200.904868 18.4321571,200.904868 C18.4321571,200.904868 20.85654,199.879613 21.4954967,199.678206 Z" id="Shape" fill="#07494F" fill-rule="nonzero"></path>
                        <path d="M32.1254179,199.678206 C33.2653464,199.318387 36.0001818,200.331999 36.1035731,202.559496 C36.2067257,204.788183 36.8137345,207.127193 33.3588267,206.994615 C31.5137415,206.923893 22.4846534,206.413954 21.3024896,206.413954 C20.1203258,206.413954 19.3592217,204.906964 20.677741,203.458353 C21.9968191,202.010441 29.0620784,200.904868 29.0620784,200.904868 C29.0620784,200.904868 31.4864612,199.879613 32.1254179,199.678206 Z" id="Shape-Copy" fill="#07494F" fill-rule="nonzero"></path>
                        <path d="M19.6566624,135.625139 C16.7073557,164.861109 15.0331167,186.496484 14.6339454,200.531264 C15.2006665,202.462658 16.2436573,203.021837 17.7629179,202.208801 C26.8181729,165.630676 31.2065322,142.483981 30.9279958,132.768716 C30.6494595,123.053451 26.8923483,124.005592 19.6566624,135.625139 Z" id="Path-138-Copy" fill="#FFD7B3" transform="translate(22.787205, 164.351363) rotate(-11.000000) translate(-22.787205, -164.351363) "></path>
                        <path d="M11.7761335,101.250003 L11.7020538,144.06502 C16.9360482,149.165515 24.5459699,151.070581 34.5318188,149.780218 C44.5176677,148.489856 49.4199795,146.58479 49.2387541,144.06502 L45.1462167,96.3863013 L11.7761335,101.250003 Z" id="Path-136" fill="#0B4651"></path>
                        <path d="M21.9041541,3.47442998 C15.3070866,16.3833447 13.6578197,24.0316961 16.9563535,26.4194843 C21.9041541,30.0011665 28.8123794,26.2855448 30.9109472,23.3388959 C32.3099923,21.3744632 34.1193394,16.115247 36.3389886,7.56124712 L25.8230376,3.47442998 L21.9041541,3.47442998 Z" id="Path-133" fill="#FFD7B3"></path>
                        <path d="M18.0726242,34.7442998 L11.1188671,106.813788 C24.9854942,112.776849 36.8712654,111.705483 46.7761809,103.599688 L41.8886857,36.4812245 L18.0726242,34.7442998 Z" id="Path-135" fill="#7DD977"></path>
                        <path d="M5.27819549,52.5929714 C5.27819549,52.0821133 6.18684232,45.5272187 8.58316274,43.7260305 C10.1892447,42.5188231 13.5279629,41.8814796 18.5993175,41.814 L12.9602719,56.2597078 C7.83888763,54.1557889 5.27819549,52.9335435 5.27819549,52.5929714 Z" id="Path-86" fill="#FFD7B3"></path>
                        <path d="M22.1093897,36.5219227 C20.2939521,57.5271293 18.2571807,70.5020684 15.9990755,75.4467399 C13.2782359,81.404681 5.06881713,82.8781495 3.1357591,82.1557025 C-1.20375197,80.5338853 -0.629236755,70.6070544 4.85930475,52.3752096 C7.72021635,52.9450235 9.29821816,53.1896226 9.5933102,53.1090068 C10.015524,52.9936628 9.85692159,48.2735651 14.6084368,40.2798591 C16.595818,36.9363908 19.0961356,35.6837453 22.1093897,36.5219227 Z" id="Path-137" fill="#7DD977"></path>
                        <path d="M34.261998,7.38662721 C38.3347651,5.48650547 42.9197751,-2.84845737 48.8933605,1.00531068 C57.4494636,6.52329594 53.5335649,14.6927291 48.7248722,16.5244584 C43.9161796,18.3561876 54.7596425,28.372411 52.5964087,34.1292743 C50.4322065,39.8871289 43.3092216,37.7590322 45.8297667,43.5892441 C54.9552438,64.7046815 27.0663889,68.1290689 18.5451454,54.4674216 C9.64916086,40.2041185 24.6678525,35.4275475 24.9970824,29.5448023 C25.3350272,23.5183337 18.2962864,21.709402 22.6740752,12.6855583 C25.5325651,6.79190992 30.189231,9.28575776 34.261998,7.38662721 Z" id="Shape" fill="#0B4651" fill-rule="nonzero" transform="translate(34.832754, 31.310924) scale(-1, 1) translate(-34.832754, -31.310924) "></path>
                        <path d="M20.8105418,63.0892041 C19.4192323,69.9841722 16.8760858,74.6596441 13.1811024,77.1156197" id="Path-139" stroke="#0B4651" stroke-width="0.819819"></path>
                        <path d="M9.57035856,53.105251 L5.66307122,70.9417348" id="Path-85" stroke="#0B4651" stroke-width="0.819819"></path>
                    </g>
                </g>
            </g>
        </g>
    </g>
</svg>