<?xml version="1.0" encoding="UTF-8"?>
<svg width="580px" height="408px" viewBox="0 0 580 408" version="1.1" xmlns="http://www.w3.org/2000/svg" xmlns:xlink="http://www.w3.org/1999/xlink">
    <!-- Generator: sketchtool 49 (51002) - http://www.bohemiancoding.com/sketch -->
    <title>50A4CC0E-2729-454B-B7D1-3848DC0AC1BF</title>
    <desc>Created with sketchtool.</desc>
    <defs>
        <linearGradient x1="29.9582203%" y1="-15.6887091%" x2="69.8719851%" y2="100%" id="linearGradient-1">
            <stop stop-color="#7ECC79" offset="0%"></stop>
            <stop stop-color="#1FAD9D" offset="100%"></stop>
        </linearGradient>
        <linearGradient x1="16.8351746%" y1="64.8970802%" x2="36.951965%" y2="54.4154253%" id="linearGradient-2">
            <stop stop-color="#30B397" offset="0%"></stop>
            <stop stop-color="#119282" offset="100%"></stop>
        </linearGradient>
        <linearGradient x1="8.4978621%" y1="9.81526443%" x2="91.1505305%" y2="80.5872471%" id="linearGradient-3">
            <stop stop-color="#7ECC79" offset="0%"></stop>
            <stop stop-color="#1FAD9D" offset="100%"></stop>
        </linearGradient>
        <linearGradient x1="50.9791004%" y1="-28.1753217%" x2="49.1614217%" y2="90.7128411%" id="linearGradient-4">
            <stop stop-color="#52A24C" offset="0%"></stop>
            <stop stop-color="#249F91" offset="100%"></stop>
        </linearGradient>
        <linearGradient x1="57.6964029%" y1="42.6126129%" x2="43.3336469%" y2="53.9058877%" id="linearGradient-5">
            <stop stop-color="#5AB155" offset="0%"></stop>
            <stop stop-color="#14AD9B" offset="100%"></stop>
        </linearGradient>
        <linearGradient x1="57.6964029%" y1="18.9776095%" x2="43.1413235%" y2="67.0373139%" id="linearGradient-6">
            <stop stop-color="#7ECC79" offset="0%"></stop>
            <stop stop-color="#33BAAA" offset="100%"></stop>
        </linearGradient>
        <linearGradient x1="57.6964029%" y1="-21.2820738%" x2="43.6920997%" y2="84.9689414%" id="linearGradient-7">
            <stop stop-color="#77BD72" offset="0%"></stop>
            <stop stop-color="#2CA495" offset="100%"></stop>
        </linearGradient>
        <linearGradient x1="57.6964029%" y1="-21.2820738%" x2="43.4125488%" y2="87.0899012%" id="linearGradient-8">
            <stop stop-color="#BAFFB5" offset="0%"></stop>
            <stop stop-color="#3CD8C5" offset="100%"></stop>
        </linearGradient>
        <linearGradient x1="57.6964029%" y1="-1.03769483%" x2="43.1413235%" y2="78.029601%" id="linearGradient-9">
            <stop stop-color="#7ECC79" offset="0%"></stop>
            <stop stop-color="#33BAAA" offset="100%"></stop>
        </linearGradient>
        <linearGradient x1="50.9791004%" y1="-28.1753217%" x2="49.1274713%" y2="92.9334256%" id="linearGradient-10">
            <stop stop-color="#7ECC79" offset="0%"></stop>
            <stop stop-color="#33BAAA" offset="100%"></stop>
        </linearGradient>
        <linearGradient x1="27.681992%" y1="89.8679795%" x2="71.473931%" y2="27.1625827%" id="linearGradient-11">
            <stop stop-color="#16C89A" stop-opacity="0.64305933" offset="0%"></stop>
            <stop stop-color="#4EFFB9" stop-opacity="0.291440217" offset="100%"></stop>
        </linearGradient>
        <linearGradient x1="35.1293102%" y1="0%" x2="50%" y2="100%" id="linearGradient-12">
            <stop stop-color="#5CC2B9" offset="0%"></stop>
            <stop stop-color="#2F8F83" stop-opacity="0.0606317935" offset="100%"></stop>
        </linearGradient>
    </defs>
    <g id="Home" stroke="none" stroke-width="1" fill="none" fill-rule="evenodd">
        <g id="Home---Approach" transform="translate(-799.000000, -1814.000000)">
            <g id="Led-by-Proven-Managers@3x" transform="translate(800.000000, 1815.000000)">
                <g id="Group-51" transform="translate(101.271685, 43.511677)">
                    <path d="M297.12979,154.768723 C295.785667,169.34244 293.943628,178.762164 291.603675,183.027895 C288.622829,188.461971 282.815295,206.282704 277.964135,212.745514 C276.663944,216.071618 275.940239,217.845175 275.793021,218.066184 L294.849275,218.066184 C292.708982,215.070471 289.59714,213.296914 285.513749,212.745514 C287.443878,209.501599 298.369395,189.858668 299.829083,185.484754 C301.288772,181.110839 309.870445,161.074611 309.336135,156.868188 C305.497179,154.878771 301.428397,154.17895 297.12979,154.768723 Z" id="Path-312" fill="#FFD7B3" fill-rule="nonzero"></path>
                    <path d="M277.964135,212.745514 C276.663944,216.071618 275.940239,217.845175 275.793021,218.066184 L294.849275,218.066184 C292.708982,215.070471 289.59714,213.296914 285.513749,212.745514 L277.964135,212.745514 Z" id="Path-312-Copy" fill="#0B4651" fill-rule="nonzero"></path>
                    <g id="Group-43" transform="translate(0.000000, 217.936132)">
                        <polygon id="Path-321" fill="#D6F1EE" fill-rule="nonzero" opacity="0.699999988" points="0.150251724 127.496285 0.150251724 91.0688283 74.8209247 91.0688283 74.8209247 109.466395 94.0994554 109.466395 94.0994554 57.5641408 197.250494 57.5641408 197.250494 108.804642 264.178675 108.804642 264.178675 128.306193"></polygon>
                        <ellipse id="Oval-21" stroke="#0B4651" stroke-width="0.9025" stroke-linecap="round" stroke-linejoin="round" cx="185.66785" cy="142.037321" rx="9.02325581" ry="2.70892185"></ellipse>
                        <ellipse id="Oval-21-Copy" stroke="#0B4651" stroke-width="0.9025" stroke-linecap="round" stroke-linejoin="round" cx="207.323664" cy="135.265016" rx="4.51162791" ry="1.35446092"></ellipse>
                        <polygon id="Path-274" fill="#7ECC79" fill-rule="nonzero" points="246.842787 129.044112 246.842787 0.105953777 363.354818 0.105953777 363.354818 28.7091982 392.649264 28.7091982 392.649264 62.2723798 421.230028 62.2723798 421.230028 95.9743929 448.680295 95.9743929 448.680295 129.044112"></polygon>
                        <polygon id="Path-274-Copy" fill="#0B4651" fill-rule="nonzero" points="235.42864 129.044112 235.42864 0.105953777 330.64646 0.105953777 330.64646 129.044112"></polygon>
                        <path d="M355.978968,0.105953777 L352.343925,26.0757327 C350.294573,40.7168809 337.770637,51.6099066 322.986759,51.6099066 L235.42864,51.6099066 L235.42864,0.105953777 L355.978968,0.105953777 Z" id="Combined-Shape" fill="#0B4651" fill-rule="nonzero" opacity="0.200000003"></path>
                    </g>
                    <g id="Group-49" transform="translate(328.683470, 0.000000)">
                        <path d="M0.0925233211,59.2172177 L16.5984821,54.1944633 C20.8161177,41.1128083 24.1096297,33.4034242 26.4790181,31.0663111 C28.5819535,28.9920214 32.3182223,27.6122338 37.6878246,26.9269484 L30.1666623,36.2590269 L22.0608891,60.4867658 L0.0925233211,69.0797132 L0.0925233211,59.2172177 Z" id="Path-308" fill="#FFD7B3" fill-rule="nonzero"></path>
                        <path d="M77.1413561,236.263151 L84.83674,274.964827 C79.7627343,275.659725 76.2903583,276.504317 74.4196121,277.498603 C72.5488658,278.492889 71.3633448,279.532826 70.863049,280.618413 L90.9939725,280.618413 L88.4853245,246.301601 L77.1413561,236.263151 Z" id="Path-301" fill="#FFD7B3" fill-rule="nonzero"></path>
                        <path d="M84.83674,274.964827 C79.7627343,275.659725 76.2903583,276.504317 74.4196121,277.498603 C72.5488658,278.492889 71.3633448,279.532826 70.863049,280.618413 L90.9939725,280.618413 L90.4652222,274.964827 L84.83674,274.964827 Z" id="Path-301-Copy" fill="#0B4651" fill-rule="nonzero"></path>
                        <path d="M103.114372,253.701289 L119.502128,299.924141 C119.115624,304.632437 118.370458,307.903228 117.266629,309.736514 C114.257719,311.081739 112.320897,312.514583 111.456164,314.035047 L121.252009,314.035047 L126.483072,300.804071 L117.266629,253.701289 L103.114372,253.701289 Z" id="Path-302" fill="#FFD7B3" fill-rule="nonzero"></path>
                        <path d="M119.502128,299.924141 C119.309391,304.216834 118.661109,307.279824 117.55728,309.11311 C114.54837,310.458335 112.514665,312.098981 111.456164,314.035047 L121.252009,314.035047 L127.7804,299.924141 L125.33829,294.47438 C124.421889,296.549868 123.612037,297.899008 122.908734,298.5218 C122.20543,299.144591 121.069895,299.612038 119.502128,299.924141 Z" id="Path-302-Copy" fill="#0B4651" fill-rule="nonzero"></path>
                        <path d="M103.372964,194.084658 C91.1331708,198.964855 82.0261146,206.84829 76.0517952,217.734963 C73.6805171,222.056013 74.1881107,230.540389 77.5745759,243.188091 C85.886493,247.121288 92.411174,250.126211 97.1486189,252.20286 C101.886064,254.27951 108.746985,255.085479 117.731383,254.620767 C117.731383,244.739338 117.731383,236.030458 117.731383,228.494128 C117.731383,217.189632 122.266668,217.335472 122.266668,198.097683 L103.372964,194.084658 Z" id="Path-300" fill="#0B4651" fill-rule="nonzero"></path>
                        <polygon id="Path-297" fill="#7ECC79" fill-rule="nonzero" points="128.632334 134.284067 134.685228 91.1180148 130.383727 94.7668781 117.880047 132.527987"></polygon>
                        <rect id="Rectangle-53" fill="url(#linearGradient-1)" fill-rule="nonzero" transform="translate(78.849999, 66.194115) rotate(31.000000) translate(-78.849999, -66.194115) " x="19.6927497" y="25.0847389" width="118.314499" height="82.2187512" rx="5.76398592"></rect>
                        <path d="M55.8064312,4.38857172 L43.4220093,92.8664014 L11.9101456,73.9321634 C9.18147221,72.292611 8.29856519,68.7514644 9.93811758,66.022791 L46.3465605,5.42896641 C47.9861129,2.70029301 51.5272596,1.81738598 54.255933,3.45693837 L55.8064312,4.38857172 Z" id="Combined-Shape" fill="#0B4651" fill-rule="nonzero" opacity="0.100000001"></path>
                        <polygon id="Rectangle-54" fill="#FFFFFF" fill-rule="nonzero" transform="translate(78.080898, 64.950599) rotate(-150.000000) translate(-78.080898, -64.950599) " points="68.8742245 53.7232635 87.2875713 64.9505995 68.8742245 76.1779355"></polygon>
                        <path d="M63.5181893,105.394716 L97.2835252,119.033125 C99.8120085,120.054423 102.71022,119.164065 104.229207,116.899345 C105.074153,115.63958 105.496627,114.600759 105.496627,113.782883 C105.496627,111.51187 106.612206,104.799012 114.36626,105.394716 C117.007195,105.597605 125.60497,99.5252977 130.044724,94.2270549 C131.229137,92.8136181 129.397923,89.0249775 130.698794,87.8933547 C130.835375,87.7745437 131.290624,90.8757725 132.380968,89.9062038 C134.415039,88.0974434 137.001013,81.8885953 137.433717,83.2356761 C137.5896,83.7209655 135.90535,86.7305937 132.380968,92.2645605 L114.973068,120.596278 L106.251706,130.765744 L63.5181893,105.394716 Z" id="Path-299" fill="#0B4651" fill-rule="nonzero" opacity="0.200000003"></path>
                        <path d="M81.2916108,117.392842 L78.9195222,111.65229 L78.5885341,110.556667 C78.3300075,109.700903 77.5415301,109.11543 76.6475679,109.11543 L77.0167692,112.799649 L71.2156405,109.529236 C70.5203166,111.204645 70.9458682,112.730004 72.4922954,114.105313 C74.0387225,115.480623 75.7474618,117.281375 77.6185132,119.507569 L81.2916108,117.392842 Z" id="Path-295" fill="#FFD7B3" fill-rule="nonzero"></path>
                        <path d="M104.014586,117.078109 C100.047416,124.402087 99.5401815,130.62293 102.492883,135.740638 C104.615838,139.420207 110.527561,140.461921 114.369015,142.446232 C116.706029,143.653422 117.799952,146.627303 118.186584,146.65859 C119.071044,146.730162 125.58546,146.970811 125.868509,142.22041 C125.927275,141.234149 122.069709,137.315883 114.295813,130.465612 L104.014586,117.078109 Z" id="Path-173" fill="#0B4651" fill-rule="nonzero" transform="translate(113.236091, 131.881475) rotate(30.000000) translate(-113.236091, -131.881475) "></path>
                        <polygon id="Path-292" fill="#FFD7B3" fill-rule="nonzero" transform="translate(114.872856, 142.323092) rotate(-28.000000) translate(-114.872856, -142.323092) " points="113.193594 133.788353 110.541241 145.176465 119.204472 151.951106 117.759705 132.695078"></polygon>
                        <path d="M116.21856,144.2105 L97.0678125,144.719007 C95.9471791,144.748763 94.9109727,144.12599 94.4113631,143.122449 L81.5683918,117.325404 C80.990991,116.165608 79.5827141,115.693482 78.4229175,116.270883 C78.4201404,116.272266 78.4173662,116.273654 78.4145947,116.275047 C77.1966925,116.887417 76.592227,118.284155 76.9794726,119.591183 L85.1670506,147.225838 C86.6856737,152.351484 90.8468105,156.262184 96.0567406,157.460137 L104.913752,159.496686 C103.296506,164.888354 102.512078,168.722476 102.560467,170.99905 C102.661654,175.759635 103.098672,175.926783 103.40904,178.979072 C103.947619,184.275677 103.296044,189.652899 101.454315,195.110737 C112.417953,198.706591 119.146351,199.874973 121.639509,198.615883 C124.132666,197.356793 126.282068,184.177965 128.087714,159.079398 L124.656287,144.2105 L116.21856,144.2105 Z" id="Path-291" fill="#7ECC79" fill-rule="nonzero"></path>
                        <path d="M102.610387,169.545059 C107.085196,166.17659 109.829451,164.050447 110.843151,163.166631 C112.200873,161.982872 112.653173,161.786354 112.008738,161.626237 C110.642582,161.286802 108.320004,160.520965 105.041004,159.328726 C104.281631,161.780654 103.746909,163.644084 103.436839,164.919017 C103.126768,166.193949 102.851284,167.735963 102.610387,169.545059 Z" id="Path-294" fill="#0B4651" fill-rule="nonzero" opacity="0.200000003"></path>
                        <g id="Group-24" transform="translate(113.832166, 130.319748) rotate(22.000000) translate(-113.832166, -130.319748) translate(103.832166, 120.319748)" fill-rule="nonzero">
                            <path d="M1.1294159,1.95090666 C1.1627274,13.6841701 3.6279791,19.5508018 8.525171,19.5508018 C15.8709588,19.5508018 19.7754264,12.1594443 19.8523617,5.72576081 C19.9036519,1.43663849 13.66267,0.178353776 1.1294159,1.95090666 Z" id="Path-171" fill="#0B4651" opacity="0.200000003"></path>
                            <path d="M0.337041779,1.1418779 C-0.407856624,12.742394 1.66829012,18.542652 6.56548202,18.542652 C13.9112699,18.542652 16.8641418,11.2050575 16.9410771,4.77137402 C16.9923673,0.48225171 11.4576889,-0.727580331 0.337041779,1.1418779 Z" id="Path-171-Copy" fill="#FFD7B3"></path>
                        </g>
                        <path d="M102.410646,125.932695 C105.44378,128.359825 108.53717,128.870866 111.690814,127.465818 C114.465686,128.76839 111.70847,134.762112 112.577817,138.738419 C113.580839,143.326146 119.584017,144.030643 120.511699,145.360247 C131.592144,140.26337 138.131788,157.025547 139.487784,159.689875 C140.769331,160.360264 149.258395,146.9083 132.057552,135.599696 C129.990693,134.24085 133.875934,129.802639 131.33633,125.191809 C128.579804,120.18714 124.932189,122.158431 122.549649,118.618511 C119.217775,113.668092 114.516414,108.540934 106.01261,112.323551 C98.7994483,115.53207 97.5987937,120.068452 102.410646,125.932695 Z" id="Path-172" fill="#0B4651" fill-rule="nonzero" transform="translate(121.115792, 135.363966) rotate(24.000000) translate(-121.115792, -135.363966) "></path>
                        <path d="M105.007112,159.363229 C110.958557,161.059145 114.641379,162.124425 116.055577,162.559066 C117.469776,162.993708 113.786954,161.928429 105.007112,159.363229 Z" id="Path-293" stroke="#0B4651" stroke-width="0.82342656" stroke-linecap="round" stroke-linejoin="round"></path>
                        <path d="M130.787678,95.0013478 C131.278297,94.0694235 131.498286,93.3840554 131.447643,92.9452432 C131.058683,89.5749533 130.209917,87.7280339 130.787678,87.6142111 C131.478276,87.4781588 132.267673,88.4679696 133.155871,90.5836437 L137.772431,83.0973801 C137.791428,85.2440368 137.646907,86.7496471 137.33887,87.6142111 C136.446302,90.1193675 134.234272,94.4749636 133.729753,95.0013478 C132.964058,95.8002256 131.983367,95.8002256 130.787678,95.0013478 Z" id="Path-298" fill="#FFD7B3" fill-rule="nonzero"></path>
                    </g>
                    <g id="Group-50" transform="translate(295.407518, 21.844410)" fill-rule="nonzero">
                        <path d="M20.5444001,123.799843 C25.4726588,137.294947 28.6495573,148.057459 30.0750958,156.08738 C28.5979813,163.393123 32.5511083,186.420714 31.057859,195.55943 C30.9854202,196.002757 33.0113122,196.002757 37.1355349,195.55943 C46.0484038,195.901618 50.5048382,195.901618 50.5048382,195.55943 C50.5048382,189.99361 37.3373877,190.910527 37.3770098,189.99361 C38.3109523,168.380711 38.7779235,156.489524 38.7779235,154.32005 C38.7779235,151.557424 37.0691378,141.384021 33.6515663,123.799843 L20.5444001,123.799843 Z" id="Path-311" fill="#FFD7B3"></path>
                        <path d="M31.3996997,190.500641 C31.3871186,192.440936 31.2861221,194.162455 31.057859,195.55943 C30.9492008,196.22442 50.5048382,196.072712 50.5048382,195.55943 C50.5048382,189.99361 37.3373877,190.910527 37.3770098,189.99361 L31.3996997,190.500641 Z" id="Path-311-Copy" fill="#0B4651"></path>
                        <path d="M2.8087974,111.605295 C2.75656741,112.857541 2.68445732,114.003527 2.59246714,115.043252 C2.16680554,119.854322 1.37138283,127.285545 0.206199014,137.336922 C0.92626843,138.844703 2.45618534,140.058455 4.79594976,140.978177 C7.13571417,141.897899 9.89193205,142.121882 13.0646034,141.650125 L17.8857428,129.679813 C7.9607467,114.601994 2.93509824,108.577154 2.8087974,111.605295 Z" id="Path-310" fill="url(#linearGradient-2)"></path>
                        <path d="M4.98243449,98.1127223 C2.38854353,103.63144 1.4651262,108.206989 2.21218251,111.839371 C2.95923883,115.471752 8.29957852,122.394361 18.2332016,132.607198 L22.6218185,141.650125 C26.19123,141.161112 28.6568634,140.756572 30.0187187,140.436505 C31.380574,140.116438 33.5768491,138.871765 36.607544,136.702484 L29.3624115,97.3538667 L4.98243449,98.1127223 Z" id="Path-310-Copy" fill="url(#linearGradient-3)"></path>
                        <polygon id="Path-307" fill="#0B4651" points="20.1497667 37.6024284 35.3069932 36.195641 37.9784006 45.5686801 29.0640837 48.1102891"></polygon>
                        <path d="M43.0456891,8.83347267 C42.0933176,21.1962463 40.3428052,28.4485335 37.7941518,30.5903342 C35.2454984,32.7321349 30.9644172,33.3052212 24.9509081,32.3095931 L26.4196286,40.3408974 L20.3563338,43.2639802 L14.7129298,35.586853 L24.9509081,6.32553941 L43.0456891,8.83347267 Z" id="Path-304" fill="#FFD7B3"></path>
                        <path d="M18.8754347,26.3408572 C24.3653535,26.3408572 27.7196895,24.7890374 28.9384425,21.6853976 C30.7665721,17.0299379 29.3158302,15.2041664 30.9671794,13.5502006 C32.6185286,11.8962349 32.8731933,18.8906757 35.6764765,18.9531813 C39.1074362,19.0296824 40.5451491,16.7230058 43.4356652,13.8282142 C45.362676,11.8983532 46.3856669,8.76714573 46.5046379,4.43459189 C36.1150158,4.16035185 28.5177077,2.68215456 23.7127137,0 C16.6212765,1.5086183 13.5067289,6.088047 12.9977325,11.5627846 C12.4382409,17.5806448 14.397475,22.506669 18.8754347,26.3408572 Z" id="Path-303" fill="#0B4651"></path>
                        <path d="M38.2222387,60.5073875 L55.7293733,70.70014 C68.4699562,72.0878666 76.7153404,73.5145364 80.4655259,74.9801495 C84.2157115,76.4457625 88.0000166,76.9783577 91.8184412,76.577935 L85.1220418,72.6058883 L89.5313819,69.464712 C88.1520395,68.988477 86.6482898,69.0182836 85.2889029,69.5488043 L82.3387623,70.70014 L58.3405818,63.3830101 L43.3285993,52.4116123 L38.2222387,60.5073875 Z" id="Path-306" fill="#FFD7B3"></path>
                        <path d="M13.63345,34.7904668 C22.4522815,35.7752821 29.1047193,38.0480204 33.5907632,41.6086816 C38.0768071,45.1693428 42.6814378,49.2581539 47.4046553,53.875115 L39.7758113,63.5004893 L27.4690002,58.8883096 C29.6655112,81.3858756 30.7637668,96.1285664 30.7637668,103.116382 C25.1867897,106.740791 15.7128443,106.167519 2.34193077,101.396566 C2.21210174,77.2139764 2.98498396,60.7007663 4.66057744,51.8569354 C6.33617092,43.0131045 9.32712845,37.3242817 13.63345,34.7904668 Z" id="Path-305" fill="#0B4651"></path>
                        <path d="M61.1872337,11.4417359 L67.3744809,9.31011153 C66.8774102,10.6868697 65.8703753,11.8200226 64.5615263,12.475352 C60.8976843,14.3097996 59.2979961,14.9888983 59.7624591,14.5126428 C60.3057327,13.9555758 60.7806576,12.9319401 61.1872337,11.4417359 Z" id="Path-309" fill="#FFD7B3"></path>
                    </g>
                </g>
                <g id="Group-47" transform="translate(30.643093, 104.915547)">
                    <path d="M17.1951245,249.279568 C15.7984991,254.802573 15.7984991,257.704954 17.1951245,257.986713 C18.5917499,258.268472 25.5345715,258.409351 38.0235893,258.409351 C41.1953905,256.511734 42.3395358,255.194198 41.4560254,254.456743 C40.572515,253.719288 35.7823807,251.993563 27.0856224,249.279568 L17.1951245,249.279568 Z" id="Path-290-Copy" fill="url(#linearGradient-4)" fill-rule="nonzero"></path>
                    <path d="M11.9583851,89.6141585 C7.05514002,91.9800168 3.6035586,95.2085037 1.60364079,99.2996193 C-0.323938203,103.242756 1.48348024,117.8275 4.59961006,125.272107 C5.75551136,128.033619 8.52497175,128.033619 12.9079912,125.272107 L9.65897563,87.9864145" id="Path-286" fill="url(#linearGradient-5)" fill-rule="nonzero"></path>
                    <polygon id="Path-285" fill="#0B4651" fill-rule="nonzero" points="9.19879215 152.845665 7.29151045 249.496032 28.5675566 250.45422 44.7768089 152.845665"></polygon>
                    <rect id="Rectangle-49" fill="#0B4651" fill-rule="nonzero" transform="translate(102.100279, 37.173269) rotate(-2.000000) translate(-102.100279, -37.173269) " x="53.825518" y="1.68204839" width="96.549523" height="70.9824412" rx="5.0528448"></rect>
                    <g id="Group-46" transform="translate(0.000000, 41.378390)">
                        <path d="M33.9573712,56.106406 L29.7469334,41.1403842 L31.5017,38.7875826 C34.6752232,34.5325036 34.7666623,28.7231774 31.7286282,24.3703283 L24.7585658,14.3837283 L16.121722,17.5956236 C11.3215985,25.2763335 9.11164946,29.3281954 9.49187492,29.7512093 C9.87210037,30.1742233 13.8150807,34.3950245 21.3208158,42.4136131 L21.3208158,56.106406 L33.9573712,56.106406 Z" id="Path-276" fill="#FFD7B3" fill-rule="nonzero"></path>
                        <path d="M14.7236021,28.8359241 C16.2027788,23.7930145 17.5433722,19.724653 18.7453825,16.6308398 C20.1828082,16.3927474 22.496293,15.9000678 23.6042592,15.4986359 C25.7329929,14.7273654 27.9934784,14.0033811 30.3857158,13.3266829 C32.3594888,11.25402 32.7572064,9.42300888 31.5788684,7.83364941 C30.4005304,6.24428995 29.3134595,6.24428995 28.3176554,7.83364941 C27.6355774,1.60921219 23.1042263,-0.801074108 14.7236021,0.602790509 C2.15266597,2.70858743 6.50119167,18.3517201 5.32934885,18.5852264 C4.15750603,18.8187327 -1.02656076,25.8398913 0.345782882,31.4692252 C1.59976804,36.6130542 9.68810016,42.387283 17.3719718,40.7519465 C22.9036958,39.6421813 24.6964952,37.1609711 22.75037,33.3083158 L14.7236021,28.8359241 Z" id="Path-278" fill="#0B4651" fill-rule="nonzero"></path>
                        <path d="M11.6214386,27.0776576 C7.57552878,24.5516922 5.55257388,21.326694 5.55257388,17.402663 C3.95220354,18.5592167 3.56405846,20.5070581 4.38813865,23.2461872 C5.76544471,26.5079614 7.77385455,28.6099229 10.4133682,29.5520717 C10.4133682,28.7326663 10.8160583,27.9078617 11.6214386,27.0776576 Z" id="Path-279" fill="url(#linearGradient-6)" fill-rule="nonzero"></path>
                        <path d="M4.50271558,18.5286053 C4.78654336,22.5032106 7.09284262,25.8594788 11.4216134,28.5974101" id="Path-280" stroke="#FFFFFF" stroke-width="0.5" stroke-linecap="round" stroke-linejoin="round"></path>
                        <g id="Group-45" transform="translate(6.880586, 26.247045)" fill-rule="nonzero">
                            <ellipse id="Oval-19-Copy-2" fill="url(#linearGradient-7)" cx="5.25426583" cy="4.40196621" rx="4.20341267" ry="4.40196621"></ellipse>
                            <ellipse id="Oval-19" fill="url(#linearGradient-8)" cx="4.20341267" cy="4.40196621" rx="4.20341267" ry="4.40196621"></ellipse>
                            <ellipse id="Oval-19-Copy" fill="#FFFFFF" cx="3.67798608" cy="4.40196621" rx="1.57627975" ry="1.58470783"></ellipse>
                        </g>
                    </g>
                    <path d="M49.1157852,25.7775325 C49.860558,19.7407273 51.0516629,15.8268424 52.6891,14.0358776 C53.0532531,13.6375811 52.8182064,16.0463185 53.1158499,15.7795616 C54.3028102,14.7157722 55.7467719,12.4847586 56.3580053,12.4460641 C58.4172602,12.3157018 60.4262488,21.2008725 57.8268102,23.6192104 C57.1526841,24.2463708 55.0258769,25.3970168 54.3072444,25.7775325 C53.5547525,26.1759766 52.6574395,26.9732423 51.6153054,28.1693295 L49.1157852,25.7775325 Z" id="Path-283" fill="#FFD7B3" fill-rule="nonzero"></path>
                    <path d="M104.842146,75.6126916 L111.506257,71.3799629 L114.847547,66.8815789 C119.096137,65.6371183 121.699416,65.6371183 122.657385,66.8815789 C123.615354,68.1260395 122.597482,70.625852 119.60377,74.3810166 L104.842146,79.5556143 L104.842146,75.6126916 Z" id="Path-284" fill="#FFD7B3" fill-rule="nonzero"></path>
                    <path d="M3.68192768,146.82183 C2.72600486,111.968073 6.2568031,87.6702382 14.2743224,73.928326 C17.7042948,68.0494027 20.3347265,60.8642337 24.3062176,54.5955807 C27.6379491,49.3367323 34.8878751,40.0887101 46.0559956,26.8515142 L46.0559886,26.8515082 C47.3115428,25.3633422 49.4318622,24.9461416 51.1576249,25.8476944 C52.5893952,26.5956632 53.1437258,28.3626907 52.3957571,29.7944609 C52.3385481,29.9039709 52.2744578,30.009746 52.2038713,30.1111504 C42.1389424,44.5703699 35.9291101,54.3543696 33.5743607,59.46314 C26.3314292,75.1771154 28.4967252,88.7638434 31.2914884,91.1844933 C33.4360503,93.0419793 45.4031673,93.7736533 66.8583545,88.7162832 C74.3575649,86.9485857 86.4928628,82.1035074 103.264248,74.1810485 L103.264242,74.1810355 C104.916869,73.4003686 106.889443,74.1072315 107.67011,75.7598582 C107.700144,75.8234385 107.728144,75.8879599 107.754067,75.9533242 C108.501397,77.8376738 107.738801,79.984217 105.970132,80.9747147 C88.7885593,90.5967776 76.8761139,96.8309136 70.2327802,99.6770947 C54.5197333,106.408982 39.9515851,108.152946 39.9515851,110.310234 C39.9515851,115.719108 39.0416419,138.243559 43.2062814,140.277916 C47.370921,142.312273 49.5160315,152.871635 47.370921,154.490852 C46.341752,155.267711 40.8157848,157.382198 31.2914884,157.813002 C20.9641678,158.280129 6.51877247,156.94308 3.68192768,154.490852 C0.0465247957,151.348333 0.0465247957,148.791993 3.68192768,146.82183 Z" id="Path-275" fill="url(#linearGradient-9)" fill-rule="nonzero"></path>
                    <path d="M36.8474526,200.594506 C26.3019404,196.053014 18.918951,185.566665 18.918951,173.355927 C18.918951,171.981221 19.0145786,170.608179 19.2051413,169.246745 L30.3208817,89.8327364 C30.6248707,90.4359057 30.9535785,90.8918169 31.2914884,91.1844933 C33.4360503,93.0419793 45.4031673,93.7736533 66.8583545,88.7162832 C74.3578524,86.9485179 86.4937934,82.1031359 103.266177,74.1801373 C104.918866,73.3994313 106.89096,74.1075055 107.670971,75.761663 C107.700677,75.8246595 107.728389,75.8885783 107.754067,75.9533242 C108.501264,77.837337 107.739234,79.9839421 105.971864,80.9737156 C88.7893655,90.5963557 76.8763387,96.8308173 70.2327802,99.6770947 C54.5197333,106.408982 39.9515851,108.152946 39.9515851,110.310234 C39.9515851,115.719108 39.0416419,138.243559 43.2062814,140.277916 C47.370921,142.312273 49.5160315,152.871635 47.370921,154.490852 C46.9807329,154.785382 45.9441797,155.272181 44.2884257,155.786601 L36.8474526,200.594506 Z M37.7352741,36.8622102 C40.2126658,33.8268986 42.9860037,30.4902795 46.0552879,26.852353 C47.3114733,25.3634218 49.4315495,24.9459782 51.1576249,25.8476944 C52.5882541,26.595067 53.1426804,28.3617161 52.3959708,29.7936155 C52.3385068,29.9038093 52.2740822,30.0102243 52.2030892,30.112213 C43.7041172,42.3218755 37.9540677,51.1977781 34.9529496,56.7399271 L37.7352741,36.8622102 Z" id="Combined-Shape" fill="#0B4651" fill-rule="nonzero" opacity="0.200000003"></path>
                    <path d="M40.278942,99.4798429 L40.278942,111.458621" id="Path-282" stroke="#0B4651" stroke-width="0.67371264" stroke-linecap="round" stroke-linejoin="round"></path>
                    <path d="M27.8901585,98.0033777 C27.422961,82.7713958 28.2485657,72.616185 30.3669727,67.5377453" id="Path-281" stroke="#0B4651" stroke-width="0.67371264" stroke-linecap="round" stroke-linejoin="round"></path>
                    <path d="M20.7688536,143.716561 C32.52518,145.067451 40.3163549,144.768438 44.1423783,142.819521" id="Path-287" stroke="#0B4651" stroke-width="0.67371264" stroke-linecap="round" stroke-linejoin="round"></path>
                    <path d="M32.9201244,92.4699792 C34.0544674,103.570502 34.0544674,111.107548 32.9201244,115.081117 C31.2186098,121.04147 33.2651397,131.289272 34.6216389,133.588253 C35.5259717,135.120907 35.9781381,138.776669 35.9781381,144.555538" id="Path-288" stroke="#0B4651" stroke-width="0.67371264" stroke-linecap="round" stroke-linejoin="round"></path>
                    <path d="M33.8113584,170.303381 C33.3143457,171.020724 31.4414622,172.096026 28.1927079,173.529288 L18.2603422,250.95452" id="Path-289" stroke="#FFFFFF" stroke-width="1.01056896"></path>
                    <path d="M7.43924934,249.279568 C6.04262391,254.802573 6.04262391,257.704954 7.43924934,257.986713 C8.83587477,258.268472 15.7786964,258.409351 28.2677142,258.409351 C31.4395153,256.511734 32.5836607,255.194198 31.7001503,254.456743 C30.8166399,253.719288 26.0265055,251.993563 17.3297472,249.279568 L7.43924934,249.279568 Z" id="Path-290" fill="url(#linearGradient-10)" fill-rule="nonzero"></path>
                </g>
                <g id="Group-48" transform="translate(16.068939, 363.240743)" fill-rule="nonzero">
                    <rect id="Rectangle-50" fill="#7ECC79" x="0" y="0" width="73.9918582" height="27.2905056"></rect>
                    <rect id="Rectangle-50-Copy" fill="#0B4651" x="54.1859568" y="0" width="19.8059014" height="27.2905056"></rect>
                </g>
                <g id="Group-44" transform="translate(43.503190, 0.000000)">
                    <path d="M75.6369493,14.4456515 L404.340782,14.4456515 C420.712355,14.4456515 433.984138,27.7174341 433.984138,44.0890076 C433.984138,45.4637141 433.88851,46.8367555 433.697948,48.1981899 L401.704253,276.770235 C399.654902,291.411383 387.130966,302.304409 372.347088,302.304409 L43.6432549,302.304409 C27.2716814,302.304409 13.9998988,289.032626 13.9998988,272.661053 C13.9998988,271.286346 14.0955264,269.913305 14.2860891,268.55187 L46.2797835,39.9798254 C48.3291348,25.3386772 60.8530709,14.4456515 75.6369493,14.4456515 Z" id="Rectangle-47" fill="url(#linearGradient-11)" fill-rule="nonzero"></path>
                    <path d="M62.0752717,0 L390.779104,-7.10542736e-15 C407.150678,-1.01128366e-14 420.42246,13.2717826 420.42246,29.6433562 C420.42246,31.0180626 420.326833,32.391104 420.13627,33.7525384 L388.142576,262.324583 C386.093224,276.965732 373.569288,287.858757 358.78541,287.858757 L30.0815773,287.858757 C13.7100038,287.858757 0.43822117,274.586975 0.43822117,258.215401 C0.43822117,256.840695 0.53384876,255.467653 0.7244115,254.106219 L32.7181059,25.5341739 C34.7674572,10.8930257 47.2913933,6.26846808e-15 62.0752717,0 Z" id="Rectangle-47-Copy-6" stroke="url(#linearGradient-12)" stroke-width="1.9"></path>
                    <path d="M432.133186,59.3772928 L43.5646805,59.3772928 L46.2797835,39.9798254 C48.3291348,25.3386772 60.8530709,14.4456515 75.6369493,14.4456515 L404.340782,14.4456515 C420.712355,14.4456515 433.984138,27.7174341 433.984138,44.0890076 C433.984138,45.4637141 433.88851,46.8367555 433.697948,48.1981899 L432.133186,59.3772928 Z" id="Combined-Shape" fill="#FFFFFF" fill-rule="nonzero" opacity="0.400000006"></path>
                    <ellipse id="Oval-20-Copy" fill="#0B4651" fill-rule="nonzero" opacity="0.5" cx="365.320511" cy="37.6238891" rx="5.23174755" ry="5.23379559"></ellipse>
                    <ellipse id="Oval-20-Copy-2" fill="#54B454" fill-rule="nonzero" opacity="0.5" cx="385.126413" cy="37.6238891" rx="5.23174755" ry="5.23379559"></ellipse>
                    <ellipse id="Oval-20-Copy-3" fill="#FFFFFF" fill-rule="nonzero" cx="404.932314" cy="37.6238891" rx="5.23174755" ry="5.23379559"></ellipse>
                </g>
                <path d="M114.500924,90.7017687 L198.149718,90.7017687 C202.904089,90.7017687 206.758269,94.555948 206.758269,99.3103191 C206.758269,99.6453298 206.738713,99.9800547 206.699701,100.312786 L200.344593,154.515133 C199.836105,158.851996 196.16118,162.121217 191.79461,162.121217 L108.145816,162.121217 C103.391445,162.121217 99.5372659,158.267038 99.5372659,153.512666 C99.5372659,153.177656 99.5568218,152.842931 99.5958339,152.510199 L105.950942,98.3078522 C106.45943,93.9709898 110.134354,90.7017687 114.500924,90.7017687 Z" id="Rectangle-51" fill="#FFFFFF" fill-rule="nonzero" opacity="0.400000006"></path>
                <path d="M282.593613,73.5127731 L437.202054,73.5127731 C441.956425,73.5127731 445.810605,77.3669524 445.810605,82.1213235 C445.810605,82.4950847 445.786263,82.8684492 445.737735,83.2390465 L434.187345,171.445543 C433.626142,175.731265 429.973975,178.93637 425.651665,178.93637 L271.043223,178.93637 C266.288852,178.93637 262.434673,175.082191 262.434673,170.32782 C262.434673,169.954058 262.459015,169.580694 262.507543,169.210097 L274.057933,81.0036005 C274.619136,76.717878 278.271303,73.5127731 282.593613,73.5127731 Z" id="Rectangle-51-Copy" fill="#FFFFFF" fill-rule="nonzero" opacity="0.300000012"></path>
                <path d="M102.039377,251.835666 L173.219528,251.835666 C178.265756,251.835666 182.356533,255.926442 182.356533,260.97267 C182.356533,261.481156 182.314086,261.988754 182.229635,262.490178 C181.193706,268.640942 175.867992,273.144691 169.630602,273.144691 L98.45045,273.144691 C93.4042217,273.144691 89.3134454,269.053914 89.3134454,264.007686 C89.3134454,263.4992 89.355892,262.991602 89.4403432,262.490178 C90.4762724,256.339414 95.8019858,251.835666 102.039377,251.835666 Z" id="Rectangle-52" fill="#0B4651" fill-rule="nonzero" opacity="0.400000006"></path>
                <path d="M230.964584,251.835666 L302.144736,251.835666 C307.190964,251.835666 311.28174,255.926442 311.28174,260.97267 C311.28174,261.481156 311.239294,261.988754 311.154842,262.490178 C310.118913,268.640942 304.7932,273.144691 298.555809,273.144691 L227.375657,273.144691 C222.329429,273.144691 218.238653,269.053914 218.238653,264.007686 C218.238653,263.4992 218.2811,262.991602 218.365551,262.490178 C219.40148,256.339414 224.727193,251.835666 230.964584,251.835666 Z" id="Rectangle-52-Copy" fill="#FFFFFF" fill-rule="nonzero" opacity="0.400000006"></path>
                <path d="M352.789563,251.835666 L423.969714,251.835666 C429.015943,251.835666 433.106719,255.926442 433.106719,260.97267 C433.106719,261.481156 433.064272,261.988754 432.979821,262.490178 C431.943892,268.640942 426.618179,273.144691 420.380788,273.144691 L349.200636,273.144691 C344.154408,273.144691 340.063632,269.053914 340.063632,264.007686 C340.063632,263.4992 340.106078,262.991602 340.190529,262.490178 C341.226459,256.339414 346.552172,251.835666 352.789563,251.835666 Z" id="Rectangle-52-Copy-2" fill="#FFFFFF" fill-rule="nonzero" opacity="0.200000003"></path>
                <ellipse id="Oval-20" fill="#0B4651" fill-rule="nonzero" opacity="0.400000006" cx="138.64131" cy="213.329884" rx="11.9582801" ry="11.9629613"></ellipse>
                <ellipse id="Oval-20-Copy-4" fill="#FFFFFF" fill-rule="nonzero" opacity="0.400000006" cx="267.566518" cy="213.329884" rx="11.9582801" ry="11.9629613"></ellipse>
                <ellipse id="Oval-20-Copy-5" fill="#FFFFFF" fill-rule="nonzero" opacity="0.400000006" cx="394.623244" cy="213.329884" rx="11.9582801" ry="11.9629613"></ellipse>
                <path d="M310.814466,391.068415 C300.086113,323.439274 269.135338,291.455221 217.96214,295.116258 C141.202343,300.607814 267.253281,325.540179 254.966308,337.769773 C242.679335,349.999367 228.838246,358.746379 235.576351,370.884042 C240.06842,378.975817 265.147792,385.703941 310.814466,391.068415 Z" id="Path-313" fill="#29A99A" fill-rule="nonzero"></path>
                <path d="M286.567051,324.681046 C296.750363,338.512765 304.206273,357.151945 308.93478,380.598586 L305.777258,389.193955 L289.945476,387.841496 C280.406923,355.014591 279.280787,333.961115 286.567066,324.681067 L286.567051,324.681046 Z" id="Combined-Shape" fill="#0B4651" fill-rule="nonzero" opacity="0.300000012"></path>
                <path d="M224.816159,308.488749 C265.559552,317.124777 289.332816,341.179148 296.135953,380.651864" id="Path-315" stroke="#0B4651" stroke-width="2.2457088" stroke-linecap="round" stroke-linejoin="round"></path>
                <polyline id="Path-316" stroke="#0B4651" stroke-width="2.2457088" stroke-linecap="round" stroke-linejoin="round" points="264.03185 355.054716 289.196347 355.054716 289.196347 334.87837"></polyline>
                <path d="M247.713426,306.221439 L257.269584,320.404678" id="Path-317" stroke="#0B4651" stroke-width="2.2457088" stroke-linecap="round" stroke-linejoin="round"></path>
                <path d="M370.028985,390.687886 C381.937544,390.446421 387.734441,389.313025 387.419676,387.287699 C381.035358,346.208425 343.208362,319.618 311.131398,319.618 C259.457607,319.618 339.118044,342.739582 326.831071,354.969176 C314.544098,367.19877 301.594655,362.35263 308.33276,374.490293 C312.82483,382.582068 333.390238,387.981265 370.028985,390.687886 Z" id="Path-313-Copy" fill="#33BAAA" fill-rule="nonzero" transform="translate(340.472134, 355.152943) scale(-1, 1) translate(-340.472134, -355.152943) "></path>
                <path d="M300.01837,384.81344 C319.150659,355.909447 336.106259,340.560758 350.885171,338.767371" id="Path-318" stroke="#0B4651" stroke-width="2.2457088" stroke-linecap="round" stroke-linejoin="round"></path>
                <path d="M314.506158,366.43098 C336.373914,364.276918 351.197268,366.483933 358.976221,373.052023" id="Path-319" stroke="#0B4651" stroke-width="2.2457088" stroke-linecap="round" stroke-linejoin="round"></path>
                <path d="M0,390.157406 L208.183594,390.157406" id="Path-320" stroke="#0B4651" stroke-width="0.95" stroke-linecap="round" stroke-linejoin="round"></path>
                <path d="M278.403709,390.157406 L571.196214,390.157406" id="Path-320-Copy" stroke="#0B4651" stroke-width="0.95" stroke-linecap="round" stroke-linejoin="round"></path>
            </g>
        </g>
    </g>
</svg>