<?xml version="1.0" encoding="UTF-8"?>
<svg width="567px" height="420px" viewBox="0 0 567 420" version="1.1" xmlns="http://www.w3.org/2000/svg" xmlns:xlink="http://www.w3.org/1999/xlink">
    <!-- Generator: sketchtool 49 (51002) - http://www.bohemiancoding.com/sketch -->
    <title>9A397B69-B675-4A6C-826E-6E708A96D3FE</title>
    <desc>Created with sketchtool.</desc>
    <defs>
        <linearGradient x1="57.6964029%" y1="38.127863%" x2="43.3336469%" y2="56.2770819%" id="linearGradient-1">
            <stop stop-color="#5AB155" offset="0%"></stop>
            <stop stop-color="#14AD9B" offset="100%"></stop>
        </linearGradient>
        <linearGradient x1="57.6964029%" y1="18.1728585%" x2="43.1413235%" y2="67.4792784%" id="linearGradient-2">
            <stop stop-color="#58B152" offset="0%"></stop>
            <stop stop-color="#33BAAA" offset="100%"></stop>
        </linearGradient>
        <linearGradient x1="57.6964029%" y1="28.2462208%" x2="43.1413235%" y2="61.9470473%" id="linearGradient-3">
            <stop stop-color="#7ECC79" offset="0%"></stop>
            <stop stop-color="#33BAAA" offset="100%"></stop>
        </linearGradient>
        <linearGradient x1="57.6964029%" y1="-5.03081409%" x2="0%" y2="68.7999603%" id="linearGradient-4">
            <stop stop-color="#43993D" offset="0%"></stop>
            <stop stop-color="#289F91" offset="100%"></stop>
        </linearGradient>
        <linearGradient x1="53.4675421%" y1="-28.1753217%" x2="46.9098876%" y2="92.9334256%" id="linearGradient-5">
            <stop stop-color="#7ECC79" offset="0%"></stop>
            <stop stop-color="#33BAAA" offset="100%"></stop>
        </linearGradient>
        <linearGradient x1="51.6938634%" y1="-28.1753217%" x2="48.4905077%" y2="92.9334256%" id="linearGradient-6">
            <stop stop-color="#7ECC79" offset="0%"></stop>
            <stop stop-color="#33BAAA" offset="100%"></stop>
        </linearGradient>
        <linearGradient x1="57.6964029%" y1="19.6084474%" x2="43.5622303%" y2="65.3293224%" id="linearGradient-7">
            <stop stop-color="#7ECC79" offset="0%"></stop>
            <stop stop-color="#23A394" offset="100%"></stop>
        </linearGradient>
        <linearGradient x1="55.7535866%" y1="-28.1753217%" x2="44.8726711%" y2="92.9334256%" id="linearGradient-8">
            <stop stop-color="#7ECC79" offset="0%"></stop>
            <stop stop-color="#33BAAA" offset="100%"></stop>
        </linearGradient>
        <linearGradient x1="57.6964029%" y1="-2.30334425%" x2="43.1413235%" y2="78.7246882%" id="linearGradient-9">
            <stop stop-color="#56B450" offset="0%"></stop>
            <stop stop-color="#33BAAA" offset="100%"></stop>
        </linearGradient>
        <linearGradient x1="57.6964029%" y1="-2.30334311%" x2="43.4125488%" y2="77.2147782%" id="linearGradient-10">
            <stop stop-color="#BAFFB5" offset="0%"></stop>
            <stop stop-color="#3CD8C5" offset="100%"></stop>
        </linearGradient>
        <linearGradient x1="57.6964029%" y1="-21.8485022%" x2="43.1413235%" y2="89.4587736%" id="linearGradient-11">
            <stop stop-color="#7ECC79" offset="0%"></stop>
            <stop stop-color="#33BAAA" offset="100%"></stop>
        </linearGradient>
        <linearGradient x1="57.0194068%" y1="-28.1753217%" x2="43.920037%" y2="91.3331566%" id="linearGradient-12">
            <stop stop-color="#5AB155" offset="0%"></stop>
            <stop stop-color="#14AD9B" offset="100%"></stop>
        </linearGradient>
    </defs>
    <g id="Home" stroke="none" stroke-width="1" fill="none" fill-rule="evenodd">
        <g id="Home---Approach" transform="translate(-213.000000, -2372.000000)">
            <g id="Supporting-Success@3x" transform="translate(213.000000, 2372.000000)">
                <path d="M109.466312,63.3630739 L37.6878878,392.126824" id="Path-257" stroke="#0B4651" stroke-width="1.9551" stroke-linecap="round" stroke-linejoin="round"></path>
                <path d="M80.6619474,78.9223743 L105.964682,407.6081" id="Path-257-Copy" stroke="#0B4651" stroke-width="1.9551" stroke-linecap="round" stroke-linejoin="round"></path>
                <path d="M197.863928,78.9223743 L223.166662,407.6081" id="Path-257-Copy-2" stroke="#0B4651" stroke-width="1.9551" stroke-linecap="round" stroke-linejoin="round"></path>
                <polygon id="Rectangle-43" fill="#33BAAA" fill-rule="nonzero" points="51.3614522 0 234.326766 0 252.23317 247.85539 69.2678553 247.85539"></polygon>
                <path d="M228.466667,63.9206006 C228.466667,46.6296425 214.473837,32.6125514 197.212806,32.6125514 C179.951775,32.6125514 165.958944,46.6296425 165.958944,63.9206006 C165.958944,81.2115588 179.951775,95.2286499 197.212806,95.2286499" id="Oval-18" stroke="#FFFFFF" stroke-width="2.6068" stroke-linecap="round" stroke-linejoin="round"></path>
                <polyline id="Path-273" stroke="#FFFFFF" stroke-width="1.9551" stroke-linecap="round" stroke-linejoin="round" points="194.609274 91.152897 197.753433 95.2938234 194.609274 99.1223048"></polyline>
                <polygon id="Path-272" fill="#0B4651" fill-rule="nonzero" points="90.5356683 148.367389 95.2213028 201.143183 110.468378 201.143183 105.884815 148.367389"></polygon>
                <polygon id="Path-272-Copy-3" fill="#FFFFFF" fill-rule="nonzero" points="165.98524 168.61352 169.449224 201.143183 184.696299 201.143183 181.334386 168.61352"></polygon>
                <polygon id="Path-272-Copy" fill="#FFFFFF" fill-rule="nonzero" points="117.124786 172.194271 119.906395 200.837959 134.053961 200.837959 131.340909 172.194271"></polygon>
                <polygon id="Path-272-Copy-2" fill="#0B4651" fill-rule="nonzero" points="142.985721 186.516115 144.649035 200.837959 158.796601 200.837959 157.201844 186.516115"></polygon>
                <path d="M73.4996041,43.7008188 L127.226057,43.7008188" id="Path-271" stroke="#FFFFFF" stroke-width="5.8653" stroke-linecap="round" stroke-linejoin="round"></path>
                <path d="M72.848482,62.6160986 L105.73176,62.6160986" id="Path-271-Copy" stroke="#FFFFFF" stroke-width="1.9551" stroke-linecap="round" stroke-linejoin="round"></path>
                <path d="M189.399341,59.3548435 L205.355154,59.3548435" id="Path-271-Copy-4" stroke="#AAE6A6" stroke-width="1.9551" stroke-linecap="round" stroke-linejoin="round"></path>
                <path d="M189.399341,65.2251027 L196.24387,65.2251027" id="Path-271-Copy-5" stroke="#AAE6A6" stroke-width="1.9551" stroke-linecap="round" stroke-linejoin="round"></path>
                <path d="M189.399341,71.747613 L213.81859,71.747613" id="Path-271-Copy-6" stroke="#AAE6A6" stroke-width="1.9551" stroke-linecap="round" stroke-linejoin="round"></path>
                <path d="M74.8018483,80.8791274 L101.190375,80.8791274" id="Path-271-Copy-2" stroke="#FFFFFF" stroke-width="1.9551" stroke-linecap="round" stroke-linejoin="round"></path>
                <path d="M77.4063368,99.1421561 L139.336815,99.1421561" id="Path-271-Copy-3" stroke="#FFFFFF" stroke-width="1.9551" stroke-linecap="round" stroke-linejoin="round"></path>
                <polygon id="Rectangle-44-Copy" fill="#0B4651" fill-rule="nonzero" opacity="0.100000001" points="67.6395051 230.244613 216.491899 230.244613 217.847939 243.882766 68.9955456 243.882766"></polygon>
                <rect id="Rectangle-46" fill="#FFFFFF" fill-rule="nonzero" x="145.774159" y="232.201366" width="34.5094721" height="11.0882675" rx="5.54413373"></rect>
                <polygon id="Rectangle-44" fill="#7DD977" fill-rule="nonzero" points="65.6861387 236.767123 214.538532 236.767123 215.894573 250.405276 67.0421792 250.405276"></polygon>
                <path d="M207.083544,387.43711 C196.698442,390.274423 191.467595,392.15979 191.391003,393.09321 C191.314411,394.026631 191.352707,395.152237 191.505891,396.470029 L217.042908,396.470029 L216.134454,387.43711 L207.083544,387.43711 Z" id="Path-256" fill="#0B4651" fill-rule="nonzero"></path>
                <path d="M246.150871,387.43711 C238.074381,390.419039 233.99784,392.376714 233.921248,393.310134 C233.844656,394.243555 233.882952,395.369161 234.036136,396.686953 L256.110235,396.470029 L255.201781,387.43711 L246.150871,387.43711 Z" id="Path-256-Copy" fill="#0B4651" fill-rule="nonzero"></path>
                <path d="M261.640037,132.305198 C275.07756,163.337788 280.922925,181.57034 279.17613,187.002854 C277.429335,192.435368 273.766074,197.923774 268.186348,203.468071 L254.435055,136.618908 L261.640037,132.305198 Z" id="Path-255" fill="#0B4651" fill-rule="nonzero"></path>
                <path d="M205.978484,235.1703 L205.978484,387.867366 L216.050113,389.569064 C222.36245,361.042445 225.518619,337.933585 225.518619,320.242485 C230.748703,303.10118 235.109559,283.068008 238.601189,260.14297 C240.646729,324.616022 242.480887,367.19082 244.103662,387.867366 C246.912153,389.74768 250.660829,390.314913 255.349691,389.569064 L266.271395,240.402035 L205.978484,235.1703 Z" id="Path-254" fill="url(#linearGradient-1)" fill-rule="nonzero"></path>
                <g id="Group-28" transform="translate(210.235248, 63.268350)" fill-rule="nonzero">
                    <path d="M5.85095205,16.5380517 C2.9081524,28.2636251 1.92721918,34.3246038 2.9081524,34.7209877 C3.88908561,35.1173716 4.37955222,36.4015883 4.37955222,38.5736378 L9.91300018,53.5619882 L17.5950234,53.5619882 L15.5554593,69.0491778 L34.2812702,69.0491778 L30.5768993,42.7936147 L17.5950234,18.5505398 L5.85095205,16.5380517 Z" id="Path-252" fill="#FFD7B3"></path>
                    <path d="M16.5623399,0.609238649 C30.7819063,1.8667772 38.2718295,5.63062784 39.0321095,11.9007906 C40.1725295,21.3060347 45.899647,18.2650225 43.994935,26.9357773 C42.0902229,35.6065321 38.3593038,50.6399712 31.5731235,50.6193174 C24.7869432,50.5986635 15.9277254,39.0918761 18.3413153,33.3681026 C22.3848476,23.7789578 15.8431518,23.708662 15.1913126,28.4138308 C14.5394735,33.1189996 16.7293586,49.0504448 15.1913126,53.1679138 C14.1659487,55.912893 11.531395,56.2881064 7.28765157,54.2935537 C3.79889665,43.8988327 2.99479633,38.1423686 4.8753506,37.0241615 C7.69618201,35.3468509 12.302715,39.9689571 12.4584381,35.758159 C12.5622534,32.9509603 11.9833321,27.9202524 10.7216741,20.6660354 C0.88057624,18.6036253 -1.93016104,14.7452233 2.28946225,9.09082944 C6.50908554,3.43643558 11.2667114,0.609238649 16.5623399,0.609238649 Z" id="Path-251" fill="#0B4651"></path>
                </g>
                <g id="Group-31" transform="translate(132.100594, 93.271897)">
                    <path d="M20.4359657,23.031635 C18.3939344,19.6829233 17.4038719,17.7981033 17.4657781,17.3771748 C17.5586373,16.745782 16.2448753,5.76688179 11.8079042,3.86181744 C8.84992338,2.59177453 5.48998856,1.95675308 1.72809968,1.95675308 C-0.241126424,9.71967548 -0.241126424,14.634646 1.72809968,16.7016647 C3.69732579,18.7686834 6.5054908,20.2602676 10.1525947,21.1764174 L14.1581583,28.3073741 L20.4359657,23.031635 Z" id="Path-269" fill="#FFD7B3" fill-rule="nonzero"></path>
                    <path d="M5.37367174,4.89365275 L12.2187038,0.309316043" id="Path-270" stroke="#FFFFFF" stroke-width="1.9551" stroke-linecap="round" stroke-linejoin="round"></path>
                </g>
                <path d="M212.507758,126.163263 C229.476625,119.31916 238.919643,121.932966 248.085052,124.601108 C254.195325,126.379869 258.578471,128.802153 261.23449,131.86796 L269.944774,208.102224 L271.642676,243.650064 C261.035781,246.766588 250.497177,248.32485 240.026864,248.32485 C229.556551,248.32485 217.220423,247.540128 203.018478,245.970685 L208.537838,154.470882 L186.648806,172.103089 C181.883773,175.941452 174.909341,175.190237 171.070978,170.425204 C170.691897,169.954604 170.351955,169.453779 170.054552,168.92774 L144.390875,123.534369 C142.579043,120.32964 143.616294,116.266286 146.742491,114.322086 C149.834229,112.399316 153.898838,113.340556 155.830678,116.426634 L177.782495,151.494279 C178.355429,152.409529 179.56184,152.687031 180.47709,152.114098 C180.614419,152.028131 180.740531,151.925428 180.852524,151.80835 C195.344975,136.657863 205.89672,128.109501 212.507758,126.163263 Z" id="Path-253" fill="#0B4651" fill-rule="nonzero"></path>
                <g id="Group-27" transform="translate(19.456469, 60.659346)">
                    <g id="Group-30" transform="translate(319.049836, 0.000000)">
                        <rect id="Rectangle-40" fill="#C9F0EB" fill-rule="nonzero" x="0" y="0" width="153.664819" height="109.578173" rx="5.2136"></rect>
                        <path d="M26.0448846,41.0918147 L26.0448846,63.0584919" id="Path-247" stroke="#0B4651" stroke-width="0.97755" opacity="0.229999989" stroke-linecap="round" stroke-linejoin="round"></path>
                        <polyline id="Path-248" stroke="#0B4651" stroke-width="0.97755" opacity="0.229999989" stroke-linecap="round" stroke-linejoin="round" points="27.3471288 53.4011419 42.8933207 53.4011419 42.8933207 39.1350616 51.2777181 39.1350616"></polyline>
                        <rect id="Rectangle-42" fill="#FFFFFF" fill-rule="nonzero" x="96.366073" y="81.5313784" width="26.0448846" height="11.0882675"></rect>
                        <polyline id="Path-250" stroke="#0B4651" stroke-width="0.97755" opacity="0.229999989" stroke-linecap="round" stroke-linejoin="round" points="93.7534096 52.0755837 93.7534096 76.0955513 133.250642 76.0955513 133.250642 43.4786566"></polyline>
                        <rect id="Rectangle-41" fill="#FFFFFF" fill-rule="nonzero" x="18.2314192" y="16.9585267" width="16.929175" height="19.5675308"></rect>
                        <rect id="Rectangle-41-Copy" fill="#5EC48E" fill-rule="nonzero" x="16.929175" y="67.8341068" width="16.929175" height="19.5675308"></rect>
                        <rect id="Rectangle-41-Copy-2" fill="#33BAAA" fill-rule="nonzero" opacity="0.400000006" transform="translate(62.356157, 37.608671) rotate(3.000000) translate(-62.356157, -37.608671) " x="53.8915695" y="27.8249052" width="16.929175" height="19.5675308"></rect>
                        <rect id="Rectangle-41-Copy-4" fill="#33BAAA" fill-rule="nonzero" transform="translate(93.610019, 37.608671) rotate(3.000000) translate(-93.610019, -37.608671) " x="85.145431" y="27.8249052" width="16.929175" height="19.5675308"></rect>
                        <rect id="Rectangle-41-Copy-3" fill="#FFFFFF" fill-rule="nonzero" opacity="0.900000036" transform="translate(130.875546, 26.742292) rotate(-10.000000) translate(-130.875546, -26.742292) " x="122.410958" y="16.9585266" width="16.929175" height="19.5675308"></rect>
                        <path d="M74.9210946,38.2120343 L80.9670364,38.2120343" id="Path-249" stroke="#0B4651" stroke-width="0.97755" opacity="0.229999989" stroke-linecap="round" stroke-linejoin="round"></path>
                    </g>
                    <path d="M387.320539,213.052065 C371.520108,216.760305 356.513933,234.742381 363.197744,249.428814 C367.653618,259.21977 373.827599,264.115247 381.719688,264.115247 L390.151118,210.378532 C398.797686,209.688727 397.85416,210.579904 387.320539,213.052065 Z" id="Path-258" fill="url(#linearGradient-2)" fill-rule="nonzero"></path>
                    <path d="M376.979699,269.090165 L363.32614,332.707242" id="Path-246-Copy-2" stroke="#0B4651" stroke-width="1.9551" stroke-linecap="round" stroke-linejoin="round"></path>
                    <path d="M438.205275,263.549761 C438.045591,263.033638 439.842429,261.956825 440.357659,261.796864 C440.872888,261.636903 441.420013,261.92563 441.579697,262.441752 L463.229607,332.417608 C463.389291,332.93373 463.101064,333.481804 462.585835,333.641765 C462.070605,333.801725 461.52348,333.512999 461.363796,332.996876 L438.205275,263.549761 Z" id="Path-246-Copy" fill="#0B4651" fill-rule="nonzero"></path>
                    <polygon id="Path-243" fill="#FFD7B3" fill-rule="nonzero" points="361.996574 270.532202 351.149461 326.62303 358.197528 327.783525 378.541161 273.20295"></polygon>
                    <path d="M393.003978,273.176608 L419.863556,330.249072 L428.174189,330.249072 L414.79915,274.075882 C423.034022,266.062951 423.034022,261.363049 414.79915,259.976174 C403.015905,258.087539 395.750847,262.487684 393.003978,273.176608 Z" id="Path-242" fill="#FFD7B3" fill-rule="nonzero"></path>
                    <path d="M399.851264,223.233686 C393.040054,223.12236 389.368156,223.12236 388.83557,223.233686 C376.44054,225.824603 369.788289,236.03173 367.319329,241.650075 C364.691241,247.630532 362.552718,256.998028 360.90376,269.752564 C369.086574,273.393871 374.983202,275.440669 378.593643,275.892958 C392.505299,277.635706 406.67639,276.67809 421.106914,273.020108 L418.922324,261.97675 C425.362837,259.162984 431.003729,254.318116 435.844998,247.442145 C440.686268,240.566174 439.008016,231.40426 430.810243,219.956401 L399.851264,223.233686 Z" id="Path-236" fill="#0B4651" fill-rule="nonzero"></path>
                    <path d="M379.63311,96.0495331 C371.71648,115.199244 370.775086,126.86189 376.808928,131.037469 C385.302035,136.914926 382.473419,146.662377 384.093492,146.793614 C385.495321,146.907172 404.385828,147.683836 404.834447,140.146739 C404.927588,138.581914 399.032648,134.367531 387.149628,127.50359 L379.63311,96.0495331 Z" id="Path-173" fill="#0B4651" fill-rule="nonzero"></path>
                    <path d="M394.316496,139.626477 C390.575699,136.852363 385.585376,137.30636 379.345525,140.988467 C373.851186,144.230651 370.576203,156.663675 368.620057,179.552772 C368.504032,180.91039 345.306494,183.860807 344.741606,186.160551 C344.497385,187.154811 344.497385,189.841442 344.741606,194.220443 L383.50939,194.220443 L386.41751,224.117373 C396.850474,227.11156 406.590449,228.015132 415.637435,226.82809 C424.684422,225.641048 431.044136,224.403087 434.716577,223.114206 L430.357946,197.258423 L445.524588,196.170774 L434.716577,162.372227 L428.323153,142.378866 L406.718345,132.926825 L394.316496,139.626477 Z" id="Path-178" fill="#7DD977" fill-rule="nonzero"></path>
                    <path d="M419.037979,260.279053 C421.931425,258.016859 423.550439,254.698104 423.895021,250.322788 C424.411893,243.759815 423.504617,225.946397 432.986904,218.559606 C431.54012,208.362955 431.54012,201.829548 432.986904,198.959383 L449.002797,198.010452 C464.754761,246.869442 454.766488,271.987002 419.037979,273.36313 C415.631345,269.452774 415.631345,265.091415 419.037979,260.279053 Z" id="Path-238" fill="url(#linearGradient-3)" fill-rule="nonzero"></path>
                    <polygon id="Path-240" fill="url(#linearGradient-4)" fill-rule="nonzero" points="432.121112 219.453992 441.889759 214.032052 446.046211 211.852805 447.103532 208.723409 443.620208 199.589273 430.436796 199.589273"></polygon>
                    <path d="M411.11733,169.383391 C409.587651,165.930155 408.520925,162.900964 407.91715,160.295819 C407.207892,157.23554 404.760033,154.109288 403.991673,155.511604 C403.479433,156.446481 403.479433,158.041219 403.991673,160.295819 C396.971124,156.474041 392.840198,154.879303 391.598895,155.511604 C389.736939,156.460055 390.471759,165.355419 394.837511,166.882273 C397.748012,167.900175 401.277161,170.662434 405.424958,175.169049 C406.011046,172.767951 406.54226,171.323716 407.018601,170.836344 C407.494941,170.348972 408.861184,169.864655 411.11733,169.383391 Z" id="Path-234" fill="#FFD7B3" fill-rule="nonzero"></path>
                    <path d="M391.914728,124.252951 L391.914728,142.206738 C391.766576,149.855248 393.678564,153.679504 397.650693,153.679504 C401.622821,153.679504 404.482977,148.804508 406.231162,139.054518 L408.964832,120.718409 L391.914728,124.252951 Z" id="Path-177" fill="#FFD7B3" fill-rule="nonzero"></path>
                    <path d="M0.236606009,332.648024 L501.307124,332.648024" id="Path-166" stroke="#0B4651"></path>
                    <path d="M521.134298,332.648024 L547.211108,332.648024" id="Path-166-Copy" stroke="#0B4651"></path>
                    <path d="M183.423391,195.675308 L162.780529,337.691482" id="Path-163-Copy-4" stroke="#4AC09B" stroke-width="3.2585" stroke-linecap="round" stroke-linejoin="round"></path>
                    <path d="M486.195176,195.675308 L465.552313,337.691482" id="Path-163-Copy-5" stroke="#4AC09B" stroke-width="3.2585" stroke-linecap="round" stroke-linejoin="round" transform="translate(475.873744, 266.683395) scale(-1, 1) translate(-475.873744, -266.683395) "></path>
                    <path d="M218.505898,136.972716 L286.633519,136.972716 C288.763912,136.972716 290.610647,138.447228 291.082242,140.524769 L300.855891,183.581051 C301.413614,186.038013 299.873977,188.481898 297.417015,189.039621 C297.085664,189.114837 296.746948,189.152798 296.407168,189.152798 L228.279548,189.152798 C226.149154,189.152798 224.30242,187.678285 223.830824,185.600745 L214.057175,142.544463 C213.499452,140.087501 215.039089,137.643615 217.496051,137.085892 C217.827402,137.010677 218.166118,136.972716 218.505898,136.972716 Z" id="Rectangle-29" fill="#7DD977" fill-rule="nonzero"></path>
                    <polygon id="Rectangle-29-Copy" fill="#FFFFFF" fill-rule="nonzero" points="218.2826 140.560096 286.414391 140.560096 296.630466 185.565417 228.498676 185.565417"></polygon>
                    <path d="M252.106,137.286675 C264.085753,152.695065 274.699458,159.761285 283.947115,158.485335 C293.194773,157.209385 299.296705,162.535134 302.252912,174.462583 L300.548083,197.416976 L251.091975,197.416976 L235.80963,137.286675 L252.106,137.286675 Z" id="Path-170" fill="#0B4651" fill-rule="nonzero" opacity="0.100000001"></path>
                    <rect id="Rectangle-28" fill="#277A5E" fill-rule="nonzero" x="224.63713" y="189.152798" width="70.9723105" height="3.91350616" rx="1.95675308"></rect>
                    <path d="M240.848338,134.399692 L238.932972,129.386088 C236.967942,129.05068 235.456334,128.17925 234.398146,126.771798 C232.810865,124.660621 234.219719,113.717971 237.50958,112.759845 C234.61957,108.433552 234.470645,105.535486 235.5506,104.502372 C236.630555,103.469257 246.150345,119.011611 248.541491,133.001271 C250.135589,142.327711 247.571205,142.793851 240.848338,134.399692 Z" id="Path-169" fill="#FFD7B3" fill-rule="nonzero"></path>
                    <rect id="Rectangle-27" fill="#0B4651" fill-rule="nonzero" x="154.967063" y="193.066304" width="331.421157" height="7.1747613" rx="3.58738065"></rect>
                    <path d="M278.490331,332.648024 C278.490331,332.648024 263.781513,341.027161 265.561285,344.853783 C266.592958,347.071944 272.355688,348.010963 282.849476,347.67084 L282.849476,347.670843 C285.661643,347.579696 287.894185,345.273621 287.894185,342.459977 L287.894185,332.648024 C281.624949,332.648024 278.490331,332.648024 278.490331,332.648024 Z" id="Path-165-Copy" fill="url(#linearGradient-5)" fill-rule="nonzero"></path>
                    <path d="M260.924847,269.216164 L277.043332,332.07098 C277.684026,334.569398 279.935708,336.316517 282.514967,336.316517 C284.935581,336.316517 286.897877,334.354221 286.897877,331.933607 L286.897877,260.843132 L260.924847,269.216164 Z" id="Path-167" fill="#0B4651" fill-rule="nonzero"></path>
                    <path d="M196.448945,335.257028 C196.448945,335.257028 173.10042,339.69447 174.392673,344.587594 C174.90488,346.527067 179.555215,350.040255 191.692872,350.040255 C194.606209,350.040255 197.855693,349.761104 201.441322,349.202803 L201.441322,349.202799 C203.98042,348.807448 205.852799,346.620969 205.852799,344.051276 L205.852799,337.737085 C199.583563,336.083714 196.448945,335.257028 196.448945,335.257028 Z" id="Path-165" fill="url(#linearGradient-6)" fill-rule="nonzero"></path>
                    <path d="M327.264572,239.769169 L253.000138,235.1356 C241.684982,234.429616 231.210889,241.117882 227.090996,251.679969 L194.604741,334.964333 C193.663843,337.376494 194.856538,340.094685 197.268699,341.035583 C197.406178,341.089209 197.546113,341.136314 197.688036,341.17674 C200.606997,342.008199 203.719211,340.763724 205.260117,338.148907 L239.814131,279.513005 C244.887921,270.903116 255.097251,266.755198 264.738254,269.386658 L308.539294,281.341918 L327.264572,239.769169 Z" id="Path-164" fill="#0B4651" fill-rule="nonzero"></path>
                    <path d="M343.028508,147.256585 C343.445117,146.803083 344.575072,147.77505 346.418371,150.172486 C350.852108,155.939102 359.651386,177.564517 354.037013,184.197925 C347.902583,191.445783 339.887127,189.795403 329.990647,179.246785 L343.028508,147.256585 Z" id="Path-162" fill="url(#linearGradient-7)" fill-rule="nonzero"></path>
                    <polygon id="Path-157" fill="#FFD7B3" fill-rule="nonzero" points="308.558069 131.181934 308.558069 147.956447 324.730149 145.997132 321.005077 125.812407"></polygon>
                    <g id="Group-23" transform="translate(285.842608, 81.531378)">
                        <path d="M6.35373198,24.6791439 C3.76265082,38.6854726 5.03404316,47.8044302 10.167909,52.0360166 C17.8687078,58.3833962 36.9102938,54.0600403 41.9439214,50.6095401 C45.2996731,48.3092067 33.4362766,39.6657413 6.35373198,24.6791439 Z" id="Path-156" fill="#FFD7B3" fill-rule="nonzero"></path>
                        <path d="M5.9764471,31.2472289 C-0.39258803,34.305209 -1.41461105,24.8990655 2.76348518,24.8990655 C-0.499306418,14.1877518 5.14070924,1.94827629 18.0270845,0.491867468 C41.7064322,-2.18435532 37.159072,15.5611283 46.25026,13.6336213 C54.0246155,11.9853082 57.3902902,21.3460887 53.8518352,30.334712 C52.3478503,34.1552366 49.4261761,36.7652278 46.25026,41.8642099 C47.3258716,41.8642099 49.3272685,44.5262952 47.9544024,47.2200852 C46.8569896,49.3733905 44.4786105,50.9779485 42.3220651,49.8792297 C43.4213819,55.3243007 24.9132134,58.0290379 19.4180886,38.4332859 C13.2622632,34.182114 11.1849457,39.6236624 5.9764471,31.2472289 Z" id="Path-154" fill="#0B4651" fill-rule="nonzero"></path>
                        <path d="M19.2686381,38.6104628 L19.2686381,33.5566696 C19.2686381,24.4857841 25.7557883,16.712918 34.6803842,15.0904038 L43.1961085,13.5422235 L39.299893,9.43682337 L29.8919881,11.581067 C21.7488286,13.4370507 15.5838376,20.1073154 14.373734,28.3711747 C14.373734,31.6613926 12.7946192,34.7517031 10.1282927,36.6794573 L9.45454655,37.1665758 L19.2686381,38.6104628 Z" id="Path-155" fill="url(#linearGradient-8)" fill-rule="nonzero"></path>
                        <path d="M40.8268127,11.3801696 C39.0345307,11.7886653 36.3461078,12.4014089 32.7615439,13.2184005 C24.0480891,15.2043655 17.5515512,22.5696502 16.6011596,31.5398255 L15.7036047,40.0113057" id="Path-155-Copy" stroke="#FFFFFF" stroke-width="0.58653" stroke-linecap="round" stroke-linejoin="round"></path>
                        <path d="M15.4758973,47.1841168 C18.5399527,47.1841168 21.0238605,44.1473911 21.0238605,40.4014001 C21.0238605,36.655409 18.5399527,33.6186833 15.4758973,33.6186833 C14.5958704,33.6186833 13.5408446,33.6186833 12.3108201,33.6186833 C10.7222294,36.7190526 9.9279341,38.9799582 9.9279341,40.4014001 C9.9279341,42.1764425 10.7222294,44.4373481 12.3108201,47.1841168 C13.8300744,47.1841168 14.8851001,47.1841168 15.4758973,47.1841168 Z" id="Oval-17" fill="url(#linearGradient-9)" fill-rule="nonzero"></path>
                        <ellipse id="Oval-17-Copy" fill="url(#linearGradient-10)" fill-rule="nonzero" cx="12.5559167" cy="40.4014001" rx="5.54796318" ry="6.7827168"></ellipse>
                        <ellipse id="Oval-17-Copy-2" fill="#FFFFFF" fill-rule="nonzero" cx="12.5559167" cy="40.4014001" rx="2.04398643" ry="2.65410657"></ellipse>
                    </g>
                    <path d="M309.368598,144.989133 C315.286871,147.49364 320.085472,147.49364 323.764399,144.989133 C327.443326,142.484627 333.840707,143.19963 342.956542,147.134142 L354.242167,238.982464 L300.832365,248.425175 C290.641096,246.001813 285.474429,243.47144 285.332362,240.834056 C285.0096,234.842187 286.807687,229.612705 290.726622,225.145609 C294.444411,219.365211 295.397417,202.919697 293.585642,175.809068 L267.571599,180.727973 C258.877807,182.371851 250.382765,177.049879 248.068928,168.509942 L239.774932,137.89836 C238.927937,134.772261 240.124897,131.450062 242.77106,129.582519 C244.837809,128.1239 247.695685,128.616887 249.154304,130.683636 C249.297631,130.886719 249.424188,131.101132 249.532723,131.324751 L260.793366,154.525649 C263.307889,159.706456 269.546187,161.867905 274.726994,159.353381 C275.110795,159.167102 275.482803,158.957444 275.840919,158.725589 L284.028631,153.424627 C291.622618,148.508061 300.342977,145.605115 309.368598,144.989133 Z" id="Path-158" fill="url(#linearGradient-11)" fill-rule="nonzero"></path>
                    <path d="M304.542974,145.243937 C303.583606,158.519656 306.674617,166.058961 313.816006,167.861852 C324.52809,170.566189 320.364642,185.124328 332.679955,183.087705 C344.995267,181.051083 340.366917,148.402607 333.393121,145.243937 C329.696541,145.293121 327.100887,144.953397 325.606159,144.224766 L321.158418,147.11115 L312.022252,147.987333 L308.120495,146.372278 L304.542974,145.243937 Z" id="Path-160" fill="#0B4651" fill-rule="nonzero" opacity="0.340000004"></path>
                    <path d="M301.850292,146.231764 C304.44147,147.028826 305.041006,164.560213 315.75309,167.26455 C326.465174,169.968887 325.26607,182.764619 335.886443,180.392399 C346.506816,178.020178 345.874916,146.673886 330.711948,141.981535 C326.974645,140.824985 324.662755,141.137894 323.776278,142.920264 L322.460662,145.806648 L313.324496,146.682831 L310.074397,143.939435 C308.80111,143.259987 307.553881,142.920264 306.332711,142.920264 C304.500957,142.920264 302.585858,143.939435 301.850292,146.231764 Z" id="Path-160-Copy" fill="url(#linearGradient-12)" fill-rule="nonzero"></path>
                    <path d="M307.527161,143.009453 C311.035571,145.766268 313.760682,148.610246 315.702496,151.541388 C320.617999,160.384945 334.845288,161.523181 336.551407,154.142541 C337.688819,149.222114 336.233435,145.73919 332.185254,143.693769 C328.633737,142.257424 326.335402,141.664692 325.29025,141.915573 C324.639877,142.071691 323.853454,143.316288 323.486422,143.693769 C321.608774,145.62487 314.297092,145.574301 311.898472,144.620598 C310.299392,143.984796 308.842289,143.447748 307.527161,143.009453 Z" id="Path-159" fill="#0B4651" fill-rule="nonzero"></path>
                    <g id="Group-8" transform="translate(255.890991, 208.720329)">
                        <path d="M94.8695235,68.8455437 C94.920155,68.8266333 94.9714521,68.809562 95.0233145,68.7943632 C96.2121618,68.4459609 97.45786,69.1289472 97.8056593,70.3198558 L120.144744,146.811694 C120.348239,147.508485 119.960624,148.240848 119.270692,148.463137 C118.586024,148.68373 117.852475,148.306562 117.632264,147.620707 L93.3486073,71.9885664 C92.9355481,70.7020817 93.6054753,69.3176555 94.8695235,68.8455437 Z" id="Path-163-Copy-2" fill="#0B4651" fill-rule="nonzero"></path>
                        <path d="M29.7003092,68.4863578 L0,139.003909" id="Path-163-Copy" stroke="#0B4651" stroke-width="1.9551" stroke-linecap="round" stroke-linejoin="round"></path>
                        <path d="M69.6578874,67.4851869 L71.6022905,135.922209" id="Path-163-Copy-3" stroke="#0B4651" stroke-width="1.9551" stroke-linecap="round" stroke-linejoin="round"></path>
                        <path d="M54.1397553,33.0743791 C65.922084,25.8299828 60.7542365,1.75694334 88.1730692,0.524172885 C112.538298,0.524172885 116.371646,33.0743791 109.790127,49.74298 C103.333465,63.1905831 96.8526546,81.6404184 63.7931229,81.6404184 C42.453814,81.6404184 22.5100308,75.5991164 3.96177346,63.5165126 C3.96177346,51.8975697 7.66927518,44.6125836 15.0842786,41.6615541 C26.2067838,37.2350099 42.3574266,40.3187753 54.1397553,33.0743791 Z" id="Path-161" fill="#7DD977" fill-rule="nonzero"></path>
                        <path d="M60.675937,68.4407495 C57.838011,73.9508535 55.1338984,78.2053551 52.5635992,81.2042544 C55.8002635,81.8814253 58.7576701,81.8814253 61.4358189,81.2042544 L60.675937,68.4407495 Z" id="Path-168" fill="#0B4651" fill-rule="nonzero" opacity="0.119999997"></path>
                        <path d="M38.3097203,38.1710527 C44.0161565,37.2607129 49.6851817,35.8132855 54.1397553,33.0743791 C65.922084,25.8299828 60.7542365,1.75694334 88.1730692,0.524172885 C90.1121471,0.436990548 91.9369211,0.548936492 93.6473912,0.860010717" id="Path-161-Copy" stroke="#0B4651" stroke-width="1.9551" stroke-linecap="round" stroke-linejoin="round"></path>
                        <path d="M62.8212862,67.5783139 C64.1522165,67.8001715 65.0735912,69.0291491 64.9134138,70.3689027 L55.4814953,149.2592 C55.3961493,149.97305 54.7482735,150.482552 54.0344241,150.397206 C54.0342479,150.397185 54.0340716,150.397164 54.0338954,150.397143 C53.3142237,150.310802 52.794208,149.667041 52.8611334,148.945305 L60.2202929,69.5827366 C60.3346176,68.3498367 61.426759,67.4430525 62.6596588,67.5573772 C62.7137705,67.5623949 62.7676819,67.5693784 62.8212862,67.5783139 Z" id="Path-163" fill="#0B4651" fill-rule="nonzero"></path>
                    </g>
                    <g id="Group-24" transform="translate(380.255315, 104.360164)" fill-rule="nonzero">
                        <path d="M0.534196089,1.81173035 C0.586993318,20.4280023 4.49430659,29.7361382 12.2561359,29.7361382 C23.8988799,29.7361382 30.0872857,18.0088364 30.2092247,7.80100277 C30.2905173,0.995780379 20.3988411,-1.00064376 0.534196089,1.81173035 Z" id="Path-171" fill="#0B4651" opacity="0.200000003"></path>
                        <path d="M0.534196089,1.81173035 C-0.646434439,20.2173821 2.64416495,29.420208 10.4059943,29.420208 C22.0487382,29.420208 26.7289077,17.7782079 26.8508467,7.5703743 C26.9321394,0.765151911 18.1599225,-1.15439607 0.534196089,1.81173035 Z" id="Path-171-Copy" fill="#FFD7B3"></path>
                    </g>
                    <path d="M378.783627,108.250533 C381.86418,110.027482 385.387106,110.915956 389.352405,110.915956 C395.300354,110.915956 398.196431,108.291472 400.73763,107.075025 C407.541085,108.250533 399.499983,121.517563 404.360527,124.773652 C409.221071,128.029741 404.554654,137.172805 406.02499,139.282386 C423.586997,131.195561 432.844944,158.337911 434.994138,162.565197 C437.025333,163.628852 453.035205,141.530921 425.772642,123.588424 C422.496763,121.432447 428.654696,114.390678 424.629538,107.075025 C420.260568,99.1345002 414.479261,102.262196 410.703043,96.6456765 C405.422172,88.7912251 397.970726,80.6563563 384.492578,86.6579445 C373.060041,91.748657 371.157057,98.9461866 378.783627,108.250533 Z" id="Path-172" fill="#0B4651" fill-rule="nonzero"></path>
                    <path d="M383.052691,194.93148 L382.337519,165.543533" id="Path-179" stroke="#0B4651" stroke-width="1.3034" stroke-linecap="round" stroke-linejoin="round"></path>
                    <path d="M429.973822,186.700678 L413.328892,170.911008 C411.64889,169.317329 408.995047,169.387308 407.401368,171.06731 C407.292849,171.181707 407.19087,171.302134 407.095916,171.428018 C405.408179,173.665517 405.344051,176.73268 406.936791,179.038768 L417.915381,194.934388" id="Path-233" stroke="#0B4651" stroke-width="1.3034" stroke-linecap="round" stroke-linejoin="round"></path>
                    <path d="M420.876236,162.077126 L424.60889,181.552974" id="Path-235" stroke="#0B4651" stroke-width="1.3034" stroke-linecap="round" stroke-linejoin="round"></path>
                    <g id="Path-237"></g>
                    <path d="M443.316217,200.313188 C447.719832,207.190021 447.719832,211.616012 443.316217,213.591158 C436.710794,216.553878 422.136802,221.348909 423.42177,239.70491 C424.278415,251.942243 421.616479,259.672473 415.435964,262.895597" id="Path-239" stroke="#0B4651" stroke-width="1.9551" stroke-linecap="round" stroke-linejoin="round"></path>
                    <g id="Path-241"></g>
                    <path d="M351.898333,324.780847 L329.613605,329.99691 C328.899864,331.636118 329.552455,332.633609 331.57138,332.989383 C333.590304,333.345157 342.324219,333.523044 357.773125,333.523044 L358.566361,325.995184 L351.898333,324.780847 Z" id="Path-244" fill="#0B4651" fill-rule="nonzero"></path>
                    <path d="M416.753651,324.563266 C411.841603,326.072612 409.579058,328.831822 409.966014,332.840899 C415.770361,333.604882 422.111114,333.604882 428.988274,332.840899 L426.76413,324.563266 L416.753651,324.563266 Z" id="Path-245" fill="#0B4651" fill-rule="nonzero"></path>
                    <path d="M424.038505,268.816402 C424.93459,268.922456 425.575036,269.734852 425.468982,270.630937 C425.468303,270.636675 425.467593,270.642409 425.466853,270.648139 L417.564988,331.84368 C417.495496,332.381854 417.00837,332.765633 416.468878,332.707242 C415.932534,332.649191 415.544734,332.167438 415.602586,331.631073 L422.221616,270.264058 C422.318405,269.3667 423.124321,268.71771 424.02168,268.814499 C424.027291,268.815104 424.0329,268.815738 424.038505,268.816402 Z" id="Path-246" fill="#0B4651" fill-rule="nonzero"></path>
                </g>
                <g id="Group-29" transform="translate(0.000000, 229.981941)">
                    <path d="M76.3203612,78.4178329 C77.2381467,49.4674962 72.6069864,29.3741217 62.4268805,18.1377096 C57.3623268,20.3016565 52.9141874,42.8371578 59.2642797,48.2777712 C63.4976746,51.9048469 65.836672,62.8319491 66.281272,81.059078 L76.3203612,78.4178329 Z" id="Path-261" fill="#1D9F90" fill-rule="nonzero"></path>
                    <path d="M64.8974872,33.2282974 C68.6183406,52.6632761 70.0666018,64.5687251 69.242271,68.9446441" id="Path-268" stroke="#0D6574" stroke-width="1.17306"></path>
                    <path d="M67.5582311,70.0308258 C77.4544527,43.060201 91.4690256,29.4526287 109.60195,29.2081089 C110.542859,47.963885 106.085517,53.8722263 92.0204266,57.5820645 C77.9553366,61.2919026 98.2341983,65.8788225 92.0204266,73.2840016 C87.8779121,78.2207876 81.1944106,84.7024939 71.9699221,92.7291204 L64.968918,81.2937146 L67.5582311,70.0308258 Z" id="Path-260" fill="#2CB0A0" fill-rule="nonzero"></path>
                    <path d="M71.3668494,87.1453965 C74.8382415,58.8144525 83.7329215,41.6855065 98.0508894,35.7585586" id="Path-266" stroke="#0D6574" stroke-width="1.17306"></path>
                    <path d="M64.3774173,87.1978153 C64.3774173,82.8465966 26.3670603,72.1562927 29.1225811,59.2333203 C31.8781019,46.3103478 30.9338252,31.8246915 9.47868134,41.3462036 C-11.9764626,50.8677157 11.1923686,9.17589854 2.09749337,0.576535608 C30.4499342,1.9017799 75.3995005,33.6045682 69.8884589,87.1978153 C64.3774173,90.1078309 64.3774173,91.5490341 64.3774173,87.1978153 Z" id="Path-259" fill="#33BAAA" fill-rule="nonzero"></path>
                    <path d="M7.94753515,4.52741038 C44.4160913,29.2592178 63.1866371,59.0450959 64.2591726,93.8850448" id="Path-262" stroke="#0D6574" stroke-width="1.17306"></path>
                    <rect id="Rectangle-45" fill="#7DD977" fill-rule="nonzero" x="56.2624351" y="84.3900677" width="32.0383311" height="91.4225734"></rect>
                    <path d="M56.2624351,94.5481314 L88.3007661,94.5481314 L88.3007661,96.1109105 L56.2624351,96.1109105 L56.2624351,94.5481314 Z M56.2624351,99.2364685 L88.3007661,99.2364685 L88.3007661,100.799248 L56.2624351,100.799248 L56.2624351,99.2364685 Z" id="Combined-Shape" fill="#FFFFFF" fill-rule="nonzero"></path>
                    <path d="M56.2624351,156.277903 L88.3007661,156.277903 L88.3007661,157.840682 L56.2624351,157.840682 L56.2624351,156.277903 Z M56.2624351,160.96624 L88.3007661,160.96624 L88.3007661,162.529019 L56.2624351,162.529019 L56.2624351,160.96624 Z" id="Combined-Shape-Copy-4" fill="#FFFFFF" fill-rule="nonzero"></path>
                    <rect id="Rectangle-45-Copy-3" fill="#0B4651" fill-rule="nonzero" opacity="0.200000003" x="76.5794255" y="84.3900677" width="11.7213406" height="91.4225734"></rect>
                    <path d="M36.9544993,59.186134 C47.0266365,58.336893 54.3073022,60.0700208 58.7964962,64.3855174 C57.5175915,61.3100678 58.366037,56.4529861 61.3418327,49.8142723" id="Path-263" stroke="#0D6574" stroke-width="1.17306"></path>
                    <path d="M16.5901447,23.9354284 C27.3679801,24.7530723 34.6178788,26.8653651 38.3398409,30.2723069" id="Path-264" stroke="#0D6574" stroke-width="1.17306"></path>
                    <path d="M43.4446499,36.4861231 C43.2406461,28.8113575 43.7767106,24.6629929 45.0528436,24.0410292" id="Path-265" stroke="#0D6574" stroke-width="1.17306"></path>
                    <path d="M80.6152101,53.8528787 C87.6827249,49.8450379 93.242385,48.8430777 97.2941903,50.8469981" id="Path-267" stroke="#0D6574" stroke-width="1.17306"></path>
                </g>
            </g>
        </g>
    </g>
</svg>