<?xml version="1.0" encoding="UTF-8"?>
<svg width="613px" height="452px" viewBox="0 0 613 452" version="1.1" xmlns="http://www.w3.org/2000/svg" xmlns:xlink="http://www.w3.org/1999/xlink">
    <!-- Generator: sketchtool 49 (51002) - http://www.bohemiancoding.com/sketch -->
    <title>87F061E2-E995-4534-BDB1-D9A1ADBAE361@3x</title>
    <desc>Created with sketchtool.</desc>
    <defs>
        <ellipse id="path-1" cx="137.637066" cy="137.841341" rx="67.3679343" ry="67.4588269"></ellipse>
        <filter x="-58.6%" y="-57.1%" width="217.3%" height="217.1%" filterUnits="objectBoundingBox" id="filter-2">
            <feOffset dx="0" dy="2" in="SourceAlpha" result="shadowOffsetOuter1"></feOffset>
            <feGaussianBlur stdDeviation="26" in="shadowOffsetOuter1" result="shadowBlurOuter1"></feGaussianBlur>
            <feColorMatrix values="0 0 0 0 0.0281614824   0 0 0 0 0.343719194   0 0 0 0 0.39750744  0 0 0 0.183282382 0" type="matrix" in="shadowBlurOuter1"></feColorMatrix>
        </filter>
        <path d="M62.3493946,145.582071 C52.3002047,62.4307651 41.4077478,14.0249483 29.6720237,0.364620192 C1.18387829,29.8590962 29.2616228,55.8994901 20.4655805,69.6813404 C11.6695382,83.4631907 1.18387829,60.3565725 1.18387829,88.2713231 C1.18387829,116.186074 62.2671573,164.73442 35.7191593,164.73442 C9.17116121,164.73442 -8.14820227,149.604788 4.92047218,182.127071 C17.9891466,214.649354 -20.722368,267.074923 24.4165141,224.600997 C54.5091022,196.285047 67.1533957,169.945404 62.3493946,145.582071 Z" id="path-3"></path>
        <filter x="-61.6%" y="-37.1%" width="223.3%" height="201.1%" filterUnits="objectBoundingBox" id="filter-5">
            <feOffset dx="0" dy="12" in="SourceAlpha" result="shadowOffsetOuter1"></feOffset>
            <feGaussianBlur stdDeviation="13" in="shadowOffsetOuter1" result="shadowBlurOuter1"></feGaussianBlur>
            <feColorMatrix values="0 0 0 0 0.0509803922   0 0 0 0 0.396078431   0 0 0 0 0.454901961  0 0 0 0.276664402 0" type="matrix" in="shadowBlurOuter1" result="shadowMatrixOuter1"></feColorMatrix>
            <feMerge>
                <feMergeNode in="shadowMatrixOuter1"></feMergeNode>
                <feMergeNode in="SourceGraphic"></feMergeNode>
            </feMerge>
        </filter>
        <linearGradient x1="51.4020451%" y1="-28.1753217%" x2="53.1164001%" y2="90.2564603%" id="linearGradient-6">
            <stop stop-color="#80D97A" offset="0%"></stop>
            <stop stop-color="#2ACFBC" offset="100%"></stop>
        </linearGradient>
        <polygon id="path-7" points="13.8580294 0.0352157249 0.180212982 47.9894322 148.597486 47.9894322 161.14514 0.0352157249"></polygon>
    </defs>
    <g id="Messaging" stroke="none" stroke-width="1" fill="none" fill-rule="evenodd">
        <g transform="translate(-233.000000, -3676.000000)" id="Support">
            <g transform="translate(0.000000, 3472.000000)">
                <g transform="translate(233.000000, 204.000000)">
                    <g id="Group-18" transform="translate(196.000000, 71.000000)">
                        <path d="M137.514567,275.099504 C213.285673,275.099504 274.710291,213.592012 274.710291,137.718676 C274.710291,61.8453401 213.285673,0.337848335 137.514567,0.337848335 C61.7434605,0.337848335 0.318842534,61.8453401 0.318842534,137.718676 C0.318842534,213.592012 61.7434605,275.099504 137.514567,275.099504 Z" id="Oval-10" stroke="#2F8F83" stroke-width="3" stroke-linecap="round" stroke-linejoin="round" stroke-dasharray="4,18"></path>
                        <ellipse id="Oval-10-Copy-2" fill="#D6F1EE" opacity="0.345674819" cx="137.637066" cy="137.841341" rx="97.8416708" ry="97.9736783"></ellipse>
                        <g id="Oval-10-Copy">
                            <use fill="black" fill-opacity="1" filter="url(#filter-2)" xlink:href="#path-1"></use>
                            <use fill="#FFFFFF" fill-rule="evenodd" xlink:href="#path-1"></use>
                        </g>
                    </g>
                    <path d="M174.26973,152 C174.26973,121.512871 192.57875,63.9532235 227,53.0888516 C212.944857,49.6370382 204.347267,50.4632989 201.207229,55.5676338 C191.94286,50.5733 184.606301,49.7470393 179.197551,53.0888516 C172.420936,57.2758039 166.76245,66.7251802 171.42775,73.9669753 C160.26038,68.9223623 149.979276,76.9839572 146.471673,93.8985852 C142.964071,110.813213 159.954605,113.564018 166.540671,113.564018 C163.239379,132.201473 167.745648,145.862779 174.26973,152 Z" id="Path-37" fill="#D6F1EE"></path>
                    <path d="M416.450498,340.690342 C421.994259,341.67951 426.203855,346.544544 426.203855,352.397172 C426.203855,354.486256 425.667502,356.449509 424.725571,358.155573 C426.813843,360.235247 428.188184,362.810558 428.27497,365.673987 C428.428654,370.744644 424.744493,375.654023 417.222485,380.402123 C418.662801,386.289487 414.476089,397.732119 404.662347,414.730018 C408.855799,365.63656 380.808192,334.6937 355.738992,319.913762 C372.546505,319.946155 376.321827,319.469778 385.764503,324.92151 C388.584354,316.808177 400.419921,315.049995 408.767679,320.015963 C413.921434,323.081863 416.958678,332.470311 416.450498,340.690342 Z" id="Combined-Shape" fill="#D6F1EE" transform="translate(392.009289, 365.988243) rotate(94.000000) translate(-392.009289, -365.988243) "></path>
                    <path d="M529.946188,110.454728 C533.827006,111.120626 536.78021,114.502955 536.78021,118.575318 C536.78021,120.033947 536.401339,121.404051 535.736677,122.592515 C537.144463,124.023422 538.065845,125.786725 538.12166,127.745556 C538.222078,131.269776 535.660567,134.68658 530.437129,137.995966 C531.429024,142.086276 528.51095,150.044691 521.682906,161.87121 C524.65158,127.743229 505.234076,106.270317 487.862833,96.0279618 C499.521339,96.0299754 502.140675,95.6942604 508.683946,99.4720195 C510.649835,93.8293324 518.86173,92.5928543 524.646102,96.0343149 C528.229748,98.1664348 530.327229,104.726464 529.946188,110.454731 Z" id="Combined-Shape-Copy-8" fill="#D6F1EE" transform="translate(512.993667, 127.996461) rotate(-5.000000) translate(-512.993667, -127.996461) "></path>
                    <g id="Group-19" transform="translate(416.000000, 208.000000)">
                        <rect id="Rectangle-19" fill="#0D6574" transform="translate(44.918328, 59.755024) rotate(-19.000000) translate(-44.918328, -59.755024) " x="15.9221823" y="6.66630015" width="57.9922921" height="106.177447" rx="5.32224"></rect>
                        <rect id="Rectangle-19-Copy" fill="#FFFFFF" transform="translate(44.389943, 58.217846) rotate(-19.000000) translate(-44.389943, -58.217846) " x="19.6433291" y="12.3452211" width="49.4932283" height="91.7452493" rx="5.32224"></rect>
                        <polygon id="Path-40" fill="#14444C" opacity="0.400000006" points="18.5217823 69.9019137 33.6151013 92.4699068 41.3814467 81.8855807 38.3935085 111.097034 27.5296861 114.391135"></polygon>
                        <g id="Group-17" transform="translate(52.203566, 29.983983) rotate(-18.000000) translate(-52.203566, -29.983983) translate(15.203566, 17.483983)">
                            <rect id="Rectangle-20-Copy" fill="#0D6574" opacity="0.200000003" x="0.0660080187" y="4.4460347" width="69.321019" height="20.5348151" rx="3.25248"></rect>
                            <rect id="Rectangle-20" fill="#6AC264" x="4.31570546" y="0" width="69.321019" height="20.5348151" rx="3.25248"></rect>
                            <ellipse id="Oval-11" fill="#0D6574" cx="14.5655059" cy="10.2674075" rx="5.39463183" ry="5.40389871"></ellipse>
                            <path d="M24.5940594,8.47390359 L67.2985129,8.47390359" id="Path-38" stroke="#0D6574" stroke-width="1.77408"></path>
                            <path d="M24.2758432,14.0499991 L39.6505439,14.0499991" id="Path-38-Copy" stroke="#0D6574" stroke-width="1.77408"></path>
                        </g>
                        <g id="Group-17-Copy" transform="translate(54.471339, 61.087652) rotate(-18.000000) translate(-54.471339, -61.087652) translate(26.471339, 51.087652)">
                            <rect id="Rectangle-20-Copy-2" fill="#0D6574" opacity="0.200000003" x="0.217176679" y="4.21576455" width="51.3334867" height="15.2064074" rx="3.25248"></rect>
                            <rect id="Rectangle-20" fill="#D6F1EE" x="4.31570546" y="0" width="51.3334867" height="15.2064074" rx="3.25248"></rect>
                            <path d="M18.4875154,8.50659341 L48.3937598,8.50659341" id="Path-38-Copy-2" stroke="#0D6574" stroke-width="1.77408"></path>
                            <ellipse id="Oval-11" fill="#0D6574" cx="11.9058708" cy="7.60320371" rx="3.99482387" ry="4.00168616"></ellipse>
                        </g>
                        <path d="M47.0866386,215.361675 C45.1060348,180.431325 37.168456,146.131666 38.045153,139.794517 C38.9218501,133.457369 41.6711242,129.036775 44.1634705,124.3304 C45.5542041,121.704234 48.4643008,113.063729 50.5204312,102.537483 C52.1491107,94.1995486 49.6416191,85.8476984 49.6416191,82.859064 C48.2953247,76.9482768 41.7736264,77.9446413 40.2177085,82.5182818 C38.9861518,86.1384581 38.6274022,92.2764881 36.5137691,97.5466196 C35.585395,99.8614268 33.539315,102.975563 30.3755289,106.889029 L18.1140915,69.6400106 C9.65746006,73.9281183 1.95564764,94.7235169 6.57712376,117.811425 C8.02284313,125.033931 11.6753844,134.286297 11.8687399,144.829863 C12.3689899,172.108207 3.85620622,209.318011 2.29055213,236.366309 C11.8687399,211.337453 38.045153,231.043172 47.0866386,215.361675 Z" id="Path-39" fill="#FFD7B3"></path>
                        <path d="M43.2342552,87.9165147 L49.7489539,87.9165147 C49.5269666,82.6633008 48.2658275,80.0366938 45.9655366,80.0366938 C43.6652456,80.0366938 42.7548185,82.6633008 43.2342552,87.9165147 Z" id="Path-41" stroke="#AA927C" stroke-width="0.6"></path>
                    </g>
                    <g id="Group-28" transform="translate(451.000000, 134.000000)">
                        <g id="Group-27" transform="translate(80.330189, 0.000000)">
                            <mask id="mask-4" fill="white">
                                <use xlink:href="#path-3"></use>
                            </mask>
                            <use id="Path-53" fill="#26A697" xlink:href="#path-3"></use>
                            <path d="M-1.38892342,123.877839 C36.0880078,120.698572 56.584007,113.04812 60.0990742,100.926483 C63.6141413,88.8048456 70.2858852,96.4552977 80.1143057,123.877839 L9.5201317,234.65562 C-6.50254301,219.187559 -14.5138804,210.762502 -14.5138804,209.38045 C-14.5138804,207.998397 -10.1388947,179.497527 -1.38892342,123.877839 Z" id="Path-57" fill="#0D6574" opacity="0.400000006" mask="url(#mask-4)"></path>
                            <path d="M31.0727271,4.48817813 C52.8824659,89.6160502 54.9133478,145.363018 37.1653728,171.729082" id="Path-55" stroke="#0D6574" stroke-width="2.13521094" mask="url(#mask-4)"></path>
                            <path d="M29.2354298,87.3080774 L49.6423777,122.457002" id="Path-56" stroke="#0D6574" stroke-width="2.13521094" mask="url(#mask-4)"></path>
                        </g>
                        <g id="Group-56" transform="translate(97.637287, 198.472354) rotate(69.000000) translate(-97.637287, -198.472354) translate(39.137287, 116.972354)">
                            <path d="M106.91297,160.763971 C106.91297,153.530827 43.5594221,119.174584 48.111651,97.6923904 C52.6638799,76.2101964 51.1038976,52.1303121 15.6591549,67.95817 C-19.7855878,83.7860278 18.4902338,14.480633 3.46514166,0.185687727 C50.3044906,2.38867586 124.562945,55.0890476 115.458487,144.1785 C116.735823,151.43145 106.91297,167.997115 106.91297,160.763971 Z" id="Path-259" fill="#33BAAA"></path>
                            <path d="M13.1296411,6.75332989 C73.3766808,47.8656582 104.38613,97.3795001 106.157987,155.294856" id="Path-262" stroke="#0D6574" stroke-width="2.13521094"></path>
                            <path d="M61.0502884,97.6139514 C77.6898557,96.202236 89.7178021,99.0832596 97.1341275,106.257022 C95.0213265,101.144622 96.4229918,93.0705685 101.339124,82.0348614" id="Path-263" stroke="#0D6574" stroke-width="2.13521094"></path>
                            <path d="M27.4075725,39.0157844 C45.212981,40.3749751 57.1900993,43.8862945 63.3389272,49.5497427" id="Path-264" stroke="#0D6574" stroke-width="2.13521094"></path>
                            <path d="M71.7722728,59.8791314 C71.4352504,47.1211684 72.3208501,40.2252337 74.429072,39.1913273" id="Path-265" stroke="#0D6574" stroke-width="2.13521094"></path>
                        </g>
                        <path d="M144.508686,67.5540147 C148.26359,34.6535201 135.368091,46.4914753 135.368091,11.5825317 C178.461175,45.092143 157.150143,58.8290579 144.508686,67.5540147 Z" id="Path-54" fill="#26A697"></path>
                    </g>
                    <g id="Group-20" transform="translate(297.000000, 169.000000)">
                        <g id="Group-12" filter="url(#filter-5)" transform="translate(0.000000, 0.119318)">
                            <path d="M72.6714305,4.84786552 L72.6714313,53.6250324 C72.6714313,61.4427791 69.1273314,68.8390425 63.0342293,73.7371308 C51.0484847,83.372163 42.14898,88.189679 36.3357149,88.189679 C30.5224501,88.189679 21.6229457,83.3721633 9.63720174,73.7371317 C3.54409972,68.8390437 4.42917462e-15,61.4427806 0,53.6250342 L0,4.84786565 C3.74621824,5.67798144 7.84950791,6.13578075 12.1512294,6.13578075 C21.8128121,6.13578075 30.47342,3.82644478 36.3357149,0.176266552 C42.1980099,3.82644478 50.8586178,6.13578075 60.5202005,6.13578075 C64.8219222,6.13578075 68.9252121,5.6779814 72.6714305,4.84786552 Z" id="Combined-Shape" fill="#3CC291"></path>
                            <path d="M72.6714299,54.6764397 C72.6714299,61.7771244 69.4748116,68.5003835 63.9680157,72.9818186 C51.5097175,83.1203922 42.2989505,88.189679 36.3357149,88.189679 L36.3357149,0.176266552 C42.1980099,3.82644478 50.8586178,6.13578075 60.5202005,6.13578075 C64.8219223,6.13578075 68.9252122,5.67798138 72.6714306,4.84786549 L72.6714299,54.6764397 Z" id="Combined-Shape-Copy-5" fill="#0D6574" opacity="0.300000012"></path>
                            <ellipse id="Oval-9" stroke="#FFFFFF" stroke-width="3.354624" cx="36.4536881" cy="43.068461" rx="21.8250236" ry="21.82922"></ellipse>
                            <polyline id="Path-31" stroke="#FFFFFF" stroke-width="3.354624" points="27.3149835 43.1126262 35.0731282 51.1625538 48.8046296 35.0626986"></polyline>
                        </g>
                    </g>
                    <g id="Group-24" transform="translate(213.000000, 72.000000)">
                        <path d="M45.998716,45.6859313 C45.541397,50.7336341 48.452049,55.0148549 46.833981,56.7684392 C44.952008,58.8080308 37.2445198,55.3023712 32.2428919,50.2456742 C31.201818,50.3435048 30.1442545,50.3937033 29.0731629,50.3937033 C13.0164984,50.3937033 -1.70530257e-13,39.1126885 -1.70530257e-13,25.1968516 C-1.70530257e-13,11.2810147 13.0164984,0 29.0731629,0 C45.1298274,0 58.1463258,11.2810147 58.1463258,25.1968516 C58.1463258,33.6403423 53.3542954,41.1138218 45.998716,45.6859313 Z" id="Combined-Shape-Copy-4" fill="#0D6574"></path>
                        <g id="Group-23" transform="translate(17.095264, 9.519116)" fill="#FFFFFF" fill-rule="nonzero">
                            <path d="M4.15170701,12.4480742 L4.15170701,8.05463623 C4.15170701,3.60618348 7.75993195,8.67145949e-16 12.210903,0 C16.661874,-8.67145949e-16 20.270099,3.60618348 20.270099,8.05463623 L20.270099,12.4480742 L21.2469712,12.4480742 C22.8655061,12.4480742 24.1775879,13.7594136 24.1775879,15.3770328 L24.1775879,25.3843081 C24.1775879,27.0019273 22.8655061,28.3132668 21.2469712,28.3132668 L2.93061672,28.3132668 C1.3120818,28.3132668 1.98213361e-16,27.0019273 0,25.3843081 L0,15.3770328 C-1.98213361e-16,13.7594136 1.3120818,12.4480742 2.93061672,12.4480742 L4.15170701,12.4480742 Z M17.8279184,12.4480742 L17.8279184,8.05463623 C17.8279184,4.95419946 15.3130949,2.44079886 12.210903,2.44079886 C9.10871105,2.44079886 6.59388761,4.95419946 6.59388761,8.05463623 L6.59388761,12.4480742 L17.8279184,12.4480742 Z M12.210903,16.8415121 C11.6713913,16.8415121 11.2340307,17.2786253 11.2340307,17.8178317 L11.2340307,23.431669 C11.2340307,23.9708754 11.6713913,24.4079886 12.210903,24.4079886 C12.7504146,24.4079886 13.1877752,23.9708754 13.1877752,23.431669 L13.1877752,17.8178317 C13.1877752,17.2786253 12.7504146,16.8415121 12.210903,16.8415121 Z" id="Combined-Shape"></path>
                        </g>
                    </g>
                    <g id="Group-24-Copy" transform="translate(456.000000, 164.500000) scale(-1, 1) translate(-456.000000, -164.500000) translate(427.000000, 136.000000)">
                        <path d="M45.7086111,45.4001705 C45.2541763,50.4163005 48.1464714,54.6707427 46.5386082,56.4133585 C44.6685046,58.4401927 37.009626,54.9564606 32.0395423,49.9313928 C31.0050342,50.0286114 29.9541406,50.0784959 28.8898042,50.0784959 C12.9344059,50.0784959 0,38.8680427 0,25.0392479 C0,11.2104532 12.9344059,0 28.8898042,0 C44.8452024,0 57.7796083,11.2104532 57.7796083,25.0392479 C57.7796083,33.4299254 53.0178004,40.8566591 45.7086111,45.4001705 Z" id="Combined-Shape-Copy-4" fill="#6AC264"></path>
                        <g id="Group-23" transform="translate(16.987448, 9.459574)" fill="#FFFFFF" fill-rule="nonzero">
                            <path d="M4.12552301,12.3702128 L4.12552301,8.00425532 C4.12552301,3.58362717 7.71099159,8.61722041e-16 12.1338912,0 C16.5567908,-8.61722041e-16 20.1422594,3.58362717 20.1422594,8.00425532 L20.1422594,12.3702128 L21.1129707,12.3702128 C22.7212978,12.3702128 24.0251046,13.6733499 24.0251046,15.2808511 L24.0251046,25.2255319 C24.0251046,26.8330331 22.7212978,28.1361702 21.1129707,28.1361702 L2.91213389,28.1361702 C1.30380675,28.1361702 1.96963268e-16,26.8330331 0,25.2255319 L0,15.2808511 C-1.96963268e-16,13.6733499 1.30380675,12.3702128 2.91213389,12.3702128 L4.12552301,12.3702128 Z M17.7154812,12.3702128 L17.7154812,8.00425532 C17.7154812,4.92321146 15.2165182,2.42553191 12.1338912,2.42553191 C9.0512642,2.42553191 6.55230126,4.92321146 6.55230126,8.00425532 L6.55230126,12.3702128 L17.7154812,12.3702128 Z M12.1338912,16.7361702 C11.5977822,16.7361702 11.1631799,17.1705493 11.1631799,17.706383 L11.1631799,23.2851064 C11.1631799,23.8209401 11.5977822,24.2553191 12.1338912,24.2553191 C12.6700003,24.2553191 13.1046025,23.8209401 13.1046025,23.2851064 L13.1046025,17.706383 C13.1046025,17.1705493 12.6700003,16.7361702 12.1338912,16.7361702 Z" id="Combined-Shape"></path>
                        </g>
                    </g>
                    <g id="Group-25" transform="translate(0.000000, 152.000000)">
                        <g id="Group-15" transform="translate(30.649804, 0.000000)">
                            <path d="M40.0756794,225.340407 L184.8382,225.340407 C191.433738,225.340407 197.200161,220.893677 198.876654,214.514767 L221.176331,129.666434 C220.799601,127.144283 219.703194,126.069823 217.887108,126.443054 L56.8547555,129.666434 L33.8363667,217.249403 C32.9307278,220.69528 34.9899979,224.222881 38.4358751,225.12852 C38.9711253,225.269193 39.5222522,225.340407 40.0756794,225.340407 Z" id="Rectangle-18-Copy" fill="#0D6574"></path>
                            <path d="M37.6194526,222.147747 L183.832954,222.147747 C189.573515,222.147747 194.592438,218.277445 196.051608,212.725431 L218.720104,126.473774 L54.3985287,126.473774 L31.3801398,214.056743 C30.4745009,217.50262 32.533771,221.030221 35.9796483,221.93586 C36.5148984,222.076533 37.0660253,222.147747 37.6194526,222.147747 Z" id="Rectangle-18-Copy-3" fill="url(#linearGradient-6)"></path>
                            <path d="M31.9587583,19.8880453 L178.180122,19.8880453 C183.703428,19.8880453 188.586444,23.4760269 190.236667,28.7470495 L219.462139,122.09697 C219.93965,123.622203 219.700829,125.281628 218.812589,126.610304 L56.3635102,124.50906 L25.8101143,28.2917203 C24.7317921,24.895918 26.6104809,21.2689235 30.0062832,20.1906013 C30.6377121,19.9900939 31.2962587,19.8880453 31.9587583,19.8880453 Z" id="Rectangle-18" fill="#2199AE"></path>
                            <path d="M30.2393995,21.8527592 L176.500264,21.8527592 C182.004609,21.8527592 186.875452,25.4165667 188.541358,30.6627623 L218.965726,126.473774 L54.6441514,126.473774 L24.0907555,30.2564342 C23.0124333,26.8606319 24.8911222,23.2336374 28.2869245,22.1553152 C28.9183533,21.9548077 29.5768999,21.8527592 30.2393995,21.8527592 Z" id="Rectangle-18-Copy-2" fill="#0D6574"></path>
                            <g id="Group-14" transform="translate(47.703832, 133.350273)">
                                <mask id="mask-8" fill="white">
                                    <use xlink:href="#path-7"></use>
                                </mask>
                                <use id="Path-32" fill="#0D6574" xlink:href="#path-7"></use>
                                <path d="M23.9125824,-1.96471389 L10.2834305,51.803487" id="Path-34" stroke="#43BA8E" stroke-width="1.8816" mask="url(#mask-8)"></path>
                                <path d="M34.4743577,-1.96471389 L21.9095963,51.4440069" id="Path-34-Copy" stroke="#43BA8E" stroke-width="1.8816" mask="url(#mask-8)"></path>
                                <path d="M44.7905104,-1.96471389 L32.2930875,51.2726268" id="Path-34-Copy-2" stroke="#43BA8E" stroke-width="1.8816" mask="url(#mask-8)"></path>
                                <path d="M55.1066631,-1.96471389 L44.4577057,40.6263606" id="Path-34-Copy-3" stroke="#43BA8E" stroke-width="1.8816" mask="url(#mask-8)"></path>
                                <path d="M65.4228158,-1.96471389 L54.7738584,40.6263606" id="Path-34-Copy-4" stroke="#43BA8E" stroke-width="1.8816" mask="url(#mask-8)"></path>
                                <path d="M75.7389685,-1.96471389 L65.0900111,40.6263606" id="Path-34-Copy-5" stroke="#43BA8E" stroke-width="1.8816" mask="url(#mask-8)"></path>
                                <path d="M86.0551212,-1.96471389 L75.4061638,40.6263606" id="Path-34-Copy-6" stroke="#43BA8E" stroke-width="1.8816" mask="url(#mask-8)"></path>
                                <path d="M96.3712739,-1.96471389 L85.7223165,40.6263606" id="Path-34-Copy-7" stroke="#43BA8E" stroke-width="1.8816" mask="url(#mask-8)"></path>
                                <path d="M106.687427,-1.96471389 L92.4769403,53.1700697" id="Path-34-Copy-8" stroke="#43BA8E" stroke-width="1.8816" mask="url(#mask-8)"></path>
                                <path d="M117.249202,-1.96471389 L104.917967,49.9057665" id="Path-34-Copy-9" stroke="#43BA8E" stroke-width="1.8816" mask="url(#mask-8)"></path>
                                <path d="M127.565355,-1.96471389 L114.147607,54.6270776" id="Path-34-Copy-10" stroke="#43BA8E" stroke-width="1.8816" mask="url(#mask-8)"></path>
                                <path d="M138.12713,-1.96471389 L125.756005,53.4942973" id="Path-34-Copy-11" stroke="#43BA8E" stroke-width="1.8816" mask="url(#mask-8)"></path>
                                <path d="M149.425774,-1.96471389 L137.067583,52.093997" id="Path-34-Copy-12" stroke="#43BA8E" stroke-width="1.8816" mask="url(#mask-8)"></path>
                                <path d="M-0.245622683,40.0354563 L153.133708,40.0354563" id="Path-33" stroke="#43BA8E" stroke-width="1.8816" mask="url(#mask-8)"></path>
                                <path d="M0.491245367,32.1766007 L153.870576,32.1766007" id="Path-33-Copy" stroke="#43BA8E" stroke-width="1.8816" mask="url(#mask-8)"></path>
                                <path d="M3.92996293,24.3177452 L157.309293,24.3177452" id="Path-33-Copy-2" stroke="#43BA8E" stroke-width="1.8816" mask="url(#mask-8)"></path>
                                <path d="M7.3686805,16.4588896 L160.748011,16.4588896" id="Path-33-Copy-3" stroke="#43BA8E" stroke-width="1.8816" mask="url(#mask-8)"></path>
                                <path d="M10.8073981,8.60003404 L164.186728,8.60003404" id="Path-33-Copy-4" stroke="#43BA8E" stroke-width="1.8816" mask="url(#mask-8)"></path>
                            </g>
                            <polygon id="Path-35" fill="#0D6574" points="85.1876506 184.756823 76.549814 218.669401 143.675218 218.669401 151.602754 184.756823"></polygon>
                            <g id="Group-16" transform="translate(-0.000000, 0.000000)">
                                <path d="M6.90524458,12.7659574 L153.166109,12.7659574 C158.670454,12.7659574 163.541297,16.3297649 165.207203,21.5759605 L193.630159,111.084216 C194.438901,113.631068 193.029884,116.351313 190.483032,117.160055 C190.009461,117.310436 189.515551,117.386972 189.018676,117.386972 L34.8500666,117.386972 C32.7420196,117.386972 30.8765904,116.02211 30.2385836,114.012928 L0.756600607,21.1696325 C-0.321721577,17.7738302 1.55696725,14.1468357 4.95276955,13.0685135 C5.58419842,12.868006 6.24274502,12.7659574 6.90524458,12.7659574 Z" id="Rectangle-18-Copy-4" fill="#D6F1EE" opacity="0.43676404"></path>
                                <path d="M16.9472866,0 L163.208151,-8.8817842e-15 C168.712496,-1.96705966e-14 173.583339,3.56380748 175.249245,8.81000306 L203.672201,98.3182584 C204.480943,100.86511 203.071926,103.585356 200.525074,104.394098 C200.051503,104.544478 199.557593,104.621015 199.060718,104.621015 L44.8921086,104.621015 C42.7840617,104.621015 40.9186324,103.256152 40.2806257,101.246971 L10.7986426,8.40367503 C9.72032046,5.00787273 11.5990093,1.38087821 14.9948116,0.302556028 C15.6262405,0.102048549 16.2847871,4.56259129e-15 16.9472866,4.4408921e-15 Z" id="Rectangle-18-Copy-9" stroke="#0D6574" stroke-width="2" opacity="0.43676404"></path>
                                <path d="M6.90524458,12.7659574 L32.7198346,12.7659574 L64.6214688,117.386972 L34.8500666,117.386972 C32.7420196,117.386972 30.8765904,116.02211 30.2385836,114.012928 L0.756600607,21.1696325 C-0.321721577,17.7738302 1.55696725,14.1468357 4.95276955,13.0685135 C5.58419842,12.868006 6.24274502,12.7659574 6.90524458,12.7659574 Z" id="Rectangle-18-Copy-6" fill="#0D6574" opacity="0.600000024"></path>
                                <path d="M57.0059664,30.2027932 L145.775573,30.2027932 C150.839097,30.2027932 155.319854,33.4811895 156.852344,38.307238 L156.852344,38.307238 C157.89227,41.5821258 156.080476,45.0799736 152.805588,46.1198999 C152.196643,46.3132679 151.561545,46.4116828 150.922635,46.4116828 L51.1315356,46.4116828 L49.3201614,40.707387 C47.9722587,36.4626341 50.3206197,31.928891 54.5653726,30.5809883 C55.3546587,30.3303539 56.1778419,30.2027932 57.0059664,30.2027932 Z" id="Rectangle-18-Copy-5" fill="#FFFFFF"></path>
                                <path d="M72.9732009,87.1794961 L129.516774,87.1794961 C134.580297,87.1794961 139.061054,90.4578923 140.593545,95.2839409 L140.593545,95.2839409 C141.633471,98.5588286 139.821677,102.056676 136.546789,103.096603 C135.937843,103.289971 135.302746,103.388386 134.663836,103.388386 L67.0987701,103.388386 L65.2873959,97.6840899 C63.9394932,93.439337 66.2878542,88.9055938 70.5326071,87.5576911 C71.3218932,87.3070568 72.1450764,87.1794961 72.9732009,87.1794961 Z" id="Rectangle-18-Copy-8" fill="#FFFFFF"></path>
                                <path d="M102.631519,58.4455554 L153.772849,58.4455554 C159.745648,58.4455554 165.031031,62.3126657 166.838717,68.005346 L168.95011,74.654445 L107.778581,74.654445 C102.715058,74.654445 98.2343013,71.3760488 96.7018106,66.5500002 L96.7018106,66.5500002 C95.6618843,63.2751125 97.4736786,59.7772646 100.748566,58.7373383 C101.357512,58.5439703 101.99261,58.4455554 102.631519,58.4455554 Z" id="Rectangle-18-Copy-7" fill="#0D5764"></path>
                                <path d="M8.15858033,26.2777762 L30.1171522,26.2777762" id="Path-36" stroke="#FFFFFF" stroke-width="2.4192" stroke-linecap="round" stroke-linejoin="round"></path>
                                <path d="M10.8604298,38.557238 L32.8190017,38.557238" id="Path-36-Copy" stroke="#FFFFFF" stroke-width="2.4192" stroke-linecap="round" stroke-linejoin="round"></path>
                                <path d="M15.7728835,52.064646 L37.7314554,52.064646" id="Path-36-Copy-2" stroke="#FFFFFF" stroke-width="2.4192" stroke-linecap="round" stroke-linejoin="round"></path>
                                <path d="M21.4222052,66.3088217 L43.3807771,66.3088217" id="Path-36-Copy-4" stroke="#FFFFFF" stroke-width="2.4192" stroke-linecap="round" stroke-linejoin="round"></path>
                                <path d="M25.5977908,81.7809436 L47.5563627,81.7809436" id="Path-36-Copy-5" stroke="#FFFFFF" stroke-width="2.4192" stroke-linecap="round" stroke-linejoin="round"></path>
                            </g>
                        </g>
                        <path d="M124.597586,158.258129 C112.620267,173.467284 107.213494,185.257693 108.377267,193.629356 C117.644027,193.629356 126.030399,193.629356 126.030399,193.629356 C126.030399,193.629356 110.24504,211.826618 104.169543,215.458164 C100.119212,217.879194 97.4716671,220.776988 96.2269076,224.151545 C75.2863355,225.277949 65.3735127,225.277949 66.4884392,224.151545 C67.6033657,223.025142 76.2576143,202.680117 92.4511851,163.116469 L108.377267,156.642946 L124.597586,158.258129 Z" id="Path-44" fill="#0D6574" opacity="0.5"></path>
                        <path d="M125.725745,257.365086 C95.6904303,257.365086 114.068813,285.286756 91.4543198,294.206016 C76.0822845,246.854861 50.6144493,222.279603 48.8065769,220.835112 C46.0947684,218.668376 29.8805264,212.489453 21.4907476,208.717066 C13.1009688,204.944679 8.71402869,200.167022 7.0034206,198.998874 C5.29281251,197.830726 -0.367344195,195.277404 0.0188384313,193.297697 C0.405021058,191.317989 6.13727402,189.805465 9.83392579,191.551581 C13.5305776,193.297697 19.9149984,196.245917 25.8736877,196.41432 C27.378094,188.56611 21.4907476,176.656046 19.9149984,175.088422 C19.2380089,174.414923 16.5021098,169.37644 10.8413723,164.915218 C7.85321987,162.560258 6.87197972,161.622889 4.53245833,160.713908 C2.19293693,159.804927 0.471016376,154.313174 3.21249318,154.551321 C4.03324201,154.622617 9.09331619,155.356404 12.3060982,157.348468 C20.7609899,162.590868 26.8092538,166.032873 29.8805264,172.250401 C28.4014581,168.164501 24.8783205,160.454584 16.5424263,160.038231 C15.1178375,158.966674 13.4154433,157.759122 11.8750356,157.07117 C11.5693903,154.843665 17.4269326,153.640934 18.5241441,153.640934 C22.3943499,153.640934 25.4495357,153.640934 29.0874149,155.31084 C30.7833336,154.360137 36.3740495,152.791231 40.542549,154.551321 C43.1620403,155.657363 45.3286771,158.324418 47.4497386,161.391846 C51.2775653,160.713908 56.7701673,164.772814 58.4204074,166.377358 C68.1683305,175.855353 68.0938007,193.900293 72.368394,201.329626 C76.6429873,208.758959 104.57979,238.034675 125.725745,257.365086 Z" id="Path-68-Copy-2" fill="#FFD7B3" transform="translate(62.862872, 223.923475) scale(-1, 1) translate(-62.862872, -223.923475) "></path>
                        <path d="M81.2808891,170.970322 C82.5700857,165.615055 84.3164436,161.808594 86.519963,159.550939 C90.8042534,155.161394 97.099007,153.553678 96.4600281,155.418267 C93.2065333,156.941499 90.4285224,158.835325 88.1259954,161.099744 C86.5293743,162.66994 84.2476722,165.960133 81.2808891,170.970322 Z" id="Path-47" fill="#979797" opacity="0.300000012"></path>
                        <path d="M101.85817,153.941025 C96.5752399,154.917952 92.3999963,156.92568 89.3324392,159.964208 C86.3989629,162.869924 81.6015491,168.946933 80.8450562,172.391336" id="Path-50" stroke="#979797" stroke-width="0.6"></path>
                        <path d="M77.9539151,162.003019 C74.6677712,167.027443 73.0246992,170.348526 73.0246992,171.966269" id="Path-51" stroke="#979797" stroke-width="0.6"></path>
                        <path d="M186.631443,160.989867 C195.242438,180.496738 198.879183,191.496926 197.541679,193.990429 C196.204175,196.483932 190.369606,197.699915 180.037973,197.638379 L180.037973,201.441036 L206.233721,224.423384 L221.103159,224.423384 L221.103159,197.638379 L232.703818,181.91813 L226.716255,153.578261 C223.921626,167.271293 222.524312,173.088166 222.524312,171.028881 C222.524312,168.969596 218.975982,160.699955 211.879323,146.219957 L211.879323,171.028881 L197.541679,153.578261 L201.456674,175.452964 L186.631443,160.989867 Z" id="Path-52" fill="#0D6574" opacity="0.5"></path>
                        <path d="M303.80219,262.52246 C273.766876,262.52246 292.145259,290.44413 269.530765,299.36339 C254.15873,252.012235 228.690895,227.436977 226.883022,225.992486 C224.171214,223.82575 207.956972,217.646827 199.567193,213.87444 C191.177414,210.102053 186.790474,205.324396 185.079866,204.156248 C183.369258,202.9881 177.709101,200.434778 178.095284,198.455071 C178.481466,196.475363 184.213719,194.962838 187.910371,196.708955 C191.607023,198.455071 197.991444,201.403291 203.950133,201.571694 C205.454539,193.723484 199.567193,181.81342 197.991444,180.245796 C196.415695,178.678171 187.365116,163.104469 185.749043,159.775984 C185.181918,157.644429 186.414135,156.278578 189.445694,155.678431 C202.208849,172.009661 207.355726,177.670598 207.956972,177.407775 C208.85884,177.013541 194.082549,153.354646 193.141132,149.673057 C192.199715,145.991469 195.614637,144.29341 197.991444,146.0566 C199.087179,149.261693 217.475055,174.86155 217.706144,173.09448 C217.937234,171.327411 209.427257,148.046638 208.816965,144.014274 C210.009765,141.513294 211.751723,141.039644 214.042838,142.593324 C221.307649,161.120465 226.411892,171.642274 229.355565,174.158751 C227.261928,167.452754 226.883022,159.775984 225.27872,155.678431 C223.674418,151.580879 227.264443,150.273145 228.162905,150.851861 C229.947255,152.001193 235.462791,170.469874 235.981578,173.09448 C236.500366,175.719087 248.745015,198.130477 250.444839,206.487 C251.578055,212.058016 282.656236,243.192049 303.80219,262.52246 Z" id="Path-68-Copy" fill="#FFD7B3"></path>
                    </g>
                    <path d="M110.944209,114.666951 C110.189172,123.027167 114.99468,130.117904 112.323238,133.022264 C109.216087,136.400321 96.4909688,130.594101 88.2332453,122.218988 C86.5144248,122.381019 84.76838,122.46416 83,122.46416 C56.490332,122.46416 35,103.780071 35,80.7320799 C35,57.6840886 56.490332,39 83,39 C109.509668,39 131,57.6840886 131,80.7320799 C131,94.7165423 123.088324,107.094432 110.944209,114.666951 Z" id="Combined-Shape-Copy-6" stroke="#0D6574" stroke-width="3" opacity="0.43676404"></path>
                    <path d="M478.294982,62.7427729 L478.384738,61.7510354 L479.230213,61.2249452 C489.077707,55.0974217 495,45.3110402 495,34.7035191 C495,16.7099871 478.044962,2 457,2 C435.955038,2 419,16.7099871 419,34.7035191 C419,52.697051 435.955038,67.4070381 457,67.4070381 C458.402199,67.4070381 459.794765,67.3416684 461.173724,67.2119493 L462.117474,67.1231705 L462.783717,67.7974611 C465.921641,70.9732929 470.048703,73.834492 473.829136,75.5364805 C477.116997,77.016708 479.540964,77.2919562 479.965448,76.8314334 C480.298212,76.4704183 480.206211,75.6164437 479.222875,71.521106 C478.371354,67.9747497 478.043674,65.5195463 478.294982,62.7427729 Z" id="Combined-Shape-Copy-7" stroke="#54B454" stroke-width="4" transform="translate(457.000000, 39.500000) scale(-1, 1) translate(-457.000000, -39.500000) "></path>
                </g>
            </g>
        </g>
    </g>
</svg>